{
.appVersion = "895";
copyright = "Copyright 2016 Google Inc. All Rights Reserved.";
customParameters = (
{
name = description;
value = "Designed by Monotype design team.";
},
{
name = license;
value = "This Font Software is licensed under the SIL Open Font License, Version 1.1. This Font Software is distributed on an \"AS IS\" BASIS, WITHOUT WARRANTIES OR CONDITIONS OF ANY KIND, either express or implied. See the SIL Open Font License for the specific language, permissions and limitations governing your use of this Font Software.";
},
{
name = licenseURL;
value = "http://scripts.sil.org/OFL";
},
{
name = vendorID;
value = GOOG;
},
{
name = trademark;
value = "Noto is a trademark of Google Inc.";
},
{
name = fsType;
value = ();
},
{
name = panose;
value = (
2,
11,
5,
2,
4,
5,
4,
2,
2,
4
);
},
{
name = unicodeRanges;
value = (
97
);
},
{
name = codePageRanges;
value = (
1252
);
},
{
name = glyphOrder;
value = (
.notdef,
null,
uni000D,
space,
uni2C00,
uni2C01,
uni2C02,
uni2C03,
uni2C04,
uni2C05,
uni2C06,
uni2C07,
uni2C08,
uni2C09,
uni2C0A,
uni2C0B,
uni2C0C,
uni2C0D,
uni2C0E,
uni2C0F,
uni2C10,
uni2C11,
uni2C12,
uni2C13,
uni2C14,
uni2C15,
uni2C16,
uni2C17,
uni2C18,
uni2C19,
uni2C1A,
uni2C1B,
uni2C1C,
uni2C1D,
uni2C1E,
uni2C1F,
uni2C20,
uni2C21,
uni2C22,
uni2C23,
uni2C24,
uni2C25,
uni2C26,
uni2C27,
uni2C28,
uni2C29,
uni2C2A,
uni2C2B,
uni2C2C,
uni2C2D,
uni2C2E,
uni2C30,
uni2C31,
uni2C32,
uni2C33,
uni2C34,
uni2C35,
uni2C36,
uni2C37,
uni2C38,
uni2C39,
uni2C3A,
uni2C3B,
uni2C3C,
uni2C3D,
uni2C3E,
uni2C3F,
uni2C40,
uni2C41,
uni2C42,
uni2C43,
uni2C44,
uni2C45,
uni2C46,
uni2C47,
uni2C48,
uni2C49,
uni2C4A,
uni2C4B,
uni2C4C,
uni2C4D,
uni2C4E,
uni2C4F,
uni2C50,
uni2C51,
uni2C52,
uni2C53,
uni2C54,
uni2C55,
uni2C56,
uni2C57,
uni2C58,
uni2C59,
uni2C5A,
uni2C5B,
uni2C5C,
uni2C5D,
uni2C5E
);
}
);
date = "2016-11-10 12:21:57 +0000";
designer = "Monotype Design Team";
designerURL = "http://www.monotype.com/studio";
familyName = "Noto Sans Glagolitic";
fontMaster = (
{
ascender = 2189;

glyphs = (
{
glyphname = .notdef;
lastChange = "2016-11-10 13:58:48 +0000";
layers = (
{
layerId = "7ECAB14D-022C-4526-8131-D22A8657820C";
paths = (
{
closed = 1;
nodes = (
"922 0 LINE",
"922 1462 LINE",
"102 1462 LINE",
"102 0 LINE"
);
},
{
closed = 1;
nodes = (
"201 1364 LINE",
"823 1364 LINE",
"823 98 LINE",
"201 98 LINE"
);
}
);
width = 1024;
}
);
note = .notdef;
},
{
glyphname = uni2C00;
lastChange = "2016-11-10 13:58:43 +0000";
layers = (
{
layerId = "7ECAB14D-022C-4526-8131-D22A8657820C";
paths = (
{
closed = 1;
nodes = (
"344 0 LINE",
"344 518 LINE SMOOTH",
"344 599 OFFCURVE",
"365 618 OFFCURVE",
"444 618 CURVE SMOOTH",
"745 618 LINE",
"745 0 LINE",
"929 0 LINE",
"929 618 LINE",
"1230 618 LINE SMOOTH",
"1311 618 OFFCURVE",
"1330 597 OFFCURVE",
"1330 518 CURVE SMOOTH",
"1330 0 LINE",
"1514 0 LINE",
"1514 580 LINE SMOOTH",
"1514 739 OFFCURVE",
"1473 780 OFFCURVE",
"1314 780 CURVE SMOOTH",
"929 780 LINE",
"929 1462 LINE",
"745 1462 LINE",
"745 780 LINE",
"360 780 LINE SMOOTH",
"304 780 OFFCURVE",
"262 774 OFFCURVE",
"235 763 CURVE SMOOTH",
"180 740 OFFCURVE",
"160 695 OFFCURVE",
"160 580 CURVE SMOOTH",
"160 0 LINE"
);
}
);
width = 1674;
}
);
note = uni2C00;
unicode = 2C00;
},
{
glyphname = uni2C01;
lastChange = "2016-11-10 13:58:43 +0000";
layers = (
{
layerId = "7ECAB14D-022C-4526-8131-D22A8657820C";
paths = (
{
closed = 1;
nodes = (
"1505 0 LINE",
"1505 162 LINE",
"484 162 LINE SMOOTH",
"451 162 OFFCURVE",
"429 165 OFFCURVE",
"417 170 CURVE",
"393 181 OFFCURVE",
"384 203 OFFCURVE",
"384 262 CURVE SMOOTH",
"384 622 LINE",
"1355 713 LINE SMOOTH",
"1427 720 OFFCURVE",
"1474 729 OFFCURVE",
"1496 740 CURVE SMOOTH",
"1540 762 OFFCURVE",
"1555 800 OFFCURVE",
"1555 912 CURVE SMOOTH",
"1555 1462 LINE",
"1371 1462 LINE",
"1371 934 LINE SMOOTH",
"1371 891 OFFCURVE",
"1358 871 OFFCURVE",
"1307 867 CURVE SMOOTH",
"969 835 LINE",
"969 1462 LINE",
"785 1462 LINE",
"785 818 LINE",
"384 780 LINE",
"384 1462 LINE",
"200 1462 LINE",
"200 200 LINE SMOOTH",
"200 143 OFFCURVE",
"206 102 OFFCURVE",
"217 75 CURVE SMOOTH",
"240 21 OFFCURVE",
"285 0 OFFCURVE",
"400 0 CURVE SMOOTH"
);
}
);
width = 1735;
}
);
note = uni2C01;
unicode = 2C01;
},
{
glyphname = uni2C02;
lastChange = "2016-11-10 13:58:43 +0000";
layers = (
{
layerId = "7ECAB14D-022C-4526-8131-D22A8657820C";
paths = (
{
closed = 1;
nodes = (
"1776 0 LINE SMOOTH",
"1937 0 OFFCURVE",
"1976 41 OFFCURVE",
"1976 200 CURVE SMOOTH",
"1976 1262 LINE SMOOTH",
"1976 1421 OFFCURVE",
"1935 1462 OFFCURVE",
"1776 1462 CURVE SMOOTH",
"1428 1462 LINE SMOOTH",
"1372 1462 OFFCURVE",
"1330 1456 OFFCURVE",
"1303 1445 CURVE SMOOTH",
"1248 1422 OFFCURVE",
"1228 1377 OFFCURVE",
"1228 1262 CURVE SMOOTH",
"1228 162 LINE",
"948 162 LINE",
"948 1262 LINE SMOOTH",
"948 1421 OFFCURVE",
"907 1462 OFFCURVE",
"748 1462 CURVE SMOOTH",
"400 1462 LINE SMOOTH",
"344 1462 OFFCURVE",
"302 1456 OFFCURVE",
"275 1445 CURVE SMOOTH",
"220 1422 OFFCURVE",
"200 1377 OFFCURVE",
"200 1262 CURVE SMOOTH",
"200 200 LINE SMOOTH",
"200 143 OFFCURVE",
"206 102 OFFCURVE",
"217 75 CURVE SMOOTH",
"240 21 OFFCURVE",
"285 0 OFFCURVE",
"400 0 CURVE SMOOTH"
);
},
{
closed = 1;
nodes = (
"403 162 OFFCURVE",
"384 183 OFFCURVE",
"384 262 CURVE SMOOTH",
"384 1200 LINE SMOOTH",
"384 1281 OFFCURVE",
"405 1300 OFFCURVE",
"484 1300 CURVE SMOOTH",
"664 1300 LINE SMOOTH",
"745 1300 OFFCURVE",
"764 1279 OFFCURVE",
"764 1200 CURVE SMOOTH",
"764 162 LINE",
"484 162 LINE SMOOTH"
);
},
{
closed = 1;
nodes = (
"1412 1200 LINE SMOOTH",
"1412 1281 OFFCURVE",
"1433 1300 OFFCURVE",
"1512 1300 CURVE SMOOTH",
"1692 1300 LINE SMOOTH",
"1773 1300 OFFCURVE",
"1792 1279 OFFCURVE",
"1792 1200 CURVE SMOOTH",
"1792 262 LINE SMOOTH",
"1792 181 OFFCURVE",
"1771 162 OFFCURVE",
"1692 162 CURVE SMOOTH",
"1412 162 LINE"
);
}
);
width = 2176;
}
);
note = uni2C02;
unicode = 2C02;
},
{
glyphname = uni2C03;
lastChange = "2016-11-10 13:58:43 +0000";
layers = (
{
layerId = "7ECAB14D-022C-4526-8131-D22A8657820C";
paths = (
{
closed = 1;
nodes = (
"546 0 LINE",
"757 567 LINE",
"780 566 LINE",
"995 566 LINE",
"995 200 LINE SMOOTH",
"995 143 OFFCURVE",
"1001 102 OFFCURVE",
"1012 75 CURVE SMOOTH",
"1035 21 OFFCURVE",
"1080 0 OFFCURVE",
"1195 0 CURVE SMOOTH",
"1801 0 LINE",
"1801 646 LINE SMOOTH",
"1801 805 OFFCURVE",
"1760 846 OFFCURVE",
"1601 846 CURVE SMOOTH",
"1195 846 LINE SMOOTH",
"1066 846 OFFCURVE",
"1016 819 OFFCURVE",
"1000 728 CURVE",
"817 728 LINE",
"1090 1462 LINE",
"260 1462 LINE SMOOTH",
"196 1462 OFFCURVE",
"160 1422 OFFCURVE",
"160 1363 CURVE SMOOTH",
"160 1177 LINE SMOOTH",
"160 901 OFFCURVE",
"338 674 OFFCURVE",
"591 597 CURVE",
"369 0 LINE"
);
},
{
closed = 1;
nodes = (
"464 798 OFFCURVE",
"344 956 OFFCURVE",
"344 1152 CURVE SMOOTH",
"344 1215 OFFCURVE",
"348 1255 OFFCURVE",
"357 1273 CURVE",
"365 1291 OFFCURVE",
"385 1300 OFFCURVE",
"417 1300 CURVE SMOOTH",
"853 1300 LINE",
"647 747 LINE"
);
},
{
closed = 1;
nodes = (
"1198 162 OFFCURVE",
"1179 183 OFFCURVE",
"1179 262 CURVE SMOOTH",
"1179 584 LINE SMOOTH",
"1179 665 OFFCURVE",
"1200 684 OFFCURVE",
"1279 684 CURVE SMOOTH",
"1517 684 LINE SMOOTH",
"1598 684 OFFCURVE",
"1617 663 OFFCURVE",
"1617 584 CURVE SMOOTH",
"1617 162 LINE",
"1279 162 LINE SMOOTH"
);
}
);
width = 1961;
}
);
note = uni2C03;
unicode = 2C03;
},
{
glyphname = uni2C04;
lastChange = "2016-11-10 13:58:43 +0000";
layers = (
{
layerId = "7ECAB14D-022C-4526-8131-D22A8657820C";
paths = (
{
closed = 1;
nodes = (
"748 0 LINE SMOOTH",
"909 0 OFFCURVE",
"948 41 OFFCURVE",
"948 200 CURVE SMOOTH",
"948 1300 LINE",
"1128 1300 LINE SMOOTH",
"1209 1300 OFFCURVE",
"1228 1279 OFFCURVE",
"1228 1200 CURVE SMOOTH",
"1228 200 LINE SMOOTH",
"1228 143 OFFCURVE",
"1234 102 OFFCURVE",
"1245 75 CURVE SMOOTH",
"1268 21 OFFCURVE",
"1313 0 OFFCURVE",
"1428 0 CURVE SMOOTH",
"1834 0 LINE SMOOTH",
"1995 0 OFFCURVE",
"2034 41 OFFCURVE",
"2034 200 CURVE SMOOTH",
"2034 678 LINE SMOOTH",
"2034 837 OFFCURVE",
"1993 878 OFFCURVE",
"1834 878 CURVE SMOOTH",
"1412 878 LINE",
"1412 1262 LINE SMOOTH",
"1412 1421 OFFCURVE",
"1371 1462 OFFCURVE",
"1212 1462 CURVE SMOOTH",
"400 1462 LINE SMOOTH",
"344 1462 OFFCURVE",
"302 1456 OFFCURVE",
"275 1445 CURVE SMOOTH",
"220 1422 OFFCURVE",
"200 1377 OFFCURVE",
"200 1262 CURVE SMOOTH",
"200 200 LINE SMOOTH",
"200 143 OFFCURVE",
"206 102 OFFCURVE",
"217 75 CURVE SMOOTH",
"240 21 OFFCURVE",
"285 0 OFFCURVE",
"400 0 CURVE SMOOTH"
);
},
{
closed = 1;
nodes = (
"403 162 OFFCURVE",
"384 183 OFFCURVE",
"384 262 CURVE SMOOTH",
"384 1200 LINE SMOOTH",
"384 1281 OFFCURVE",
"405 1300 OFFCURVE",
"484 1300 CURVE SMOOTH",
"764 1300 LINE",
"764 262 LINE SMOOTH",
"764 181 OFFCURVE",
"743 162 OFFCURVE",
"664 162 CURVE SMOOTH",
"484 162 LINE SMOOTH"
);
},
{
closed = 1;
nodes = (
"1431 162 OFFCURVE",
"1412 183 OFFCURVE",
"1412 262 CURVE SMOOTH",
"1412 716 LINE",
"1750 716 LINE SMOOTH",
"1831 716 OFFCURVE",
"1850 695 OFFCURVE",
"1850 616 CURVE SMOOTH",
"1850 262 LINE SMOOTH",
"1850 181 OFFCURVE",
"1829 162 OFFCURVE",
"1750 162 CURVE SMOOTH",
"1512 162 LINE SMOOTH"
);
}
);
width = 2194;
}
);
note = uni2C04;
unicode = 2C04;
},
{
glyphname = uni2C05;
lastChange = "2016-11-10 13:58:43 +0000";
layers = (
{
layerId = "7ECAB14D-022C-4526-8131-D22A8657820C";
paths = (
{
closed = 1;
nodes = (
"957 -20 OFFCURVE",
"1208 257 OFFCURVE",
"1208 756 CURVE SMOOTH",
"1208 906 OFFCURVE",
"1181 1035 OFFCURVE",
"1127 1144 CURVE SMOOTH",
"1019 1361 OFFCURVE",
"805 1483 OFFCURVE",
"516 1483 CURVE SMOOTH",
"355 1483 OFFCURVE",
"216 1454 OFFCURVE",
"100 1397 CURVE",
"176 1243 LINE",
"290 1295 OFFCURVE",
"403 1321 OFFCURVE",
"514 1321 CURVE SMOOTH",
"801 1321 OFFCURVE",
"985 1142 OFFCURVE",
"1012 846 CURVE",
"303 846 LINE",
"303 684 LINE",
"1014 684 LINE",
"1003 333 OFFCURVE",
"825 141 OFFCURVE",
"473 141 CURVE SMOOTH",
"341 141 OFFCURVE",
"228 168 OFFCURVE",
"113 199 CURVE",
"113 39 LINE",
"248 -8 OFFCURVE",
"351 -20 OFFCURVE",
"502 -20 CURVE SMOOTH"
);
}
);
width = 1348;
}
);
note = uni2C05;
unicode = 2C05;
},
{
glyphname = uni2C06;
lastChange = "2016-11-10 13:58:43 +0000";
layers = (
{
layerId = "7ECAB14D-022C-4526-8131-D22A8657820C";
paths = (
{
closed = 1;
nodes = (
"748 0 LINE SMOOTH",
"909 0 OFFCURVE",
"948 41 OFFCURVE",
"948 200 CURVE SMOOTH",
"948 1300 LINE",
"1228 1300 LINE",
"1228 200 LINE SMOOTH",
"1228 143 OFFCURVE",
"1234 102 OFFCURVE",
"1245 75 CURVE SMOOTH",
"1268 21 OFFCURVE",
"1313 0 OFFCURVE",
"1428 0 CURVE SMOOTH",
"1776 0 LINE SMOOTH",
"1937 0 OFFCURVE",
"1976 41 OFFCURVE",
"1976 200 CURVE SMOOTH",
"1976 1262 LINE SMOOTH",
"1976 1421 OFFCURVE",
"1935 1462 OFFCURVE",
"1776 1462 CURVE SMOOTH",
"1258 1462 LINE",
"1311 1594 OFFCURVE",
"1429 1660 OFFCURVE",
"1656 1660 CURVE SMOOTH",
"1708 1660 LINE",
"1708 1822 LINE",
"1670 1822 LINE SMOOTH",
"1375 1822 OFFCURVE",
"1169 1710 OFFCURVE",
"1088 1495 CURVE",
"1007 1707 OFFCURVE",
"802 1822 OFFCURVE",
"506 1822 CURVE SMOOTH",
"468 1822 LINE",
"468 1660 LINE",
"520 1660 LINE SMOOTH",
"732 1660 OFFCURVE",
"857 1605 OFFCURVE",
"918 1462 CURVE",
"400 1462 LINE SMOOTH",
"344 1462 OFFCURVE",
"302 1456 OFFCURVE",
"275 1445 CURVE SMOOTH",
"220 1422 OFFCURVE",
"200 1377 OFFCURVE",
"200 1262 CURVE SMOOTH",
"200 200 LINE SMOOTH",
"200 143 OFFCURVE",
"206 102 OFFCURVE",
"217 75 CURVE SMOOTH",
"240 21 OFFCURVE",
"285 0 OFFCURVE",
"400 0 CURVE SMOOTH"
);
},
{
closed = 1;
nodes = (
"403 162 OFFCURVE",
"384 183 OFFCURVE",
"384 262 CURVE SMOOTH",
"384 1200 LINE SMOOTH",
"384 1281 OFFCURVE",
"405 1300 OFFCURVE",
"484 1300 CURVE SMOOTH",
"764 1300 LINE",
"764 262 LINE SMOOTH",
"764 181 OFFCURVE",
"743 162 OFFCURVE",
"664 162 CURVE SMOOTH",
"484 162 LINE SMOOTH"
);
},
{
closed = 1;
nodes = (
"1431 162 OFFCURVE",
"1412 183 OFFCURVE",
"1412 262 CURVE SMOOTH",
"1412 1300 LINE",
"1692 1300 LINE SMOOTH",
"1773 1300 OFFCURVE",
"1792 1279 OFFCURVE",
"1792 1200 CURVE SMOOTH",
"1792 262 LINE SMOOTH",
"1792 181 OFFCURVE",
"1771 162 OFFCURVE",
"1692 162 CURVE SMOOTH",
"1512 162 LINE SMOOTH"
);
}
);
width = 2176;
}
);
note = uni2C06;
unicode = 2C06;
},
{
glyphname = uni2C07;
lastChange = "2016-11-10 13:58:43 +0000";
layers = (
{
layerId = "7ECAB14D-022C-4526-8131-D22A8657820C";
paths = (
{
closed = 1;
nodes = (
"1348 0 LINE SMOOTH",
"1509 0 OFFCURVE",
"1548 41 OFFCURVE",
"1548 200 CURVE SMOOTH",
"1548 646 LINE SMOOTH",
"1548 802 OFFCURVE",
"1512 843 OFFCURVE",
"1356 846 CURVE",
"1484 946 OFFCURVE",
"1548 1088 OFFCURVE",
"1548 1249 CURVE SMOOTH",
"1548 1363 LINE SMOOTH",
"1548 1422 OFFCURVE",
"1512 1462 OFFCURVE",
"1448 1462 CURVE SMOOTH",
"982 1462 LINE SMOOTH",
"926 1462 OFFCURVE",
"884 1456 OFFCURVE",
"857 1445 CURVE SMOOTH",
"802 1422 OFFCURVE",
"782 1377 OFFCURVE",
"782 1262 CURVE SMOOTH",
"782 846 LINE",
"400 846 LINE SMOOTH",
"344 846 OFFCURVE",
"302 840 OFFCURVE",
"275 829 CURVE SMOOTH",
"220 806 OFFCURVE",
"200 761 OFFCURVE",
"200 646 CURVE SMOOTH",
"200 200 LINE SMOOTH",
"200 143 OFFCURVE",
"206 102 OFFCURVE",
"217 75 CURVE SMOOTH",
"240 21 OFFCURVE",
"285 0 OFFCURVE",
"400 0 CURVE SMOOTH"
);
},
{
closed = 1;
nodes = (
"403 162 OFFCURVE",
"384 183 OFFCURVE",
"384 262 CURVE SMOOTH",
"384 584 LINE SMOOTH",
"384 665 OFFCURVE",
"405 684 OFFCURVE",
"484 684 CURVE SMOOTH",
"782 684 LINE",
"782 162 LINE",
"484 162 LINE SMOOTH"
);
},
{
closed = 1;
nodes = (
"966 684 LINE",
"1264 684 LINE SMOOTH",
"1345 684 OFFCURVE",
"1364 663 OFFCURVE",
"1364 584 CURVE SMOOTH",
"1364 262 LINE SMOOTH",
"1364 181 OFFCURVE",
"1343 162 OFFCURVE",
"1264 162 CURVE SMOOTH",
"966 162 LINE"
);
},
{
closed = 1;
nodes = (
"966 1200 LINE SMOOTH",
"966 1281 OFFCURVE",
"987 1300 OFFCURVE",
"1066 1300 CURVE SMOOTH",
"1291 1300 LINE SMOOTH",
"1344 1300 OFFCURVE",
"1364 1286 OFFCURVE",
"1364 1233 CURVE SMOOTH",
"1364 1162 OFFCURVE",
"1349 1098 OFFCURVE",
"1319 1041 CURVE SMOOTH",
"1259 926 OFFCURVE",
"1146 862 OFFCURVE",
"999 846 CURVE",
"966 846 LINE"
);
}
);
width = 1748;
}
);
note = uni2C07;
unicode = 2C07;
},
{
glyphname = uni2C08;
lastChange = "2016-11-10 13:58:43 +0000";
layers = (
{
layerId = "7ECAB14D-022C-4526-8131-D22A8657820C";
paths = (
{
closed = 1;
nodes = (
"420 0 LINE SMOOTH",
"753 0 OFFCURVE",
"939 235 OFFCURVE",
"955 684 CURVE",
"1120 684 LINE",
"1120 200 LINE SMOOTH",
"1120 143 OFFCURVE",
"1126 102 OFFCURVE",
"1137 75 CURVE SMOOTH",
"1160 21 OFFCURVE",
"1205 0 OFFCURVE",
"1320 0 CURVE SMOOTH",
"1726 0 LINE SMOOTH",
"1887 0 OFFCURVE",
"1926 41 OFFCURVE",
"1926 200 CURVE SMOOTH",
"1926 646 LINE SMOOTH",
"1926 805 OFFCURVE",
"1885 846 OFFCURVE",
"1726 846 CURVE SMOOTH",
"952 846 LINE",
"927 1243 OFFCURVE",
"746 1462 OFFCURVE",
"438 1462 CURVE SMOOTH",
"200 1462 LINE",
"200 0 LINE"
);
},
{
closed = 1;
nodes = (
"384 684 LINE",
"761 684 LINE",
"752 324 OFFCURVE",
"644 162 OFFCURVE",
"401 162 CURVE SMOOTH",
"384 162 LINE"
);
},
{
closed = 1;
nodes = (
"384 1300 LINE",
"436 1300 LINE SMOOTH",
"631 1300 OFFCURVE",
"740 1143 OFFCURVE",
"759 846 CURVE",
"384 846 LINE"
);
},
{
closed = 1;
nodes = (
"1323 162 OFFCURVE",
"1304 183 OFFCURVE",
"1304 262 CURVE SMOOTH",
"1304 684 LINE",
"1642 684 LINE SMOOTH",
"1723 684 OFFCURVE",
"1742 663 OFFCURVE",
"1742 584 CURVE SMOOTH",
"1742 262 LINE SMOOTH",
"1742 181 OFFCURVE",
"1721 162 OFFCURVE",
"1642 162 CURVE SMOOTH",
"1404 162 LINE SMOOTH"
);
}
);
width = 2086;
}
);
note = uni2C08;
unicode = 2C08;
},
{
glyphname = uni2C09;
lastChange = "2016-11-10 13:58:43 +0000";
layers = (
{
layerId = "7ECAB14D-022C-4526-8131-D22A8657820C";
paths = (
{
closed = 1;
nodes = (
"1402 0 LINE",
"1402 162 LINE",
"1190 162 LINE",
"1190 641 LINE",
"1271 658 OFFCURVE",
"1334 695 OFFCURVE",
"1379 752 CURVE",
"1441 673 OFFCURVE",
"1535 633 OFFCURVE",
"1662 633 CURVE SMOOTH",
"1918 633 OFFCURVE",
"2036 765 OFFCURVE",
"2036 1098 CURVE SMOOTH",
"2036 1462 LINE",
"160 1462 LINE",
"160 1098 LINE SMOOTH",
"160 765 OFFCURVE",
"278 633 OFFCURVE",
"534 633 CURVE SMOOTH",
"661 633 OFFCURVE",
"755 672 OFFCURVE",
"816 751 CURVE",
"861 694 OFFCURVE",
"924 657 OFFCURVE",
"1006 641 CURVE",
"1006 162 LINE",
"794 162 LINE",
"794 0 LINE"
);
},
{
closed = 1;
nodes = (
"438 795 OFFCURVE",
"386 830 OFFCURVE",
"362 910 CURVE SMOOTH",
"350 949 OFFCURVE",
"344 1012 OFFCURVE",
"344 1098 CURVE SMOOTH",
"344 1300 LINE",
"724 1300 LINE",
"724 1098 LINE SMOOTH",
"724 1011 OFFCURVE",
"718 948 OFFCURVE",
"706 909 CURVE SMOOTH",
"682 830 OFFCURVE",
"630 795 OFFCURVE",
"534 795 CURVE SMOOTH"
);
},
{
closed = 1;
nodes = (
"1002 795 OFFCURVE",
"950 830 OFFCURVE",
"926 906 CURVE SMOOTH",
"914 943 OFFCURVE",
"908 1002 OFFCURVE",
"908 1082 CURVE SMOOTH",
"908 1300 LINE",
"1288 1300 LINE",
"1288 1082 LINE SMOOTH",
"1288 1004 OFFCURVE",
"1282 946 OFFCURVE",
"1270 907 CURVE SMOOTH",
"1246 830 OFFCURVE",
"1193 795 OFFCURVE",
"1098 795 CURVE SMOOTH"
);
},
{
closed = 1;
nodes = (
"1522 795 OFFCURVE",
"1472 861 OFFCURVE",
"1472 1080 CURVE SMOOTH",
"1472 1300 LINE",
"1852 1300 LINE",
"1852 1098 LINE SMOOTH",
"1852 1013 OFFCURVE",
"1846 951 OFFCURVE",
"1835 911 CURVE SMOOTH",
"1811 831 OFFCURVE",
"1759 795 OFFCURVE",
"1662 795 CURVE SMOOTH"
);
}
);
width = 2196;
}
);
note = uni2C09;
unicode = 2C09;
},
{
glyphname = uni2C0A;
lastChange = "2016-11-10 13:58:43 +0000";
layers = (
{
layerId = "7ECAB14D-022C-4526-8131-D22A8657820C";
paths = (
{
closed = 1;
nodes = (
"1472 0 LINE",
"1472 344 LINE SMOOTH",
"1472 520 OFFCURVE",
"1430 644 OFFCURVE",
"1346 716 CURVE",
"1358 727 OFFCURVE",
"1369 739 OFFCURVE",
"1379 752 CURVE",
"1441 673 OFFCURVE",
"1535 633 OFFCURVE",
"1662 633 CURVE SMOOTH",
"1918 633 OFFCURVE",
"2036 765 OFFCURVE",
"2036 1098 CURVE SMOOTH",
"2036 1462 LINE",
"160 1462 LINE",
"160 1098 LINE SMOOTH",
"160 765 OFFCURVE",
"278 633 OFFCURVE",
"534 633 CURVE SMOOTH",
"661 633 OFFCURVE",
"755 672 OFFCURVE",
"816 751 CURVE",
"827 738 OFFCURVE",
"838 726 OFFCURVE",
"849 716 CURVE",
"766 643 OFFCURVE",
"724 519 OFFCURVE",
"724 344 CURVE SMOOTH",
"724 0 LINE"
);
},
{
closed = 1;
nodes = (
"908 344 LINE SMOOTH",
"908 430 OFFCURVE",
"914 491 OFFCURVE",
"926 528 CURVE SMOOTH",
"949 600 OFFCURVE",
"999 633 OFFCURVE",
"1098 633 CURVE SMOOTH",
"1194 633 OFFCURVE",
"1247 602 OFFCURVE",
"1271 527 CURVE SMOOTH",
"1282 489 OFFCURVE",
"1288 428 OFFCURVE",
"1288 344 CURVE SMOOTH",
"1288 162 LINE",
"908 162 LINE"
);
},
{
closed = 1;
nodes = (
"438 795 OFFCURVE",
"386 830 OFFCURVE",
"362 910 CURVE SMOOTH",
"350 949 OFFCURVE",
"344 1012 OFFCURVE",
"344 1098 CURVE SMOOTH",
"344 1300 LINE",
"724 1300 LINE",
"724 1098 LINE SMOOTH",
"724 1011 OFFCURVE",
"718 948 OFFCURVE",
"706 909 CURVE SMOOTH",
"682 830 OFFCURVE",
"630 795 OFFCURVE",
"534 795 CURVE SMOOTH"
);
},
{
closed = 1;
nodes = (
"1001 795 OFFCURVE",
"950 830 OFFCURVE",
"926 909 CURVE SMOOTH",
"914 948 OFFCURVE",
"908 1011 OFFCURVE",
"908 1098 CURVE SMOOTH",
"908 1300 LINE",
"1288 1300 LINE",
"1288 1098 LINE SMOOTH",
"1288 1010 OFFCURVE",
"1282 946 OFFCURVE",
"1270 907 CURVE SMOOTH",
"1245 828 OFFCURVE",
"1193 795 OFFCURVE",
"1098 795 CURVE SMOOTH"
);
},
{
closed = 1;
nodes = (
"1522 795 OFFCURVE",
"1472 863 OFFCURVE",
"1472 1098 CURVE SMOOTH",
"1472 1300 LINE",
"1852 1300 LINE",
"1852 1098 LINE SMOOTH",
"1852 1013 OFFCURVE",
"1846 951 OFFCURVE",
"1835 911 CURVE SMOOTH",
"1811 831 OFFCURVE",
"1759 795 OFFCURVE",
"1662 795 CURVE SMOOTH"
);
}
);
width = 2196;
}
);
note = uni2C0A;
unicode = 2C0A;
},
{
glyphname = uni2C0B;
lastChange = "2016-11-10 13:58:43 +0000";
layers = (
{
layerId = "7ECAB14D-022C-4526-8131-D22A8657820C";
paths = (
{
closed = 1;
nodes = (
"908 0 LINE",
"908 364 LINE SMOOTH",
"908 543 OFFCURVE",
"866 670 OFFCURVE",
"782 745 CURVE",
"866 818 OFFCURVE",
"908 942 OFFCURVE",
"908 1118 CURVE SMOOTH",
"908 1462 LINE",
"160 1462 LINE",
"160 1118 LINE SMOOTH",
"160 943 OFFCURVE",
"202 819 OFFCURVE",
"285 746 CURVE",
"202 669 OFFCURVE",
"160 542 OFFCURVE",
"160 364 CURVE SMOOTH",
"160 0 LINE"
);
},
{
closed = 1;
nodes = (
"344 364 LINE SMOOTH",
"344 452 OFFCURVE",
"350 515 OFFCURVE",
"363 554 CURVE SMOOTH",
"387 631 OFFCURVE",
"437 667 OFFCURVE",
"534 667 CURVE SMOOTH",
"630 667 OFFCURVE",
"682 632 OFFCURVE",
"706 553 CURVE SMOOTH",
"718 513 OFFCURVE",
"724 450 OFFCURVE",
"724 364 CURVE SMOOTH",
"724 162 LINE",
"344 162 LINE"
);
},
{
closed = 1;
nodes = (
"435 829 OFFCURVE",
"385 862 OFFCURVE",
"362 935 CURVE SMOOTH",
"350 972 OFFCURVE",
"344 1033 OFFCURVE",
"344 1118 CURVE SMOOTH",
"344 1300 LINE",
"724 1300 LINE",
"724 1118 LINE SMOOTH",
"724 1037 OFFCURVE",
"718 977 OFFCURVE",
"707 939 CURVE SMOOTH",
"684 862 OFFCURVE",
"633 829 OFFCURVE",
"534 829 CURVE SMOOTH"
);
}
);
width = 1068;
}
);
note = uni2C0B;
unicode = 2C0B;
},
{
glyphname = uni2C0C;
lastChange = "2016-11-10 13:58:43 +0000";
layers = (
{
layerId = "7ECAB14D-022C-4526-8131-D22A8657820C";
paths = (
{
closed = 1;
nodes = (
"384 0 LINE",
"384 1200 LINE SMOOTH",
"384 1281 OFFCURVE",
"405 1300 OFFCURVE",
"484 1300 CURVE SMOOTH",
"664 1300 LINE SMOOTH",
"745 1300 OFFCURVE",
"764 1279 OFFCURVE",
"764 1200 CURVE SMOOTH",
"764 0 LINE",
"948 0 LINE",
"948 616 LINE",
"1258 616 LINE",
"1258 0 LINE",
"1442 0 LINE",
"1442 616 LINE",
"1827 635 OFFCURVE",
"2084 852 OFFCURVE",
"2084 1177 CURVE SMOOTH",
"2084 1363 LINE SMOOTH",
"2084 1422 OFFCURVE",
"2048 1462 OFFCURVE",
"1984 1462 CURVE SMOOTH",
"1458 1462 LINE SMOOTH",
"1402 1462 OFFCURVE",
"1360 1456 OFFCURVE",
"1333 1445 CURVE SMOOTH",
"1278 1422 OFFCURVE",
"1258 1377 OFFCURVE",
"1258 1262 CURVE SMOOTH",
"1258 778 LINE",
"948 778 LINE",
"948 1262 LINE SMOOTH",
"948 1421 OFFCURVE",
"907 1462 OFFCURVE",
"748 1462 CURVE SMOOTH",
"400 1462 LINE SMOOTH",
"344 1462 OFFCURVE",
"302 1456 OFFCURVE",
"275 1445 CURVE SMOOTH",
"220 1422 OFFCURVE",
"200 1377 OFFCURVE",
"200 1262 CURVE SMOOTH",
"200 0 LINE"
);
},
{
closed = 1;
nodes = (
"1442 1200 LINE SMOOTH",
"1442 1281 OFFCURVE",
"1463 1300 OFFCURVE",
"1542 1300 CURVE SMOOTH",
"1827 1300 LINE SMOOTH",
"1858 1300 OFFCURVE",
"1878 1292 OFFCURVE",
"1887 1275 CURVE SMOOTH",
"1896 1258 OFFCURVE",
"1900 1217 OFFCURVE",
"1900 1152 CURVE SMOOTH",
"1900 928 OFFCURVE",
"1730 794 OFFCURVE",
"1442 778 CURVE"
);
}
);
width = 2244;
}
);
note = uni2C0C;
unicode = 2C0C;
},
{
glyphname = uni2C0D;
lastChange = "2016-11-10 13:58:43 +0000";
layers = (
{
layerId = "7ECAB14D-022C-4526-8131-D22A8657820C";
paths = (
{
closed = 1;
nodes = (
"752 0 LINE",
"752 646 LINE SMOOTH",
"752 805 OFFCURVE",
"711 846 OFFCURVE",
"552 846 CURVE SMOOTH",
"289 846 LINE",
"418 1462 LINE",
"242 1462 LINE",
"80 684 LINE",
"468 684 LINE SMOOTH",
"549 684 OFFCURVE",
"568 663 OFFCURVE",
"568 584 CURVE SMOOTH",
"568 0 LINE"
);
}
);
width = 912;
}
);
note = uni2C0D;
unicode = 2C0D;
},
{
glyphname = uni2C0E;
lastChange = "2016-11-10 13:58:43 +0000";
layers = (
{
layerId = "7ECAB14D-022C-4526-8131-D22A8657820C";
paths = (
{
closed = 1;
nodes = (
"708 0 LINE SMOOTH",
"869 0 OFFCURVE",
"908 41 OFFCURVE",
"908 200 CURVE SMOOTH",
"908 684 LINE",
"1218 684 LINE",
"1218 200 LINE SMOOTH",
"1218 143 OFFCURVE",
"1224 102 OFFCURVE",
"1235 75 CURVE SMOOTH",
"1258 21 OFFCURVE",
"1303 0 OFFCURVE",
"1418 0 CURVE SMOOTH",
"1766 0 LINE SMOOTH",
"1927 0 OFFCURVE",
"1966 41 OFFCURVE",
"1966 200 CURVE SMOOTH",
"1966 646 LINE SMOOTH",
"1966 805 OFFCURVE",
"1925 846 OFFCURVE",
"1766 846 CURVE SMOOTH",
"1402 846 LINE",
"1402 1262 LINE SMOOTH",
"1402 1421 OFFCURVE",
"1361 1462 OFFCURVE",
"1202 1462 CURVE SMOOTH",
"924 1462 LINE SMOOTH",
"868 1462 OFFCURVE",
"826 1456 OFFCURVE",
"799 1445 CURVE SMOOTH",
"744 1422 OFFCURVE",
"724 1377 OFFCURVE",
"724 1262 CURVE SMOOTH",
"724 846 LINE",
"360 846 LINE SMOOTH",
"304 846 OFFCURVE",
"262 840 OFFCURVE",
"235 829 CURVE SMOOTH",
"180 806 OFFCURVE",
"160 761 OFFCURVE",
"160 646 CURVE SMOOTH",
"160 200 LINE SMOOTH",
"160 143 OFFCURVE",
"166 102 OFFCURVE",
"177 75 CURVE SMOOTH",
"200 21 OFFCURVE",
"245 0 OFFCURVE",
"360 0 CURVE SMOOTH"
);
},
{
closed = 1;
nodes = (
"363 162 OFFCURVE",
"344 183 OFFCURVE",
"344 262 CURVE SMOOTH",
"344 584 LINE SMOOTH",
"344 665 OFFCURVE",
"365 684 OFFCURVE",
"444 684 CURVE SMOOTH",
"724 684 LINE",
"724 262 LINE SMOOTH",
"724 181 OFFCURVE",
"703 162 OFFCURVE",
"624 162 CURVE SMOOTH",
"444 162 LINE SMOOTH"
);
},
{
closed = 1;
nodes = (
"1421 162 OFFCURVE",
"1402 183 OFFCURVE",
"1402 262 CURVE SMOOTH",
"1402 684 LINE",
"1682 684 LINE SMOOTH",
"1763 684 OFFCURVE",
"1782 663 OFFCURVE",
"1782 584 CURVE SMOOTH",
"1782 262 LINE SMOOTH",
"1782 181 OFFCURVE",
"1761 162 OFFCURVE",
"1682 162 CURVE SMOOTH",
"1502 162 LINE SMOOTH"
);
},
{
closed = 1;
nodes = (
"908 1200 LINE SMOOTH",
"908 1281 OFFCURVE",
"929 1300 OFFCURVE",
"1008 1300 CURVE SMOOTH",
"1118 1300 LINE SMOOTH",
"1199 1300 OFFCURVE",
"1218 1279 OFFCURVE",
"1218 1200 CURVE SMOOTH",
"1218 846 LINE",
"908 846 LINE"
);
}
);
width = 2126;
}
);
note = uni2C0E;
unicode = 2C0E;
},
{
glyphname = uni2C0F;
lastChange = "2016-11-10 13:58:43 +0000";
layers = (
{
layerId = "7ECAB14D-022C-4526-8131-D22A8657820C";
paths = (
{
closed = 1;
nodes = (
"384 0 LINE",
"384 977 LINE SMOOTH",
"384 1070 OFFCURVE",
"390 1139 OFFCURVE",
"403 1184 CURVE SMOOTH",
"428 1273 OFFCURVE",
"481 1320 OFFCURVE",
"574 1320 CURVE SMOOTH",
"705 1320 OFFCURVE",
"764 1238 OFFCURVE",
"764 993 CURVE SMOOTH",
"764 0 LINE",
"948 0 LINE",
"948 998 LINE SMOOTH",
"948 1234 OFFCURVE",
"1006 1320 OFFCURVE",
"1138 1320 CURVE SMOOTH",
"1185 1320 OFFCURVE",
"1222 1308 OFFCURVE",
"1250 1285 CURVE SMOOTH",
"1305 1238 OFFCURVE",
"1328 1158 OFFCURVE",
"1328 977 CURVE SMOOTH",
"1328 0 LINE",
"1512 0 LINE",
"1512 977 LINE SMOOTH",
"1512 1100 OFFCURVE",
"1499 1196 OFFCURVE",
"1473 1267 CURVE SMOOTH",
"1420 1407 OFFCURVE",
"1313 1482 OFFCURVE",
"1138 1482 CURVE SMOOTH",
"1013 1482 OFFCURVE",
"919 1442 OFFCURVE",
"857 1362 CURVE",
"796 1442 OFFCURVE",
"702 1482 OFFCURVE",
"574 1482 CURVE SMOOTH",
"323 1482 OFFCURVE",
"200 1333 OFFCURVE",
"200 977 CURVE SMOOTH",
"200 0 LINE"
);
}
);
width = 1712;
}
);
note = uni2C0F;
unicode = 2C0F;
},
{
glyphname = uni2C10;
lastChange = "2016-11-10 13:58:43 +0000";
layers = (
{
layerId = "7ECAB14D-022C-4526-8131-D22A8657820C";
paths = (
{
closed = 1;
nodes = (
"384 0 LINE",
"384 616 LINE",
"769 635 OFFCURVE",
"1026 852 OFFCURVE",
"1026 1177 CURVE SMOOTH",
"1026 1363 LINE SMOOTH",
"1026 1422 OFFCURVE",
"990 1462 OFFCURVE",
"926 1462 CURVE SMOOTH",
"400 1462 LINE SMOOTH",
"344 1462 OFFCURVE",
"302 1456 OFFCURVE",
"275 1445 CURVE SMOOTH",
"220 1422 OFFCURVE",
"200 1377 OFFCURVE",
"200 1262 CURVE SMOOTH",
"200 0 LINE"
);
},
{
closed = 1;
nodes = (
"384 1200 LINE SMOOTH",
"384 1281 OFFCURVE",
"405 1300 OFFCURVE",
"484 1300 CURVE SMOOTH",
"769 1300 LINE SMOOTH",
"800 1300 OFFCURVE",
"820 1292 OFFCURVE",
"829 1275 CURVE SMOOTH",
"838 1258 OFFCURVE",
"842 1217 OFFCURVE",
"842 1152 CURVE SMOOTH",
"842 928 OFFCURVE",
"672 794 OFFCURVE",
"384 778 CURVE"
);
}
);
width = 1166;
}
);
note = uni2C10;
unicode = 2C10;
},
{
glyphname = uni2C11;
lastChange = "2016-11-10 13:58:43 +0000";
layers = (
{
layerId = "7ECAB14D-022C-4526-8131-D22A8657820C";
paths = (
{
closed = 1;
nodes = (
"766 0 LINE SMOOTH",
"827 0 OFFCURVE",
"871 5 OFFCURVE",
"897 16 CURVE SMOOTH",
"948 36 OFFCURVE",
"966 77 OFFCURVE",
"966 200 CURVE SMOOTH",
"966 1262 LINE SMOOTH",
"966 1323 OFFCURVE",
"961 1367 OFFCURVE",
"951 1393 CURVE SMOOTH",
"930 1444 OFFCURVE",
"889 1462 OFFCURVE",
"766 1462 CURVE SMOOTH",
"367 1462 LINE SMOOTH",
"218 1462 OFFCURVE",
"140 1382 OFFCURVE",
"140 1177 CURVE SMOOTH",
"140 986 OFFCURVE",
"239 839 OFFCURVE",
"426 754 CURVE",
"245 651 OFFCURVE",
"140 481 OFFCURVE",
"140 285 CURVE SMOOTH",
"140 80 OFFCURVE",
"216 0 OFFCURVE",
"367 0 CURVE SMOOTH"
);
},
{
closed = 1;
nodes = (
"378 162 OFFCURVE",
"349 181 OFFCURVE",
"335 219 CURVE SMOOTH",
"328 238 OFFCURVE",
"324 270 OFFCURVE",
"324 317 CURVE SMOOTH",
"324 386 OFFCURVE",
"344 448 OFFCURVE",
"383 504 CURVE SMOOTH",
"462 616 OFFCURVE",
"609 683 OFFCURVE",
"782 684 CURVE",
"782 250 LINE SMOOTH",
"782 191 OFFCURVE",
"757 162 OFFCURVE",
"707 162 CURVE SMOOTH",
"431 162 LINE SMOOTH"
);
},
{
closed = 1;
nodes = (
"509 846 OFFCURVE",
"324 962 OFFCURVE",
"324 1145 CURVE SMOOTH",
"324 1191 OFFCURVE",
"327 1224 OFFCURVE",
"334 1243 CURVE SMOOTH",
"347 1281 OFFCURVE",
"376 1300 OFFCURVE",
"431 1300 CURVE SMOOTH",
"707 1300 LINE SMOOTH",
"757 1300 OFFCURVE",
"782 1271 OFFCURVE",
"782 1212 CURVE SMOOTH",
"782 846 LINE"
);
}
);
width = 1166;
}
);
note = uni2C11;
unicode = 2C11;
},
{
glyphname = uni2C12;
lastChange = "2016-11-10 13:58:43 +0000";
layers = (
{
layerId = "7ECAB14D-022C-4526-8131-D22A8657820C";
paths = (
{
closed = 1;
nodes = (
"384 0 LINE",
"384 1200 LINE SMOOTH",
"384 1281 OFFCURVE",
"405 1300 OFFCURVE",
"484 1300 CURVE SMOOTH",
"667 1300 LINE",
"667 600 LINE SMOOTH",
"667 543 OFFCURVE",
"673 502 OFFCURVE",
"684 475 CURVE SMOOTH",
"707 421 OFFCURVE",
"752 400 OFFCURVE",
"867 400 CURVE SMOOTH",
"1215 400 LINE SMOOTH",
"1376 400 OFFCURVE",
"1415 441 OFFCURVE",
"1415 600 CURVE SMOOTH",
"1415 1262 LINE SMOOTH",
"1415 1421 OFFCURVE",
"1374 1462 OFFCURVE",
"1215 1462 CURVE SMOOTH",
"400 1462 LINE SMOOTH",
"344 1462 OFFCURVE",
"302 1456 OFFCURVE",
"275 1445 CURVE SMOOTH",
"220 1422 OFFCURVE",
"200 1377 OFFCURVE",
"200 1262 CURVE SMOOTH",
"200 0 LINE"
);
},
{
closed = 1;
nodes = (
"870 562 OFFCURVE",
"851 583 OFFCURVE",
"851 662 CURVE SMOOTH",
"851 1300 LINE",
"1131 1300 LINE SMOOTH",
"1212 1300 OFFCURVE",
"1231 1279 OFFCURVE",
"1231 1200 CURVE SMOOTH",
"1231 662 LINE SMOOTH",
"1231 581 OFFCURVE",
"1210 562 OFFCURVE",
"1131 562 CURVE SMOOTH",
"951 562 LINE SMOOTH"
);
}
);
width = 1575;
}
);
note = uni2C12;
unicode = 2C12;
},
{
glyphname = uni2C13;
lastChange = "2016-11-10 13:58:43 +0000";
layers = (
{
layerId = "7ECAB14D-022C-4526-8131-D22A8657820C";
paths = (
{
closed = 1;
nodes = (
"799 0 LINE SMOOTH",
"950 0 OFFCURVE",
"1026 80 OFFCURVE",
"1026 285 CURVE SMOOTH",
"1026 388 OFFCURVE",
"998 482 OFFCURVE",
"942 568 CURVE SMOOTH",
"830 739 OFFCURVE",
"619 845 OFFCURVE",
"384 846 CURVE",
"384 1462 LINE",
"200 1462 LINE",
"200 200 LINE SMOOTH",
"200 139 OFFCURVE",
"205 95 OFFCURVE",
"216 70 CURVE",
"236 18 OFFCURVE",
"277 0 OFFCURVE",
"400 0 CURVE SMOOTH"
);
},
{
closed = 1;
nodes = (
"409 162 OFFCURVE",
"384 191 OFFCURVE",
"384 250 CURVE SMOOTH",
"384 684 LINE",
"466 683 OFFCURVE",
"543 666 OFFCURVE",
"614 633 CURVE SMOOTH",
"756 566 OFFCURVE",
"842 444 OFFCURVE",
"842 317 CURVE SMOOTH",
"842 271 OFFCURVE",
"839 239 OFFCURVE",
"832 220 CURVE SMOOTH",
"819 182 OFFCURVE",
"790 162 OFFCURVE",
"735 162 CURVE SMOOTH",
"459 162 LINE SMOOTH"
);
}
);
width = 1166;
}
);
note = uni2C13;
unicode = 2C13;
},
{
glyphname = uni2C14;
lastChange = "2016-11-10 13:58:43 +0000";
layers = (
{
layerId = "7ECAB14D-022C-4526-8131-D22A8657820C";
paths = (
{
closed = 1;
nodes = (
"1204 0 LINE",
"1204 364 LINE",
"1202 420 LINE",
"1391 515 OFFCURVE",
"1506 703 OFFCURVE",
"1506 923 CURVE SMOOTH",
"1506 1031 OFFCURVE",
"1477 1129 OFFCURVE",
"1418 1218 CURVE SMOOTH",
"1300 1395 OFFCURVE",
"1091 1485 OFFCURVE",
"824 1485 CURVE SMOOTH",
"688 1485 OFFCURVE",
"569 1462 OFFCURVE",
"467 1416 CURVE SMOOTH",
"263 1324 OFFCURVE",
"140 1134 OFFCURVE",
"140 911 CURVE SMOOTH",
"140 694 OFFCURVE",
"257 509 OFFCURVE",
"457 414 CURVE",
"456 389 LINE",
"456 0 LINE"
);
},
{
closed = 1;
nodes = (
"640 364 LINE SMOOTH",
"640 452 OFFCURVE",
"646 515 OFFCURVE",
"659 554 CURVE SMOOTH",
"683 631 OFFCURVE",
"733 667 OFFCURVE",
"830 667 CURVE SMOOTH",
"926 667 OFFCURVE",
"978 632 OFFCURVE",
"1002 553 CURVE SMOOTH",
"1014 513 OFFCURVE",
"1020 450 OFFCURVE",
"1020 364 CURVE SMOOTH",
"1020 162 LINE",
"640 162 LINE"
);
},
{
closed = 1;
nodes = (
"382 666 OFFCURVE",
"330 772 OFFCURVE",
"330 913 CURVE SMOOTH",
"330 993 OFFCURVE",
"351 1064 OFFCURVE",
"393 1126 CURVE SMOOTH",
"476 1249 OFFCURVE",
"637 1323 OFFCURVE",
"822 1323 CURVE SMOOTH",
"918 1323 OFFCURVE",
"1004 1307 OFFCURVE",
"1080 1274 CURVE SMOOTH",
"1231 1208 OFFCURVE",
"1316 1081 OFFCURVE",
"1316 913 CURVE SMOOTH",
"1316 780 OFFCURVE",
"1267 677 OFFCURVE",
"1168 604 CURVE",
"1113 754 OFFCURVE",
"1000 829 OFFCURVE",
"830 829 CURVE SMOOTH",
"653 829 OFFCURVE",
"538 751 OFFCURVE",
"487 594 CURVE"
);
}
);
width = 1646;
}
);
note = uni2C14;
unicode = 2C14;
},
{
glyphname = uni2C15;
lastChange = "2016-11-10 13:58:43 +0000";
layers = (
{
layerId = "7ECAB14D-022C-4526-8131-D22A8657820C";
paths = (
{
closed = 1;
nodes = (
"748 0 LINE SMOOTH",
"909 0 OFFCURVE",
"948 41 OFFCURVE",
"948 200 CURVE SMOOTH",
"948 1300 LINE",
"1228 1300 LINE",
"1228 200 LINE SMOOTH",
"1228 143 OFFCURVE",
"1234 102 OFFCURVE",
"1245 75 CURVE SMOOTH",
"1268 21 OFFCURVE",
"1313 0 OFFCURVE",
"1428 0 CURVE SMOOTH",
"1776 0 LINE SMOOTH",
"1937 0 OFFCURVE",
"1976 41 OFFCURVE",
"1976 200 CURVE SMOOTH",
"1976 1262 LINE SMOOTH",
"1976 1421 OFFCURVE",
"1935 1462 OFFCURVE",
"1776 1462 CURVE SMOOTH",
"400 1462 LINE SMOOTH",
"344 1462 OFFCURVE",
"302 1456 OFFCURVE",
"275 1445 CURVE SMOOTH",
"220 1422 OFFCURVE",
"200 1377 OFFCURVE",
"200 1262 CURVE SMOOTH",
"200 200 LINE SMOOTH",
"200 143 OFFCURVE",
"206 102 OFFCURVE",
"217 75 CURVE SMOOTH",
"240 21 OFFCURVE",
"285 0 OFFCURVE",
"400 0 CURVE SMOOTH"
);
},
{
closed = 1;
nodes = (
"403 162 OFFCURVE",
"384 183 OFFCURVE",
"384 262 CURVE SMOOTH",
"384 1200 LINE SMOOTH",
"384 1281 OFFCURVE",
"405 1300 OFFCURVE",
"484 1300 CURVE SMOOTH",
"764 1300 LINE",
"764 262 LINE SMOOTH",
"764 181 OFFCURVE",
"743 162 OFFCURVE",
"664 162 CURVE SMOOTH",
"484 162 LINE SMOOTH"
);
},
{
closed = 1;
nodes = (
"1431 162 OFFCURVE",
"1412 183 OFFCURVE",
"1412 262 CURVE SMOOTH",
"1412 1300 LINE",
"1692 1300 LINE SMOOTH",
"1773 1300 OFFCURVE",
"1792 1279 OFFCURVE",
"1792 1200 CURVE SMOOTH",
"1792 262 LINE SMOOTH",
"1792 181 OFFCURVE",
"1771 162 OFFCURVE",
"1692 162 CURVE SMOOTH",
"1512 162 LINE SMOOTH"
);
}
);
width = 2176;
}
);
note = uni2C15;
unicode = 2C15;
},
{
glyphname = uni2C16;
lastChange = "2016-11-10 13:58:43 +0000";
layers = (
{
layerId = "7ECAB14D-022C-4526-8131-D22A8657820C";
paths = (
{
closed = 1;
nodes = (
"1350 0 LINE SMOOTH",
"1511 0 OFFCURVE",
"1550 41 OFFCURVE",
"1550 200 CURVE SMOOTH",
"1550 1262 LINE SMOOTH",
"1550 1421 OFFCURVE",
"1509 1462 OFFCURVE",
"1350 1462 CURVE SMOOTH",
"387 1462 LINE SMOOTH",
"238 1462 OFFCURVE",
"160 1382 OFFCURVE",
"160 1177 CURVE SMOOTH",
"160 998 OFFCURVE",
"249 864 OFFCURVE",
"452 761 CURVE",
"275 668 OFFCURVE",
"160 482 OFFCURVE",
"160 285 CURVE SMOOTH",
"160 80 OFFCURVE",
"236 0 OFFCURVE",
"387 0 CURVE SMOOTH"
);
},
{
closed = 1;
nodes = (
"398 162 OFFCURVE",
"369 181 OFFCURVE",
"355 219 CURVE SMOOTH",
"348 238 OFFCURVE",
"344 270 OFFCURVE",
"344 317 CURVE SMOOTH",
"344 540 OFFCURVE",
"527 681 OFFCURVE",
"802 684 CURVE",
"802 162 LINE",
"451 162 LINE SMOOTH"
);
},
{
closed = 1;
nodes = (
"986 684 LINE",
"1366 684 LINE",
"1366 262 LINE SMOOTH",
"1366 181 OFFCURVE",
"1345 162 OFFCURVE",
"1266 162 CURVE SMOOTH",
"986 162 LINE"
);
},
{
closed = 1;
nodes = (
"518 846 OFFCURVE",
"344 957 OFFCURVE",
"344 1145 CURVE SMOOTH",
"344 1191 OFFCURVE",
"347 1224 OFFCURVE",
"354 1243 CURVE SMOOTH",
"367 1281 OFFCURVE",
"396 1300 OFFCURVE",
"451 1300 CURVE SMOOTH",
"802 1300 LINE",
"802 846 LINE"
);
},
{
closed = 1;
nodes = (
"986 1300 LINE",
"1266 1300 LINE SMOOTH",
"1347 1300 OFFCURVE",
"1366 1279 OFFCURVE",
"1366 1200 CURVE SMOOTH",
"1366 846 LINE",
"986 846 LINE"
);
}
);
width = 1750;
}
);
note = uni2C16;
unicode = 2C16;
},
{
glyphname = uni2C17;
lastChange = "2016-11-10 13:58:43 +0000";
layers = (
{
layerId = "7ECAB14D-022C-4526-8131-D22A8657820C";
paths = (
{
closed = 1;
nodes = (
"906 -220 LINE",
"906 -15 LINE",
"1278 22 OFFCURVE",
"1490 300 OFFCURVE",
"1490 733 CURVE SMOOTH",
"1490 1169 OFFCURVE",
"1275 1444 OFFCURVE",
"906 1480 CURVE",
"906 1662 LINE",
"722 1662 LINE",
"722 1480 LINE",
"347 1441 OFFCURVE",
"140 1176 OFFCURVE",
"140 735 CURVE SMOOTH",
"140 290 OFFCURVE",
"349 24 OFFCURVE",
"722 -15 CURVE",
"722 -220 LINE"
);
},
{
closed = 1;
nodes = (
"465 180 OFFCURVE",
"326 389 OFFCURVE",
"326 733 CURVE SMOOTH",
"326 1074 OFFCURVE",
"465 1282 OFFCURVE",
"722 1321 CURVE",
"722 141 LINE"
);
},
{
closed = 1;
nodes = (
"906 1322 LINE",
"1165 1286 OFFCURVE",
"1304 1084 OFFCURVE",
"1304 733 CURVE SMOOTH",
"1304 385 OFFCURVE",
"1166 179 OFFCURVE",
"906 140 CURVE"
);
}
);
width = 1630;
}
);
note = uni2C17;
unicode = 2C17;
},
{
glyphname = uni2C18;
lastChange = "2016-11-10 13:58:43 +0000";
layers = (
{
layerId = "7ECAB14D-022C-4526-8131-D22A8657820C";
paths = (
{
closed = 1;
nodes = (
"336 0 LINE",
"547 567 LINE",
"570 566 LINE",
"785 566 LINE",
"785 200 LINE SMOOTH",
"785 143 OFFCURVE",
"791 102 OFFCURVE",
"802 75 CURVE SMOOTH",
"825 21 OFFCURVE",
"870 0 OFFCURVE",
"985 0 CURVE SMOOTH",
"1591 0 LINE",
"1591 646 LINE SMOOTH",
"1591 805 OFFCURVE",
"1550 846 OFFCURVE",
"1391 846 CURVE SMOOTH",
"985 846 LINE SMOOTH",
"856 846 OFFCURVE",
"806 819 OFFCURVE",
"790 728 CURVE",
"607 728 LINE",
"880 1462 LINE",
"100 1462 LINE",
"100 1300 LINE",
"643 1300 LINE",
"159 0 LINE"
);
},
{
closed = 1;
nodes = (
"988 162 OFFCURVE",
"969 183 OFFCURVE",
"969 262 CURVE SMOOTH",
"969 584 LINE SMOOTH",
"969 665 OFFCURVE",
"990 684 OFFCURVE",
"1069 684 CURVE SMOOTH",
"1307 684 LINE SMOOTH",
"1388 684 OFFCURVE",
"1407 663 OFFCURVE",
"1407 584 CURVE SMOOTH",
"1407 162 LINE",
"1069 162 LINE SMOOTH"
);
}
);
width = 1751;
}
);
note = uni2C18;
unicode = 2C18;
},
{
glyphname = uni2C19;
lastChange = "2016-11-10 13:58:43 +0000";
layers = (
{
layerId = "7ECAB14D-022C-4526-8131-D22A8657820C";
paths = (
{
closed = 1;
nodes = (
"1241 -20 OFFCURVE",
"1490 265 OFFCURVE",
"1490 733 CURVE SMOOTH",
"1490 1204 OFFCURVE",
"1242 1485 OFFCURVE",
"818 1485 CURVE SMOOTH",
"382 1485 OFFCURVE",
"140 1211 OFFCURVE",
"140 735 CURVE SMOOTH",
"140 255 OFFCURVE",
"385 -20 OFFCURVE",
"816 -20 CURVE SMOOTH"
);
},
{
closed = 1;
nodes = (
"762 124 OFFCURVE",
"717 169 OFFCURVE",
"717 225 CURVE SMOOTH",
"717 281 OFFCURVE",
"762 326 OFFCURVE",
"818 326 CURVE SMOOTH",
"874 326 OFFCURVE",
"919 281 OFFCURVE",
"919 225 CURVE SMOOTH",
"919 169 OFFCURVE",
"874 124 OFFCURVE",
"818 124 CURVE SMOOTH"
);
},
{
closed = 1;
nodes = (
"425 245 OFFCURVE",
"329 445 OFFCURVE",
"329 733 CURVE SMOOTH",
"329 1024 OFFCURVE",
"426 1222 OFFCURVE",
"599 1297 CURVE",
"594 1277 OFFCURVE",
"591 1257 OFFCURVE",
"591 1237 CURVE SMOOTH",
"591 1112 OFFCURVE",
"691 1011 OFFCURVE",
"818 1011 CURVE SMOOTH",
"943 1011 OFFCURVE",
"1044 1112 OFFCURVE",
"1044 1237 CURVE SMOOTH",
"1044 1256 OFFCURVE",
"1041 1276 OFFCURVE",
"1036 1296 CURVE",
"1207 1217 OFFCURVE",
"1300 1020 OFFCURVE",
"1300 733 CURVE SMOOTH",
"1300 444 OFFCURVE",
"1206 246 OFFCURVE",
"1037 167 CURVE",
"1042 189 OFFCURVE",
"1044 208 OFFCURVE",
"1044 224 CURVE SMOOTH",
"1044 353 OFFCURVE",
"939 451 OFFCURVE",
"818 451 CURVE SMOOTH",
"695 451 OFFCURVE",
"591 353 OFFCURVE",
"591 224 CURVE SMOOTH",
"591 203 OFFCURVE",
"593 183 OFFCURVE",
"598 165 CURVE"
);
},
{
closed = 1;
nodes = (
"762 1137 OFFCURVE",
"717 1182 OFFCURVE",
"717 1238 CURVE SMOOTH",
"717 1294 OFFCURVE",
"759 1339 OFFCURVE",
"814 1339 CURVE SMOOTH",
"878 1339 OFFCURVE",
"919 1293 OFFCURVE",
"919 1238 CURVE SMOOTH",
"919 1182 OFFCURVE",
"874 1137 OFFCURVE",
"818 1137 CURVE SMOOTH"
);
}
);
width = 1630;
}
);
note = uni2C19;
unicode = 2C19;
},
{
glyphname = uni2C1A;
lastChange = "2016-11-10 13:58:43 +0000";
layers = (
{
layerId = "7ECAB14D-022C-4526-8131-D22A8657820C";
paths = (
{
closed = 1;
nodes = (
"766 0 LINE SMOOTH",
"927 0 OFFCURVE",
"966 41 OFFCURVE",
"966 200 CURVE SMOOTH",
"966 1200 LINE SMOOTH",
"966 1281 OFFCURVE",
"987 1300 OFFCURVE",
"1066 1300 CURVE SMOOTH",
"1287 1300 LINE SMOOTH",
"1368 1300 OFFCURVE",
"1387 1279 OFFCURVE",
"1387 1200 CURVE SMOOTH",
"1387 0 LINE",
"1571 0 LINE",
"1571 1262 LINE SMOOTH",
"1571 1421 OFFCURVE",
"1530 1462 OFFCURVE",
"1371 1462 CURVE SMOOTH",
"982 1462 LINE SMOOTH",
"926 1462 OFFCURVE",
"884 1456 OFFCURVE",
"857 1445 CURVE SMOOTH",
"802 1422 OFFCURVE",
"782 1377 OFFCURVE",
"782 1262 CURVE SMOOTH",
"782 846 LINE",
"360 846 LINE SMOOTH",
"304 846 OFFCURVE",
"262 840 OFFCURVE",
"235 829 CURVE SMOOTH",
"180 806 OFFCURVE",
"160 761 OFFCURVE",
"160 646 CURVE SMOOTH",
"160 200 LINE SMOOTH",
"160 143 OFFCURVE",
"166 102 OFFCURVE",
"177 75 CURVE SMOOTH",
"200 21 OFFCURVE",
"245 0 OFFCURVE",
"360 0 CURVE SMOOTH"
);
},
{
closed = 1;
nodes = (
"363 162 OFFCURVE",
"344 183 OFFCURVE",
"344 262 CURVE SMOOTH",
"344 584 LINE SMOOTH",
"344 665 OFFCURVE",
"365 684 OFFCURVE",
"444 684 CURVE SMOOTH",
"782 684 LINE",
"782 262 LINE SMOOTH",
"782 181 OFFCURVE",
"761 162 OFFCURVE",
"682 162 CURVE SMOOTH",
"444 162 LINE SMOOTH"
);
}
);
width = 1771;
}
);
note = uni2C1A;
unicode = 2C1A;
},
{
glyphname = uni2C1B;
lastChange = "2016-11-10 13:58:43 +0000";
layers = (
{
layerId = "7ECAB14D-022C-4526-8131-D22A8657820C";
paths = (
{
closed = 1;
nodes = (
"1212 0 LINE",
"1212 395 LINE SMOOTH",
"1212 515 OFFCURVE",
"1192 611 OFFCURVE",
"1152 684 CURVE",
"1315 684 LINE SMOOTH",
"1476 684 OFFCURVE",
"1515 725 OFFCURVE",
"1515 884 CURVE SMOOTH",
"1515 1462 LINE",
"1331 1462 LINE",
"1331 946 LINE SMOOTH",
"1331 865 OFFCURVE",
"1310 846 OFFCURVE",
"1231 846 CURVE SMOOTH",
"930 846 LINE",
"930 1462 LINE",
"745 1462 LINE",
"745 846 LINE",
"444 846 LINE SMOOTH",
"363 846 OFFCURVE",
"344 867 OFFCURVE",
"344 946 CURVE SMOOTH",
"344 1462 LINE",
"160 1462 LINE",
"160 884 LINE SMOOTH",
"160 827 OFFCURVE",
"166 786 OFFCURVE",
"177 759 CURVE SMOOTH",
"200 705 OFFCURVE",
"245 684 OFFCURVE",
"360 684 CURVE SMOOTH",
"522 684 LINE",
"483 615 OFFCURVE",
"464 518 OFFCURVE",
"464 395 CURVE SMOOTH",
"464 0 LINE"
);
},
{
closed = 1;
nodes = (
"648 395 LINE SMOOTH",
"648 482 OFFCURVE",
"654 543 OFFCURVE",
"666 579 CURVE SMOOTH",
"690 651 OFFCURVE",
"739 682 OFFCURVE",
"838 682 CURVE SMOOTH",
"937 682 OFFCURVE",
"987 651 OFFCURVE",
"1011 577 CURVE SMOOTH",
"1022 540 OFFCURVE",
"1028 479 OFFCURVE",
"1028 395 CURVE SMOOTH",
"1028 162 LINE",
"648 162 LINE"
);
}
);
width = 1675;
}
);
note = uni2C1B;
unicode = 2C1B;
},
{
glyphname = uni2C1C;
lastChange = "2016-11-10 13:58:43 +0000";
layers = (
{
layerId = "7ECAB14D-022C-4526-8131-D22A8657820C";
paths = (
{
closed = 1;
nodes = (
"1310 0 LINE SMOOTH",
"1343 0 OFFCURVE",
"1369 13 OFFCURVE",
"1388 40 CURVE SMOOTH",
"1406 66 OFFCURVE",
"1421 119 OFFCURVE",
"1433 200 CURVE SMOOTH",
"1620 1462 LINE",
"1440 1462 LINE",
"1253 262 LINE SMOOTH",
"1240 173 OFFCURVE",
"1224 162 OFFCURVE",
"1167 162 CURVE SMOOTH",
"1111 162 OFFCURVE",
"1094 174 OFFCURVE",
"1082 262 CURVE SMOOTH",
"929 1262 LINE SMOOTH",
"916 1346 OFFCURVE",
"908 1396 OFFCURVE",
"883 1425 CURVE SMOOTH",
"858 1454 OFFCURVE",
"814 1462 OFFCURVE",
"729 1462 CURVE SMOOTH",
"367 1462 LINE SMOOTH",
"218 1462 OFFCURVE",
"140 1382 OFFCURVE",
"140 1177 CURVE SMOOTH",
"140 1078 OFFCURVE",
"167 992 OFFCURVE",
"221 917 CURVE SMOOTH",
"328 767 OFFCURVE",
"534 684 OFFCURVE",
"789 684 CURVE SMOOTH",
"832 684 LINE",
"902 200 LINE SMOOTH",
"911 141 OFFCURVE",
"920 100 OFFCURVE",
"929 75 CURVE SMOOTH",
"948 25 OFFCURVE",
"977 0 OFFCURVE",
"1025 0 CURVE SMOOTH"
);
},
{
closed = 1;
nodes = (
"494 846 OFFCURVE",
"324 956 OFFCURVE",
"324 1145 CURVE SMOOTH",
"324 1191 OFFCURVE",
"327 1224 OFFCURVE",
"334 1243 CURVE SMOOTH",
"347 1281 OFFCURVE",
"376 1300 OFFCURVE",
"431 1300 CURVE SMOOTH",
"677 1300 LINE SMOOTH",
"718 1300 OFFCURVE",
"741 1284 OFFCURVE",
"752 1212 CURVE SMOOTH",
"808 846 LINE",
"759 846 LINE SMOOTH"
);
}
);
width = 1720;
}
);
note = uni2C1C;
unicode = 2C1C;
},
{
glyphname = uni2C1D;
lastChange = "2016-11-10 13:58:43 +0000";
layers = (
{
layerId = "7ECAB14D-022C-4526-8131-D22A8657820C";
paths = (
{
closed = 1;
nodes = (
"1305 0 LINE",
"1305 346 LINE SMOOTH",
"1305 496 OFFCURVE",
"1274 609 OFFCURVE",
"1212 684 CURVE",
"1761 684 LINE",
"1454 1462 LINE",
"1270 1462 LINE",
"1360 1234 LINE",
"501 1234 LINE",
"591 1462 LINE",
"407 1462 LINE",
"100 684 LINE",
"648 684 LINE",
"587 610 OFFCURVE",
"557 497 OFFCURVE",
"557 346 CURVE SMOOTH",
"557 0 LINE"
);
},
{
closed = 1;
nodes = (
"741 346 LINE SMOOTH",
"741 432 OFFCURVE",
"747 493 OFFCURVE",
"759 530 CURVE SMOOTH",
"782 602 OFFCURVE",
"832 635 OFFCURVE",
"931 635 CURVE SMOOTH",
"1027 635 OFFCURVE",
"1080 604 OFFCURVE",
"1104 529 CURVE SMOOTH",
"1115 491 OFFCURVE",
"1121 430 OFFCURVE",
"1121 346 CURVE SMOOTH",
"1121 162 LINE",
"741 162 LINE"
);
},
{
closed = 1;
nodes = (
"437 1072 LINE",
"838 1072 LINE",
"838 846 LINE",
"348 846 LINE"
);
},
{
closed = 1;
nodes = (
"1023 1072 LINE",
"1424 1072 LINE",
"1513 846 LINE",
"1023 846 LINE"
);
}
);
width = 1861;
}
);
note = uni2C1D;
unicode = 2C1D;
},
{
glyphname = uni2C1E;
lastChange = "2016-11-10 13:58:43 +0000";
layers = (
{
layerId = "7ECAB14D-022C-4526-8131-D22A8657820C";
paths = (
{
closed = 1;
nodes = (
"1355 0 LINE SMOOTH",
"1516 0 OFFCURVE",
"1555 41 OFFCURVE",
"1555 200 CURVE SMOOTH",
"1555 1462 LINE",
"1371 1462 LINE",
"1371 262 LINE SMOOTH",
"1371 181 OFFCURVE",
"1350 162 OFFCURVE",
"1271 162 CURVE SMOOTH",
"969 162 LINE",
"969 1462 LINE",
"785 1462 LINE",
"785 162 LINE",
"484 162 LINE SMOOTH",
"403 162 OFFCURVE",
"384 183 OFFCURVE",
"384 262 CURVE SMOOTH",
"384 1462 LINE",
"200 1462 LINE",
"200 200 LINE SMOOTH",
"200 143 OFFCURVE",
"206 102 OFFCURVE",
"217 75 CURVE SMOOTH",
"240 21 OFFCURVE",
"285 0 OFFCURVE",
"400 0 CURVE SMOOTH"
);
}
);
width = 1755;
}
);
note = uni2C1E;
unicode = 2C1E;
},
{
glyphname = uni2C1F;
lastChange = "2016-11-10 13:58:43 +0000";
layers = (
{
layerId = "7ECAB14D-022C-4526-8131-D22A8657820C";
paths = (
{
closed = 1;
nodes = (
"1360 0 LINE",
"1360 364 LINE SMOOTH",
"1360 543 OFFCURVE",
"1318 670 OFFCURVE",
"1234 745 CURVE",
"1318 818 OFFCURVE",
"1360 942 OFFCURVE",
"1360 1118 CURVE SMOOTH",
"1360 1462 LINE",
"612 1462 LINE",
"612 1118 LINE SMOOTH",
"612 1004 OFFCURVE",
"628 913 OFFCURVE",
"661 846 CURVE",
"313 846 LINE",
"291 847 LINE",
"163 847 OFFCURVE",
"60 744 OFFCURVE",
"60 616 CURVE SMOOTH",
"60 488 OFFCURVE",
"163 385 OFFCURVE",
"291 385 CURVE SMOOTH",
"419 385 OFFCURVE",
"522 488 OFFCURVE",
"522 616 CURVE SMOOTH",
"522 639 OFFCURVE",
"519 661 OFFCURVE",
"512 684 CURVE",
"685 684 LINE",
"636 609 OFFCURVE",
"612 502 OFFCURVE",
"612 364 CURVE SMOOTH",
"612 0 LINE"
);
},
{
closed = 1;
nodes = (
"235 515 OFFCURVE",
"190 560 OFFCURVE",
"190 616 CURVE SMOOTH",
"190 672 OFFCURVE",
"232 717 OFFCURVE",
"287 717 CURVE SMOOTH",
"351 717 OFFCURVE",
"392 671 OFFCURVE",
"392 616 CURVE SMOOTH",
"392 560 OFFCURVE",
"347 515 OFFCURVE",
"291 515 CURVE SMOOTH"
);
},
{
closed = 1;
nodes = (
"796 364 LINE SMOOTH",
"796 452 OFFCURVE",
"802 515 OFFCURVE",
"815 554 CURVE SMOOTH",
"839 631 OFFCURVE",
"889 667 OFFCURVE",
"986 667 CURVE SMOOTH",
"1082 667 OFFCURVE",
"1134 632 OFFCURVE",
"1158 553 CURVE SMOOTH",
"1170 513 OFFCURVE",
"1176 450 OFFCURVE",
"1176 364 CURVE SMOOTH",
"1176 162 LINE",
"796 162 LINE"
);
},
{
closed = 1;
nodes = (
"887 829 OFFCURVE",
"837 862 OFFCURVE",
"814 935 CURVE SMOOTH",
"802 972 OFFCURVE",
"796 1033 OFFCURVE",
"796 1118 CURVE SMOOTH",
"796 1300 LINE",
"1176 1300 LINE",
"1176 1118 LINE SMOOTH",
"1176 1037 OFFCURVE",
"1170 977 OFFCURVE",
"1159 939 CURVE SMOOTH",
"1136 862 OFFCURVE",
"1085 829 OFFCURVE",
"986 829 CURVE SMOOTH"
);
}
);
width = 1520;
}
);
note = uni2C1F;
unicode = 2C1F;
},
{
glyphname = uni2C20;
lastChange = "2016-11-10 13:58:43 +0000";
layers = (
{
layerId = "7ECAB14D-022C-4526-8131-D22A8657820C";
paths = (
{
closed = 1;
nodes = (
"1272 0 LINE",
"1272 364 LINE SMOOTH",
"1272 543 OFFCURVE",
"1230 670 OFFCURVE",
"1146 745 CURVE",
"1230 818 OFFCURVE",
"1272 942 OFFCURVE",
"1272 1118 CURVE SMOOTH",
"1272 1462 LINE",
"524 1462 LINE",
"524 1118 LINE SMOOTH",
"524 1004 OFFCURVE",
"540 913 OFFCURVE",
"573 846 CURVE",
"260 846 LINE",
"242 847 LINE",
"139 847 OFFCURVE",
"60 753 OFFCURVE",
"60 640 CURVE SMOOTH",
"60 528 OFFCURVE",
"139 434 OFFCURVE",
"242 434 CURVE SMOOTH",
"342 434 OFFCURVE",
"424 524 OFFCURVE",
"424 640 CURVE",
"420 684 LINE",
"597 684 LINE",
"548 609 OFFCURVE",
"524 502 OFFCURVE",
"524 364 CURVE SMOOTH",
"524 0 LINE"
);
},
{
closed = 1;
nodes = (
"708 364 LINE SMOOTH",
"708 452 OFFCURVE",
"714 515 OFFCURVE",
"727 554 CURVE SMOOTH",
"751 631 OFFCURVE",
"801 667 OFFCURVE",
"898 667 CURVE SMOOTH",
"994 667 OFFCURVE",
"1046 632 OFFCURVE",
"1070 553 CURVE SMOOTH",
"1082 513 OFFCURVE",
"1088 450 OFFCURVE",
"1088 364 CURVE SMOOTH",
"1088 162 LINE",
"708 162 LINE"
);
},
{
closed = 1;
nodes = (
"799 829 OFFCURVE",
"749 862 OFFCURVE",
"726 935 CURVE SMOOTH",
"714 972 OFFCURVE",
"708 1033 OFFCURVE",
"708 1118 CURVE SMOOTH",
"708 1300 LINE",
"1088 1300 LINE",
"1088 1118 LINE SMOOTH",
"1088 1037 OFFCURVE",
"1082 977 OFFCURVE",
"1071 939 CURVE SMOOTH",
"1048 862 OFFCURVE",
"997 829 OFFCURVE",
"898 829 CURVE SMOOTH"
);
}
);
width = 1432;
}
);
note = uni2C20;
unicode = 2C20;
},
{
glyphname = uni2C21;
lastChange = "2016-11-10 13:58:43 +0000";
layers = (
{
layerId = "7ECAB14D-022C-4526-8131-D22A8657820C";
paths = (
{
closed = 1;
nodes = (
"1816 0 LINE",
"1192 1342 LINE SMOOTH",
"1157 1417 OFFCURVE",
"1126 1462 OFFCURVE",
"1055 1462 CURVE SMOOTH",
"861 1462 LINE SMOOTH",
"790 1462 OFFCURVE",
"759 1417 OFFCURVE",
"724 1342 CURVE SMOOTH",
"100 0 LINE"
);
},
{
closed = 1;
nodes = (
"570 618 LINE",
"871 618 LINE",
"871 162 LINE",
"358 162 LINE"
);
},
{
closed = 1;
nodes = (
"1056 618 LINE",
"1346 618 LINE",
"1558 162 LINE",
"1056 162 LINE"
);
},
{
closed = 1;
nodes = (
"854 1230 LINE SMOOTH",
"879 1285 OFFCURVE",
"901 1300 OFFCURVE",
"934 1300 CURVE SMOOTH",
"982 1300 LINE SMOOTH",
"1017 1300 OFFCURVE",
"1037 1283 OFFCURVE",
"1062 1230 CURVE SMOOTH",
"1271 780 LINE",
"645 780 LINE"
);
}
);
width = 1916;
}
);
note = uni2C21;
unicode = 2C21;
},
{
glyphname = uni2C22;
lastChange = "2016-11-10 13:58:43 +0000";
layers = (
{
layerId = "7ECAB14D-022C-4526-8131-D22A8657820C";
paths = (
{
closed = 1;
nodes = (
"1095 -70 LINE",
"1095 112 LINE",
"1153 140 OFFCURVE",
"1205 176 OFFCURVE",
"1251 219 CURVE",
"1251 -70 LINE",
"1405 -70 LINE",
"1405 455 LINE",
"1437 540 OFFCURVE",
"1453 632 OFFCURVE",
"1453 729 CURVE SMOOTH",
"1453 863 OFFCURVE",
"1427 982 OFFCURVE",
"1375 1085 CURVE SMOOTH",
"1271 1291 OFFCURVE",
"1067 1407 OFFCURVE",
"799 1407 CURVE SMOOTH",
"760 1407 OFFCURVE",
"724 1404 OFFCURVE",
"689 1399 CURVE",
"689 1527 LINE",
"535 1527 LINE",
"535 1362 LINE",
"476 1340 OFFCURVE",
"424 1311 OFFCURVE",
"379 1275 CURVE",
"379 1527 LINE",
"225 1527 LINE",
"225 1091 LINE",
"168 986 OFFCURVE",
"140 866 OFFCURVE",
"140 731 CURVE SMOOTH",
"140 592 OFFCURVE",
"166 472 OFFCURVE",
"217 370 CURVE SMOOTH",
"319 165 OFFCURVE",
"521 50 OFFCURVE",
"797 50 CURVE SMOOTH",
"844 50 OFFCURVE",
"892 54 OFFCURVE",
"941 63 CURVE",
"941 -70 LINE"
);
},
{
closed = 1;
nodes = (
"498 209 OFFCURVE",
"334 393 OFFCURVE",
"334 729 CURVE SMOOTH",
"334 1062 OFFCURVE",
"498 1245 OFFCURVE",
"799 1245 CURVE SMOOTH",
"1098 1245 OFFCURVE",
"1258 1066 OFFCURVE",
"1258 729 CURVE SMOOTH",
"1258 389 OFFCURVE",
"1094 209 OFFCURVE",
"797 209 CURVE SMOOTH"
);
}
);
width = 1593;
}
);
note = uni2C22;
unicode = 2C22;
},
{
glyphname = uni2C23;
lastChange = "2016-11-10 13:58:43 +0000";
layers = (
{
layerId = "7ECAB14D-022C-4526-8131-D22A8657820C";
paths = (
{
closed = 1;
nodes = (
"1476 255 LINE SMOOTH",
"1505 264 OFFCURVE",
"1525 283 OFFCURVE",
"1537 312 CURVE SMOOTH",
"1549 341 OFFCURVE",
"1555 396 OFFCURVE",
"1555 477 CURVE SMOOTH",
"1555 1262 LINE SMOOTH",
"1555 1421 OFFCURVE",
"1514 1462 OFFCURVE",
"1355 1462 CURVE SMOOTH",
"400 1462 LINE SMOOTH",
"344 1462 OFFCURVE",
"302 1456 OFFCURVE",
"275 1445 CURVE SMOOTH",
"220 1422 OFFCURVE",
"200 1377 OFFCURVE",
"200 1262 CURVE SMOOTH",
"200 -167 LINE"
);
},
{
closed = 1;
nodes = (
"384 1200 LINE SMOOTH",
"384 1281 OFFCURVE",
"405 1300 OFFCURVE",
"484 1300 CURVE SMOOTH",
"785 1300 LINE",
"785 200 LINE",
"384 67 LINE"
);
},
{
closed = 1;
nodes = (
"969 1300 LINE",
"1271 1300 LINE SMOOTH",
"1352 1300 OFFCURVE",
"1371 1279 OFFCURVE",
"1371 1200 CURVE SMOOTH",
"1371 470 LINE SMOOTH",
"1371 421 OFFCURVE",
"1349 388 OFFCURVE",
"1305 373 CURVE SMOOTH",
"969 262 LINE"
);
}
);
width = 1755;
}
);
note = uni2C23;
unicode = 2C23;
},
{
glyphname = uni2C24;
lastChange = "2016-11-10 13:58:43 +0000";
layers = (
{
layerId = "7ECAB14D-022C-4526-8131-D22A8657820C";
paths = (
{
closed = 1;
nodes = (
"1142 -20 OFFCURVE",
"1243 -8 OFFCURVE",
"1376 39 CURVE",
"1376 199 LINE",
"1261 168 OFFCURVE",
"1148 141 OFFCURVE",
"1016 141 CURVE SMOOTH",
"664 141 OFFCURVE",
"484 333 OFFCURVE",
"475 684 CURVE",
"1186 684 LINE",
"1186 846 LINE",
"477 846 LINE",
"504 1142 OFFCURVE",
"688 1321 OFFCURVE",
"975 1321 CURVE SMOOTH",
"1086 1321 OFFCURVE",
"1199 1295 OFFCURVE",
"1313 1243 CURVE",
"1389 1397 LINE",
"1273 1454 OFFCURVE",
"1134 1483 OFFCURVE",
"973 1483 CURVE SMOOTH",
"569 1483 OFFCURVE",
"317 1247 OFFCURVE",
"285 846 CURVE",
"40 846 LINE",
"40 684 LINE",
"282 684 LINE",
"307 224 OFFCURVE",
"559 -20 OFFCURVE",
"987 -20 CURVE SMOOTH"
);
}
);
width = 1489;
}
);
note = uni2C24;
unicode = 2C24;
},
{
glyphname = uni2C25;
lastChange = "2016-11-10 13:58:43 +0000";
layers = (
{
layerId = "7ECAB14D-022C-4526-8131-D22A8657820C";
paths = (
{
closed = 1;
nodes = (
"1393 -20 OFFCURVE",
"1494 -8 OFFCURVE",
"1627 39 CURVE",
"1627 199 LINE",
"1512 168 OFFCURVE",
"1399 141 OFFCURVE",
"1267 141 CURVE SMOOTH",
"915 141 OFFCURVE",
"735 333 OFFCURVE",
"726 684 CURVE",
"1437 684 LINE",
"1437 846 LINE",
"728 846 LINE",
"755 1142 OFFCURVE",
"939 1321 OFFCURVE",
"1226 1321 CURVE SMOOTH",
"1337 1321 OFFCURVE",
"1450 1295 OFFCURVE",
"1564 1243 CURVE",
"1640 1397 LINE",
"1524 1454 OFFCURVE",
"1385 1483 OFFCURVE",
"1224 1483 CURVE SMOOTH",
"820 1483 OFFCURVE",
"568 1247 OFFCURVE",
"536 846 CURVE",
"260 846 LINE",
"242 847 LINE",
"139 847 OFFCURVE",
"60 753 OFFCURVE",
"60 640 CURVE SMOOTH",
"60 528 OFFCURVE",
"139 434 OFFCURVE",
"242 434 CURVE SMOOTH",
"342 434 OFFCURVE",
"424 524 OFFCURVE",
"424 640 CURVE",
"420 684 LINE",
"533 684 LINE",
"558 224 OFFCURVE",
"810 -20 OFFCURVE",
"1238 -20 CURVE SMOOTH"
);
}
);
width = 1740;
}
);
note = uni2C25;
unicode = 2C25;
},
{
glyphname = uni2C26;
lastChange = "2016-11-10 13:58:43 +0000";
layers = (
{
layerId = "7ECAB14D-022C-4526-8131-D22A8657820C";
paths = (
{
closed = 1;
nodes = (
"1255 0 LINE",
"1255 346 LINE SMOOTH",
"1255 496 OFFCURVE",
"1224 609 OFFCURVE",
"1162 684 CURVE",
"1661 684 LINE",
"1254 1462 LINE",
"507 1462 LINE",
"100 684 LINE",
"598 684 LINE",
"537 610 OFFCURVE",
"507 497 OFFCURVE",
"507 346 CURVE SMOOTH",
"507 0 LINE"
);
},
{
closed = 1;
nodes = (
"691 346 LINE SMOOTH",
"691 432 OFFCURVE",
"697 493 OFFCURVE",
"709 530 CURVE SMOOTH",
"732 602 OFFCURVE",
"782 635 OFFCURVE",
"881 635 CURVE SMOOTH",
"977 635 OFFCURVE",
"1030 604 OFFCURVE",
"1054 529 CURVE SMOOTH",
"1065 491 OFFCURVE",
"1071 430 OFFCURVE",
"1071 346 CURVE SMOOTH",
"1071 162 LINE",
"691 162 LINE"
);
},
{
closed = 1;
nodes = (
"604 1300 LINE",
"788 1300 LINE",
"788 846 LINE",
"363 846 LINE"
);
},
{
closed = 1;
nodes = (
"973 1300 LINE",
"1156 1300 LINE",
"1398 846 LINE",
"973 846 LINE"
);
}
);
width = 1761;
}
);
note = uni2C26;
unicode = 2C26;
},
{
glyphname = uni2C27;
lastChange = "2016-11-10 13:58:43 +0000";
layers = (
{
layerId = "7ECAB14D-022C-4526-8131-D22A8657820C";
paths = (
{
closed = 1;
nodes = (
"736 -20 OFFCURVE",
"920 213 OFFCURVE",
"939 684 CURVE",
"1170 684 LINE",
"1189 212 OFFCURVE",
"1373 -20 OFFCURVE",
"1705 -20 CURVE SMOOTH",
"1808 -20 OFFCURVE",
"1907 -5 OFFCURVE",
"2004 26 CURVE",
"2004 190 LINE",
"1896 157 OFFCURVE",
"1806 141 OFFCURVE",
"1734 141 CURVE SMOOTH",
"1491 141 OFFCURVE",
"1363 333 OFFCURVE",
"1363 684 CURVE",
"1824 684 LINE",
"1824 846 LINE",
"1365 846 LINE",
"1373 1138 OFFCURVE",
"1500 1321 OFFCURVE",
"1689 1321 CURVE SMOOTH",
"1788 1321 OFFCURVE",
"1871 1297 OFFCURVE",
"1940 1250 CURVE",
"2010 1400 LINE",
"1910 1460 OFFCURVE",
"1822 1483 OFFCURVE",
"1687 1483 CURVE SMOOTH",
"1378 1483 OFFCURVE",
"1194 1254 OFFCURVE",
"1171 846 CURVE",
"938 846 LINE",
"911 1262 OFFCURVE",
"730 1483 OFFCURVE",
"423 1483 CURVE SMOOTH",
"288 1483 OFFCURVE",
"197 1459 OFFCURVE",
"100 1400 CURVE",
"170 1250 LINE",
"239 1297 OFFCURVE",
"322 1321 OFFCURVE",
"421 1321 CURVE SMOOTH",
"609 1321 OFFCURVE",
"737 1139 OFFCURVE",
"745 846 CURVE",
"286 846 LINE",
"286 684 LINE",
"747 684 LINE",
"747 333 OFFCURVE",
"619 141 OFFCURVE",
"376 141 CURVE SMOOTH",
"304 141 OFFCURVE",
"214 157 OFFCURVE",
"106 190 CURVE",
"106 26 LINE",
"203 -5 OFFCURVE",
"302 -20 OFFCURVE",
"405 -20 CURVE SMOOTH"
);
}
);
width = 2110;
}
);
note = uni2C27;
unicode = 2C27;
},
{
glyphname = uni2C28;
lastChange = "2016-11-10 13:58:43 +0000";
layers = (
{
layerId = "7ECAB14D-022C-4526-8131-D22A8657820C";
paths = (
{
closed = 1;
nodes = (
"1828 -20 OFFCURVE",
"1927 -5 OFFCURVE",
"2024 26 CURVE",
"2024 190 LINE",
"1916 157 OFFCURVE",
"1826 141 OFFCURVE",
"1754 141 CURVE SMOOTH",
"1511 141 OFFCURVE",
"1383 333 OFFCURVE",
"1383 684 CURVE",
"1844 684 LINE",
"1844 846 LINE",
"1385 846 LINE",
"1393 1138 OFFCURVE",
"1520 1321 OFFCURVE",
"1709 1321 CURVE SMOOTH",
"1808 1321 OFFCURVE",
"1891 1297 OFFCURVE",
"1960 1250 CURVE",
"2030 1400 LINE",
"1930 1460 OFFCURVE",
"1842 1483 OFFCURVE",
"1707 1483 CURVE SMOOTH",
"1398 1483 OFFCURVE",
"1214 1254 OFFCURVE",
"1191 846 CURVE",
"986 846 LINE",
"986 1262 LINE SMOOTH",
"986 1323 OFFCURVE",
"981 1367 OFFCURVE",
"971 1393 CURVE SMOOTH",
"950 1444 OFFCURVE",
"909 1462 OFFCURVE",
"786 1462 CURVE SMOOTH",
"387 1462 LINE SMOOTH",
"238 1462 OFFCURVE",
"160 1382 OFFCURVE",
"160 1177 CURVE SMOOTH",
"160 986 OFFCURVE",
"259 839 OFFCURVE",
"446 754 CURVE",
"265 651 OFFCURVE",
"160 481 OFFCURVE",
"160 285 CURVE SMOOTH",
"160 80 OFFCURVE",
"236 0 OFFCURVE",
"387 0 CURVE SMOOTH",
"786 0 LINE SMOOTH",
"847 0 OFFCURVE",
"891 5 OFFCURVE",
"917 16 CURVE SMOOTH",
"968 36 OFFCURVE",
"986 77 OFFCURVE",
"986 200 CURVE SMOOTH",
"986 684 LINE",
"1190 684 LINE",
"1209 212 OFFCURVE",
"1393 -20 OFFCURVE",
"1725 -20 CURVE SMOOTH"
);
},
{
closed = 1;
nodes = (
"398 162 OFFCURVE",
"369 181 OFFCURVE",
"355 219 CURVE SMOOTH",
"348 238 OFFCURVE",
"344 270 OFFCURVE",
"344 317 CURVE SMOOTH",
"344 380 OFFCURVE",
"364 440 OFFCURVE",
"405 497 CURVE SMOOTH",
"485 610 OFFCURVE",
"635 683 OFFCURVE",
"802 684 CURVE",
"802 247 LINE SMOOTH",
"802 190 OFFCURVE",
"777 162 OFFCURVE",
"727 162 CURVE SMOOTH",
"451 162 LINE SMOOTH"
);
},
{
closed = 1;
nodes = (
"529 846 OFFCURVE",
"344 962 OFFCURVE",
"344 1145 CURVE SMOOTH",
"344 1191 OFFCURVE",
"347 1224 OFFCURVE",
"354 1243 CURVE SMOOTH",
"367 1281 OFFCURVE",
"396 1300 OFFCURVE",
"451 1300 CURVE SMOOTH",
"727 1300 LINE SMOOTH",
"777 1300 OFFCURVE",
"802 1271 OFFCURVE",
"802 1212 CURVE SMOOTH",
"802 846 LINE"
);
}
);
width = 2130;
}
);
note = uni2C28;
unicode = 2C28;
},
{
glyphname = uni2C29;
lastChange = "2016-11-10 13:58:43 +0000";
layers = (
{
layerId = "7ECAB14D-022C-4526-8131-D22A8657820C";
paths = (
{
closed = 1;
nodes = (
"2368 -20 OFFCURVE",
"2467 -5 OFFCURVE",
"2564 26 CURVE",
"2564 190 LINE",
"2456 157 OFFCURVE",
"2366 141 OFFCURVE",
"2294 141 CURVE SMOOTH",
"2051 141 OFFCURVE",
"1923 333 OFFCURVE",
"1923 684 CURVE",
"2384 684 LINE",
"2384 846 LINE",
"1925 846 LINE",
"1933 1138 OFFCURVE",
"2060 1321 OFFCURVE",
"2249 1321 CURVE SMOOTH",
"2348 1321 OFFCURVE",
"2431 1297 OFFCURVE",
"2500 1250 CURVE",
"2570 1400 LINE",
"2470 1460 OFFCURVE",
"2382 1483 OFFCURVE",
"2247 1483 CURVE SMOOTH",
"1938 1483 OFFCURVE",
"1754 1254 OFFCURVE",
"1731 846 CURVE",
"1576 846 LINE",
"1254 1462 LINE",
"507 1462 LINE",
"100 684 LINE",
"598 684 LINE",
"537 610 OFFCURVE",
"507 497 OFFCURVE",
"507 346 CURVE SMOOTH",
"507 0 LINE",
"1255 0 LINE",
"1255 346 LINE SMOOTH",
"1255 496 OFFCURVE",
"1224 609 OFFCURVE",
"1162 684 CURVE",
"1730 684 LINE",
"1749 212 OFFCURVE",
"1933 -20 OFFCURVE",
"2265 -20 CURVE SMOOTH"
);
},
{
closed = 1;
nodes = (
"691 346 LINE SMOOTH",
"691 432 OFFCURVE",
"697 493 OFFCURVE",
"709 530 CURVE SMOOTH",
"732 602 OFFCURVE",
"782 635 OFFCURVE",
"881 635 CURVE SMOOTH",
"977 635 OFFCURVE",
"1030 604 OFFCURVE",
"1054 529 CURVE SMOOTH",
"1065 491 OFFCURVE",
"1071 430 OFFCURVE",
"1071 346 CURVE SMOOTH",
"1071 162 LINE",
"691 162 LINE"
);
},
{
closed = 1;
nodes = (
"604 1300 LINE",
"788 1300 LINE",
"788 846 LINE",
"363 846 LINE"
);
},
{
closed = 1;
nodes = (
"973 1300 LINE",
"1156 1300 LINE",
"1398 846 LINE",
"973 846 LINE"
);
}
);
width = 2670;
}
);
note = uni2C29;
unicode = 2C29;
},
{
glyphname = uni2C2A;
lastChange = "2016-11-10 13:58:43 +0000";
layers = (
{
layerId = "7ECAB14D-022C-4526-8131-D22A8657820C";
paths = (
{
closed = 1;
nodes = (
"1271 -20 OFFCURVE",
"1452 235 OFFCURVE",
"1463 684 CURVE",
"1494 684 LINE SMOOTH",
"1575 684 OFFCURVE",
"1594 663 OFFCURVE",
"1594 584 CURVE SMOOTH",
"1594 545 LINE",
"1758 545 LINE",
"1758 646 LINE SMOOTH",
"1758 805 OFFCURVE",
"1717 846 OFFCURVE",
"1558 846 CURVE SMOOTH",
"1460 846 LINE",
"1431 1259 OFFCURVE",
"1255 1485 OFFCURVE",
"962 1485 CURVE SMOOTH",
"657 1485 OFFCURVE",
"482 1265 OFFCURVE",
"457 846 CURVE",
"340 846 LINE SMOOTH",
"284 846 OFFCURVE",
"242 840 OFFCURVE",
"215 829 CURVE SMOOTH",
"160 806 OFFCURVE",
"140 761 OFFCURVE",
"140 646 CURVE SMOOTH",
"140 545 LINE",
"324 545 LINE",
"324 584 LINE SMOOTH",
"324 665 OFFCURVE",
"345 684 OFFCURVE",
"424 684 CURVE SMOOTH",
"455 684 LINE",
"467 220 OFFCURVE",
"643 -20 OFFCURVE",
"960 -20 CURVE SMOOTH"
);
},
{
closed = 1;
nodes = (
"755 139 OFFCURVE",
"649 321 OFFCURVE",
"640 684 CURVE",
"1277 684 LINE",
"1268 312 OFFCURVE",
"1164 139 OFFCURVE",
"960 139 CURVE SMOOTH"
);
},
{
closed = 1;
nodes = (
"663 1169 OFFCURVE",
"767 1323 OFFCURVE",
"962 1323 CURVE SMOOTH",
"1153 1323 OFFCURVE",
"1258 1164 OFFCURVE",
"1275 846 CURVE",
"643 846 LINE"
);
}
);
width = 1898;
}
);
note = uni2C2A;
unicode = 2C2A;
},
{
glyphname = uni2C2B;
lastChange = "2016-11-10 13:58:43 +0000";
layers = (
{
layerId = "7ECAB14D-022C-4526-8131-D22A8657820C";
paths = (
{
closed = 1;
nodes = (
"888 0 LINE",
"888 234 LINE SMOOTH",
"888 319 OFFCURVE",
"839 433 OFFCURVE",
"770 494 CURVE",
"831 543 OFFCURVE",
"868 607 OFFCURVE",
"881 684 CURVE",
"1150 684 LINE",
"1150 846 LINE",
"859 846 LINE",
"838 893 OFFCURVE",
"808 933 OFFCURVE",
"768 966 CURVE",
"837 1029 OFFCURVE",
"888 1140 OFFCURVE",
"888 1228 CURVE SMOOTH",
"888 1462 LINE",
"160 1462 LINE",
"160 1228 LINE SMOOTH",
"160 1119 OFFCURVE",
"196 1031 OFFCURVE",
"268 966 CURVE",
"192 903 OFFCURVE",
"161 815 OFFCURVE",
"161 731 CURVE SMOOTH",
"161 647 OFFCURVE",
"192 558 OFFCURVE",
"268 495 CURVE",
"199 431 OFFCURVE",
"160 339 OFFCURVE",
"160 234 CURVE SMOOTH",
"160 0 LINE"
);
},
{
closed = 1;
nodes = (
"344 234 LINE SMOOTH",
"344 351 OFFCURVE",
"413 417 OFFCURVE",
"524 417 CURVE SMOOTH",
"636 417 OFFCURVE",
"704 350 OFFCURVE",
"704 234 CURVE SMOOTH",
"704 162 LINE",
"344 162 LINE"
);
},
{
closed = 1;
nodes = (
"416 579 OFFCURVE",
"346 643 OFFCURVE",
"346 731 CURVE SMOOTH",
"346 819 OFFCURVE",
"416 883 OFFCURVE",
"524 883 CURVE SMOOTH",
"628 883 OFFCURVE",
"702 822 OFFCURVE",
"702 731 CURVE SMOOTH",
"702 642 OFFCURVE",
"632 579 OFFCURVE",
"524 579 CURVE SMOOTH"
);
},
{
closed = 1;
nodes = (
"413 1045 OFFCURVE",
"344 1112 OFFCURVE",
"344 1228 CURVE SMOOTH",
"344 1300 LINE",
"704 1300 LINE",
"704 1228 LINE SMOOTH",
"704 1111 OFFCURVE",
"635 1045 OFFCURVE",
"524 1045 CURVE SMOOTH"
);
}
);
width = 1230;
}
);
note = uni2C2B;
unicode = 2C2B;
},
{
glyphname = uni2C2C;
lastChange = "2016-11-10 13:58:43 +0000";
layers = (
{
layerId = "7ECAB14D-022C-4526-8131-D22A8657820C";
paths = (
{
closed = 1;
nodes = (
"554 0 LINE",
"554 1462 LINE",
"100 1462 LINE",
"100 1300 LINE",
"370 1300 LINE",
"370 0 LINE"
);
}
);
width = 794;
}
);
note = uni2C2C;
unicode = 2C2C;
},
{
glyphname = uni2C2D;
lastChange = "2016-11-10 13:58:43 +0000";
layers = (
{
layerId = "7ECAB14D-022C-4526-8131-D22A8657820C";
paths = (
{
closed = 1;
nodes = (
"1382 0 LINE",
"1382 1462 LINE",
"1198 1462 LINE",
"1198 858 LINE",
"160 1382 LINE",
"160 83 LINE",
"1198 597 LINE",
"1198 0 LINE"
);
},
{
closed = 1;
nodes = (
"334 646 LINE",
"961 646 LINE",
"334 350 LINE"
);
},
{
closed = 1;
nodes = (
"334 1115 LINE",
"961 808 LINE",
"334 808 LINE"
);
}
);
width = 1622;
}
);
note = uni2C2D;
unicode = 2C2D;
},
{
glyphname = uni2C2E;
lastChange = "2016-11-10 13:58:43 +0000";
layers = (
{
layerId = "7ECAB14D-022C-4526-8131-D22A8657820C";
paths = (
{
closed = 1;
nodes = (
"621 -20 OFFCURVE",
"727 70 OFFCURVE",
"727 225 CURVE SMOOTH",
"727 332 OFFCURVE",
"689 418 OFFCURVE",
"589 547 CURVE SMOOTH",
"494 666 OFFCURVE",
"450 777 OFFCURVE",
"450 910 CURVE SMOOTH",
"450 991 OFFCURVE",
"469 1062 OFFCURVE",
"507 1123 CURVE SMOOTH",
"582 1243 OFFCURVE",
"721 1308 OFFCURVE",
"921 1324 CURVE",
"921 0 LINE",
"1105 0 LINE",
"1105 1324 LINE",
"1413 1300 OFFCURVE",
"1576 1153 OFFCURVE",
"1576 910 CURVE SMOOTH",
"1576 775 OFFCURVE",
"1530 660 OFFCURVE",
"1438 539 CURVE SMOOTH",
"1333 400 OFFCURVE",
"1299 325 OFFCURVE",
"1299 232 CURVE SMOOTH",
"1299 183 OFFCURVE",
"1311 139 OFFCURVE",
"1334 101 CURVE SMOOTH",
"1381 25 OFFCURVE",
"1469 -20 OFFCURVE",
"1596 -20 CURVE SMOOTH",
"1784 -20 OFFCURVE",
"1905 74 OFFCURVE",
"1926 259 CURVE",
"1750 288 LINE",
"1727 191 OFFCURVE",
"1679 142 OFFCURVE",
"1604 142 CURVE SMOOTH",
"1528 142 OFFCURVE",
"1485 182 OFFCURVE",
"1485 255 CURVE SMOOTH",
"1485 285 OFFCURVE",
"1493 315 OFFCURVE",
"1509 345 CURVE SMOOTH",
"1524 374 OFFCURVE",
"1563 430 OFFCURVE",
"1624 513 CURVE SMOOTH",
"1716 638 OFFCURVE",
"1762 770 OFFCURVE",
"1762 910 CURVE SMOOTH",
"1762 1025 OFFCURVE",
"1730 1128 OFFCURVE",
"1667 1218 CURVE SMOOTH",
"1540 1397 OFFCURVE",
"1312 1485 OFFCURVE",
"1013 1485 CURVE SMOOTH",
"862 1485 OFFCURVE",
"731 1463 OFFCURVE",
"620 1418 CURVE SMOOTH",
"398 1329 OFFCURVE",
"264 1139 OFFCURVE",
"264 910 CURVE SMOOTH",
"264 770 OFFCURVE",
"310 638 OFFCURVE",
"403 513 CURVE SMOOTH",
"464 430 OFFCURVE",
"503 373 OFFCURVE",
"518 344 CURVE SMOOTH",
"533 314 OFFCURVE",
"541 284 OFFCURVE",
"541 255 CURVE SMOOTH",
"541 183 OFFCURVE",
"499 144 OFFCURVE",
"422 144 CURVE SMOOTH",
"347 144 OFFCURVE",
"298 192 OFFCURVE",
"276 288 CURVE",
"100 259 LINE",
"117 74 OFFCURVE",
"234 -20 OFFCURVE",
"430 -20 CURVE SMOOTH"
);
}
);
width = 2026;
}
);
note = uni2C2E;
unicode = 2C2E;
},
{
glyphname = uni2C30;
lastChange = "2016-11-10 13:58:43 +0000";
layers = (
{
layerId = "7ECAB14D-022C-4526-8131-D22A8657820C";
paths = (
{
closed = 1;
nodes = (
"316 0 LINE",
"316 415 LINE SMOOTH",
"316 475 OFFCURVE",
"326 495 OFFCURVE",
"386 495 CURVE SMOOTH",
"636 495 LINE",
"636 0 LINE",
"812 0 LINE",
"812 495 LINE",
"1062 495 LINE SMOOTH",
"1122 495 OFFCURVE",
"1132 475 OFFCURVE",
"1132 415 CURVE SMOOTH",
"1132 0 LINE",
"1308 0 LINE",
"1308 460 LINE SMOOTH",
"1308 516 OFFCURVE",
"1304 555 OFFCURVE",
"1296 577 CURVE SMOOTH",
"1280 621 OFFCURVE",
"1243 640 OFFCURVE",
"1170 640 CURVE SMOOTH",
"812 640 LINE",
"812 1098 LINE",
"636 1098 LINE",
"636 640 LINE",
"278 640 LINE SMOOTH",
"207 640 OFFCURVE",
"169 622 OFFCURVE",
"153 579 CURVE SMOOTH",
"144 557 OFFCURVE",
"140 517 OFFCURVE",
"140 460 CURVE SMOOTH",
"140 0 LINE"
);
}
);
width = 1448;
}
);
note = uni2C30;
unicode = 2C30;
},
{
glyphname = uni2C31;
lastChange = "2016-11-10 13:58:43 +0000";
layers = (
{
layerId = "7ECAB14D-022C-4526-8131-D22A8657820C";
paths = (
{
closed = 1;
nodes = (
"1322 0 LINE",
"1322 145 LINE",
"426 145 LINE SMOOTH",
"402 145 OFFCURVE",
"386 147 OFFCURVE",
"379 152 CURVE",
"364 161 OFFCURVE",
"356 184 OFFCURVE",
"356 225 CURVE SMOOTH",
"356 427 LINE",
"1195 509 LINE SMOOTH",
"1282 517 OFFCURVE",
"1319 532 OFFCURVE",
"1336 565 CURVE SMOOTH",
"1344 581 OFFCURVE",
"1348 614 OFFCURVE",
"1348 664 CURVE SMOOTH",
"1348 1098 LINE",
"1172 1098 LINE",
"1172 725 LINE SMOOTH",
"1172 661 OFFCURVE",
"1161 646 OFFCURVE",
"1106 641 CURVE SMOOTH",
"852 618 LINE",
"852 1098 LINE",
"676 1098 LINE",
"676 602 LINE",
"356 573 LINE",
"356 1098 LINE",
"180 1098 LINE",
"180 180 LINE SMOOTH",
"180 123 OFFCURVE",
"184 84 OFFCURVE",
"192 62 CURVE SMOOTH",
"207 18 OFFCURVE",
"241 0 OFFCURVE",
"318 0 CURVE SMOOTH"
);
}
);
width = 1488;
}
);
note = uni2C31;
unicode = 2C31;
},
{
glyphname = uni2C32;
lastChange = "2016-11-10 13:58:43 +0000";
layers = (
{
layerId = "7ECAB14D-022C-4526-8131-D22A8657820C";
paths = (
{
closed = 1;
nodes = (
"1566 0 LINE SMOOTH",
"1638 0 OFFCURVE",
"1675 19 OFFCURVE",
"1692 64 CURVE SMOOTH",
"1700 86 OFFCURVE",
"1704 125 OFFCURVE",
"1704 180 CURVE SMOOTH",
"1704 918 LINE SMOOTH",
"1704 973 OFFCURVE",
"1700 1011 OFFCURVE",
"1692 1034 CURVE SMOOTH",
"1675 1078 OFFCURVE",
"1639 1098 OFFCURVE",
"1566 1098 CURVE SMOOTH",
"1190 1098 LINE SMOOTH",
"1118 1098 OFFCURVE",
"1081 1079 OFFCURVE",
"1065 1035 CURVE SMOOTH",
"1056 1012 OFFCURVE",
"1052 973 OFFCURVE",
"1052 918 CURVE SMOOTH",
"1052 145 LINE",
"832 145 LINE",
"832 918 LINE SMOOTH",
"832 973 OFFCURVE",
"828 1011 OFFCURVE",
"820 1034 CURVE SMOOTH",
"803 1078 OFFCURVE",
"767 1098 OFFCURVE",
"694 1098 CURVE SMOOTH",
"318 1098 LINE SMOOTH",
"246 1098 OFFCURVE",
"209 1079 OFFCURVE",
"193 1035 CURVE SMOOTH",
"184 1012 OFFCURVE",
"180 973 OFFCURVE",
"180 918 CURVE SMOOTH",
"180 180 LINE SMOOTH",
"180 125 OFFCURVE",
"184 87 OFFCURVE",
"193 65 CURVE",
"209 20 OFFCURVE",
"245 0 OFFCURVE",
"318 0 CURVE SMOOTH"
);
},
{
closed = 1;
nodes = (
"367 145 OFFCURVE",
"356 165 OFFCURVE",
"356 225 CURVE SMOOTH",
"356 873 LINE SMOOTH",
"356 933 OFFCURVE",
"367 953 OFFCURVE",
"426 953 CURVE SMOOTH",
"586 953 LINE SMOOTH",
"645 953 OFFCURVE",
"656 933 OFFCURVE",
"656 873 CURVE SMOOTH",
"656 145 LINE",
"426 145 LINE SMOOTH"
);
},
{
closed = 1;
nodes = (
"1228 873 LINE SMOOTH",
"1228 933 OFFCURVE",
"1239 953 OFFCURVE",
"1298 953 CURVE SMOOTH",
"1458 953 LINE SMOOTH",
"1517 953 OFFCURVE",
"1528 933 OFFCURVE",
"1528 873 CURVE SMOOTH",
"1528 225 LINE SMOOTH",
"1528 165 OFFCURVE",
"1517 145 OFFCURVE",
"1458 145 CURVE SMOOTH",
"1228 145 LINE"
);
}
);
width = 1884;
}
);
note = uni2C32;
unicode = 2C32;
},
{
glyphname = uni2C33;
lastChange = "2016-11-10 13:58:43 +0000";
layers = (
{
layerId = "7ECAB14D-022C-4526-8131-D22A8657820C";
paths = (
{
closed = 1;
nodes = (
"485 0 LINE",
"638 397 LINE",
"853 397 LINE",
"853 180 LINE SMOOTH",
"853 125 OFFCURVE",
"857 87 OFFCURVE",
"866 65 CURVE",
"882 20 OFFCURVE",
"918 0 OFFCURVE",
"991 0 CURVE SMOOTH",
"1495 0 LINE",
"1495 460 LINE SMOOTH",
"1495 515 OFFCURVE",
"1491 553 OFFCURVE",
"1483 576 CURVE SMOOTH",
"1466 620 OFFCURVE",
"1430 640 OFFCURVE",
"1357 640 CURVE SMOOTH",
"991 640 LINE SMOOTH",
"900 640 OFFCURVE",
"868 611 OFFCURVE",
"857 542 CURVE",
"694 542 LINE",
"908 1098 LINE",
"223 1098 LINE SMOOTH",
"172 1098 OFFCURVE",
"140 1071 OFFCURVE",
"140 1024 CURVE SMOOTH",
"140 874 LINE SMOOTH",
"140 655 OFFCURVE",
"275 472 OFFCURVE",
"479 416 CURVE",
"319 0 LINE"
);
},
{
closed = 1;
nodes = (
"389 592 OFFCURVE",
"316 696 OFFCURVE",
"316 869 CURVE SMOOTH",
"316 941 OFFCURVE",
"329 953 OFFCURVE",
"377 953 CURVE SMOOTH",
"686 953 LINE",
"534 557 LINE"
);
},
{
closed = 1;
nodes = (
"1040 145 OFFCURVE",
"1029 165 OFFCURVE",
"1029 225 CURVE SMOOTH",
"1029 415 LINE SMOOTH",
"1029 475 OFFCURVE",
"1040 495 OFFCURVE",
"1099 495 CURVE SMOOTH",
"1249 495 LINE SMOOTH",
"1308 495 OFFCURVE",
"1319 475 OFFCURVE",
"1319 415 CURVE SMOOTH",
"1319 145 LINE",
"1099 145 LINE SMOOTH"
);
}
);
width = 1635;
}
);
note = uni2C33;
unicode = 2C33;
},
{
glyphname = uni2C34;
lastChange = "2016-11-10 13:58:43 +0000";
layers = (
{
layerId = "7ECAB14D-022C-4526-8131-D22A8657820C";
paths = (
{
closed = 1;
nodes = (
"632 0 LINE SMOOTH",
"788 0 OFFCURVE",
"832 45 OFFCURVE",
"832 200 CURVE SMOOTH",
"832 953 LINE",
"982 953 LINE SMOOTH",
"1041 953 OFFCURVE",
"1052 933 OFFCURVE",
"1052 873 CURVE SMOOTH",
"1052 180 LINE SMOOTH",
"1052 125 OFFCURVE",
"1056 87 OFFCURVE",
"1065 65 CURVE",
"1081 20 OFFCURVE",
"1117 0 OFFCURVE",
"1190 0 CURVE SMOOTH",
"1556 0 LINE SMOOTH",
"1628 0 OFFCURVE",
"1665 19 OFFCURVE",
"1682 64 CURVE SMOOTH",
"1690 86 OFFCURVE",
"1694 125 OFFCURVE",
"1694 180 CURVE SMOOTH",
"1694 500 LINE SMOOTH",
"1694 555 OFFCURVE",
"1690 593 OFFCURVE",
"1682 616 CURVE SMOOTH",
"1665 660 OFFCURVE",
"1629 680 OFFCURVE",
"1556 680 CURVE SMOOTH",
"1228 680 LINE",
"1228 918 LINE SMOOTH",
"1228 973 OFFCURVE",
"1224 1011 OFFCURVE",
"1216 1034 CURVE SMOOTH",
"1199 1078 OFFCURVE",
"1163 1098 OFFCURVE",
"1090 1098 CURVE SMOOTH",
"380 1098 LINE SMOOTH",
"227 1098 OFFCURVE",
"180 1057 OFFCURVE",
"180 898 CURVE SMOOTH",
"180 200 LINE SMOOTH",
"180 44 OFFCURVE",
"228 0 OFFCURVE",
"380 0 CURVE SMOOTH"
);
},
{
closed = 1;
nodes = (
"375 145 OFFCURVE",
"356 166 OFFCURVE",
"356 245 CURVE SMOOTH",
"356 853 LINE SMOOTH",
"356 934 OFFCURVE",
"377 953 OFFCURVE",
"456 953 CURVE SMOOTH",
"656 953 LINE",
"656 245 LINE SMOOTH",
"656 164 OFFCURVE",
"635 145 OFFCURVE",
"556 145 CURVE SMOOTH",
"456 145 LINE SMOOTH"
);
},
{
closed = 1;
nodes = (
"1239 145 OFFCURVE",
"1228 165 OFFCURVE",
"1228 225 CURVE SMOOTH",
"1228 535 LINE",
"1448 535 LINE SMOOTH",
"1507 535 OFFCURVE",
"1518 515 OFFCURVE",
"1518 455 CURVE SMOOTH",
"1518 225 LINE SMOOTH",
"1518 165 OFFCURVE",
"1507 145 OFFCURVE",
"1448 145 CURVE SMOOTH",
"1298 145 LINE SMOOTH"
);
}
);
width = 1834;
}
);
note = uni2C34;
unicode = 2C34;
},
{
glyphname = uni2C35;
lastChange = "2016-11-10 13:44:54 +0000";
layers = (
{
layerId = "7ECAB14D-022C-4526-8131-D22A8657820C";
paths = (
{
closed = 1;
nodes = (
"720 -20 OFFCURVE",
"920 188 OFFCURVE",
"920 549 CURVE SMOOTH",
"920 920 OFFCURVE",
"741 1118 OFFCURVE",
"398 1118 CURVE SMOOTH",
"297 1118 OFFCURVE",
"178 1094 OFFCURVE",
"93 1055 CURVE",
"144 909 LINE",
"245 945 OFFCURVE",
"330 963 OFFCURVE",
"400 963 CURVE SMOOTH",
"608 963 OFFCURVE",
"713 864 OFFCURVE",
"732 640 CURVE",
"193 640 LINE",
"193 493 LINE",
"734 493 LINE",
"719 253 OFFCURVE",
"599 133 OFFCURVE",
"375 133 CURVE SMOOTH",
"281 133 OFFCURVE",
"183 154 OFFCURVE",
"80 195 CURVE",
"80 39 LINE",
"161 0 OFFCURVE",
"258 -20 OFFCURVE",
"371 -20 CURVE SMOOTH"
);
}
);
width = 1040;
}
);
note = uni2C35;
unicode = 2C35;
},
{
glyphname = uni2C36;
lastChange = "2016-11-10 13:58:43 +0000";
layers = (
{
layerId = "7ECAB14D-022C-4526-8131-D22A8657820C";
paths = (
{
closed = 1;
nodes = (
"694 0 LINE SMOOTH",
"766 0 OFFCURVE",
"803 19 OFFCURVE",
"820 64 CURVE SMOOTH",
"828 86 OFFCURVE",
"832 125 OFFCURVE",
"832 180 CURVE SMOOTH",
"832 953 LINE",
"1052 953 LINE",
"1052 180 LINE SMOOTH",
"1052 125 OFFCURVE",
"1056 87 OFFCURVE",
"1065 65 CURVE",
"1081 20 OFFCURVE",
"1117 0 OFFCURVE",
"1190 0 CURVE SMOOTH",
"1566 0 LINE SMOOTH",
"1638 0 OFFCURVE",
"1675 19 OFFCURVE",
"1692 64 CURVE SMOOTH",
"1700 86 OFFCURVE",
"1704 125 OFFCURVE",
"1704 180 CURVE SMOOTH",
"1704 918 LINE SMOOTH",
"1704 973 OFFCURVE",
"1700 1011 OFFCURVE",
"1692 1034 CURVE SMOOTH",
"1675 1078 OFFCURVE",
"1639 1098 OFFCURVE",
"1566 1098 CURVE SMOOTH",
"1068 1098 LINE",
"1109 1197 OFFCURVE",
"1210 1247 OFFCURVE",
"1372 1247 CURVE SMOOTH",
"1413 1247 LINE",
"1413 1392 LINE",
"1383 1392 LINE SMOOTH",
"1175 1392 OFFCURVE",
"1023 1321 OFFCURVE",
"942 1180 CURVE",
"859 1323 OFFCURVE",
"706 1392 OFFCURVE",
"501 1392 CURVE SMOOTH",
"471 1392 LINE",
"471 1247 LINE",
"512 1247 LINE SMOOTH",
"671 1247 OFFCURVE",
"773 1197 OFFCURVE",
"816 1098 CURVE",
"318 1098 LINE SMOOTH",
"246 1098 OFFCURVE",
"209 1079 OFFCURVE",
"193 1035 CURVE SMOOTH",
"184 1012 OFFCURVE",
"180 973 OFFCURVE",
"180 918 CURVE SMOOTH",
"180 180 LINE SMOOTH",
"180 125 OFFCURVE",
"184 87 OFFCURVE",
"193 65 CURVE",
"209 20 OFFCURVE",
"245 0 OFFCURVE",
"318 0 CURVE SMOOTH"
);
},
{
closed = 1;
nodes = (
"367 145 OFFCURVE",
"356 165 OFFCURVE",
"356 225 CURVE SMOOTH",
"356 873 LINE SMOOTH",
"356 933 OFFCURVE",
"367 953 OFFCURVE",
"426 953 CURVE SMOOTH",
"656 953 LINE",
"656 225 LINE SMOOTH",
"656 165 OFFCURVE",
"645 145 OFFCURVE",
"586 145 CURVE SMOOTH",
"426 145 LINE SMOOTH"
);
},
{
closed = 1;
nodes = (
"1239 145 OFFCURVE",
"1228 165 OFFCURVE",
"1228 225 CURVE SMOOTH",
"1228 953 LINE",
"1458 953 LINE SMOOTH",
"1517 953 OFFCURVE",
"1528 933 OFFCURVE",
"1528 873 CURVE SMOOTH",
"1528 225 LINE SMOOTH",
"1528 165 OFFCURVE",
"1517 145 OFFCURVE",
"1458 145 CURVE SMOOTH",
"1298 145 LINE SMOOTH"
);
}
);
width = 1884;
}
);
note = uni2C36;
unicode = 2C36;
},
{
glyphname = uni2C37;
lastChange = "2016-11-10 13:58:43 +0000";
layers = (
{
layerId = "7ECAB14D-022C-4526-8131-D22A8657820C";
paths = (
{
closed = 1;
nodes = (
"1110 0 LINE SMOOTH",
"1182 0 OFFCURVE",
"1219 19 OFFCURVE",
"1236 64 CURVE SMOOTH",
"1244 86 OFFCURVE",
"1248 125 OFFCURVE",
"1248 180 CURVE SMOOTH",
"1248 460 LINE SMOOTH",
"1248 603 OFFCURVE",
"1219 635 OFFCURVE",
"1128 639 CURVE",
"1208 715 OFFCURVE",
"1248 813 OFFCURVE",
"1248 934 CURVE SMOOTH",
"1248 1004 LINE SMOOTH",
"1248 1068 OFFCURVE",
"1198 1098 OFFCURVE",
"1142 1098 CURVE SMOOTH",
"727 1098 LINE SMOOTH",
"642 1098 OFFCURVE",
"606 1061 OFFCURVE",
"606 958 CURVE SMOOTH",
"606 640 LINE",
"278 640 LINE SMOOTH",
"206 640 OFFCURVE",
"169 621 OFFCURVE",
"153 577 CURVE SMOOTH",
"144 554 OFFCURVE",
"140 515 OFFCURVE",
"140 460 CURVE SMOOTH",
"140 180 LINE SMOOTH",
"140 125 OFFCURVE",
"144 87 OFFCURVE",
"153 65 CURVE",
"169 20 OFFCURVE",
"205 0 OFFCURVE",
"278 0 CURVE SMOOTH"
);
},
{
closed = 1;
nodes = (
"327 145 OFFCURVE",
"316 165 OFFCURVE",
"316 225 CURVE SMOOTH",
"316 415 LINE SMOOTH",
"316 475 OFFCURVE",
"327 495 OFFCURVE",
"386 495 CURVE SMOOTH",
"606 495 LINE",
"606 145 LINE",
"386 145 LINE SMOOTH"
);
},
{
closed = 1;
nodes = (
"782 495 LINE",
"1002 495 LINE SMOOTH",
"1061 495 OFFCURVE",
"1072 475 OFFCURVE",
"1072 415 CURVE SMOOTH",
"1072 225 LINE SMOOTH",
"1072 165 OFFCURVE",
"1061 145 OFFCURVE",
"1002 145 CURVE SMOOTH",
"782 145 LINE"
);
},
{
closed = 1;
nodes = (
"782 878 LINE SMOOTH",
"782 929 OFFCURVE",
"785 953 OFFCURVE",
"832 953 CURVE SMOOTH",
"1027 953 LINE SMOOTH",
"1064 953 OFFCURVE",
"1078 943 OFFCURVE",
"1078 868 CURVE SMOOTH",
"1078 827 OFFCURVE",
"1067 789 OFFCURVE",
"1044 754 CURVE SMOOTH",
"998 684 OFFCURVE",
"914 640 OFFCURVE",
"797 640 CURVE SMOOTH",
"782 640 LINE"
);
}
);
width = 1408;
}
);
note = uni2C37;
unicode = 2C37;
},
{
glyphname = uni2C38;
lastChange = "2016-11-10 13:58:43 +0000";
layers = (
{
layerId = "7ECAB14D-022C-4526-8131-D22A8657820C";
paths = (
{
closed = 1;
nodes = (
"371 0 LINE SMOOTH",
"611 0 OFFCURVE",
"772 190 OFFCURVE",
"791 495 CURVE",
"926 495 LINE",
"926 180 LINE SMOOTH",
"926 125 OFFCURVE",
"930 87 OFFCURVE",
"939 65 CURVE",
"955 20 OFFCURVE",
"991 0 OFFCURVE",
"1064 0 CURVE SMOOTH",
"1430 0 LINE SMOOTH",
"1502 0 OFFCURVE",
"1539 19 OFFCURVE",
"1556 64 CURVE SMOOTH",
"1564 86 OFFCURVE",
"1568 125 OFFCURVE",
"1568 180 CURVE SMOOTH",
"1568 460 LINE SMOOTH",
"1568 515 OFFCURVE",
"1564 553 OFFCURVE",
"1556 576 CURVE SMOOTH",
"1539 620 OFFCURVE",
"1503 640 OFFCURVE",
"1430 640 CURVE SMOOTH",
"789 639 LINE",
"765 932 OFFCURVE",
"615 1098 OFFCURVE",
"371 1098 CURVE SMOOTH",
"180 1098 LINE",
"180 0 LINE"
);
},
{
closed = 1;
nodes = (
"356 495 LINE",
"607 495 LINE",
"596 268 OFFCURVE",
"522 145 OFFCURVE",
"399 145 CURVE SMOOTH",
"356 145 LINE"
);
},
{
closed = 1;
nodes = (
"356 955 LINE",
"401 955 LINE SMOOTH",
"517 955 OFFCURVE",
"589 843 OFFCURVE",
"606 639 CURVE",
"356 639 LINE"
);
},
{
closed = 1;
nodes = (
"1113 145 OFFCURVE",
"1102 165 OFFCURVE",
"1102 225 CURVE SMOOTH",
"1102 495 LINE",
"1322 495 LINE SMOOTH",
"1381 495 OFFCURVE",
"1392 475 OFFCURVE",
"1392 415 CURVE SMOOTH",
"1392 225 LINE SMOOTH",
"1392 165 OFFCURVE",
"1381 145 OFFCURVE",
"1322 145 CURVE SMOOTH",
"1172 145 LINE SMOOTH"
);
}
);
width = 1708;
}
);
note = uni2C38;
unicode = 2C38;
},
{
glyphname = uni2C39;
lastChange = "2016-11-10 13:58:43 +0000";
layers = (
{
layerId = "7ECAB14D-022C-4526-8131-D22A8657820C";
paths = (
{
closed = 1;
nodes = (
"1187 0 LINE",
"1187 145 LINE",
"1024 145 LINE",
"1024 479 LINE",
"1083 495 OFFCURVE",
"1132 527 OFFCURVE",
"1172 574 CURVE",
"1229 504 OFFCURVE",
"1307 469 OFFCURVE",
"1407 469 CURVE SMOOTH",
"1616 469 OFFCURVE",
"1732 594 OFFCURVE",
"1732 842 CURVE SMOOTH",
"1732 1098 LINE",
"140 1098 LINE",
"140 842 LINE SMOOTH",
"140 594 OFFCURVE",
"256 469 OFFCURVE",
"465 469 CURVE SMOOTH",
"561 469 OFFCURVE",
"638 502 OFFCURVE",
"695 568 CURVE",
"734 521 OFFCURVE",
"785 491 OFFCURVE",
"848 478 CURVE",
"848 145 LINE",
"685 145 LINE",
"685 0 LINE"
);
},
{
closed = 1;
nodes = (
"428 616 OFFCURVE",
"399 624 OFFCURVE",
"378 639 CURVE SMOOTH",
"334 669 OFFCURVE",
"316 719 OFFCURVE",
"316 843 CURVE SMOOTH",
"316 953 LINE",
"612 953 LINE",
"612 842 LINE SMOOTH",
"612 774 OFFCURVE",
"607 726 OFFCURVE",
"598 698 CURVE SMOOTH",
"579 642 OFFCURVE",
"540 616 OFFCURVE",
"465 616 CURVE SMOOTH"
);
},
{
closed = 1;
nodes = (
"832 616 OFFCURVE",
"788 672 OFFCURVE",
"788 831 CURVE SMOOTH",
"788 953 LINE",
"1084 953 LINE",
"1084 844 LINE SMOOTH",
"1084 775 OFFCURVE",
"1079 726 OFFCURVE",
"1070 698 CURVE SMOOTH",
"1051 642 OFFCURVE",
"1012 616 OFFCURVE",
"937 616 CURVE SMOOTH"
);
},
{
closed = 1;
nodes = (
"1299 616 OFFCURVE",
"1260 663 OFFCURVE",
"1260 831 CURVE SMOOTH",
"1260 953 LINE",
"1556 953 LINE",
"1556 843 LINE SMOOTH",
"1556 782 OFFCURVE",
"1551 736 OFFCURVE",
"1542 706 CURVE SMOOTH",
"1522 646 OFFCURVE",
"1480 616 OFFCURVE",
"1407 616 CURVE SMOOTH"
);
}
);
width = 1872;
}
);
note = uni2C39;
unicode = 2C39;
},
{
glyphname = uni2C3A;
lastChange = "2016-11-10 13:58:43 +0000";
layers = (
{
layerId = "7ECAB14D-022C-4526-8131-D22A8657820C";
paths = (
{
closed = 1;
nodes = (
"1260 0 LINE",
"1260 254 LINE SMOOTH",
"1260 379 OFFCURVE",
"1215 483 OFFCURVE",
"1144 544 CURVE",
"1172 574 LINE",
"1229 504 OFFCURVE",
"1307 469 OFFCURVE",
"1407 469 CURVE SMOOTH",
"1616 469 OFFCURVE",
"1732 594 OFFCURVE",
"1732 842 CURVE SMOOTH",
"1732 1098 LINE",
"140 1098 LINE",
"140 842 LINE SMOOTH",
"140 594 OFFCURVE",
"256 469 OFFCURVE",
"465 469 CURVE SMOOTH",
"561 469 OFFCURVE",
"638 502 OFFCURVE",
"695 568 CURVE",
"717 544 LINE",
"647 483 OFFCURVE",
"612 387 OFFCURVE",
"612 256 CURVE SMOOTH",
"612 0 LINE"
);
},
{
closed = 1;
nodes = (
"788 255 LINE SMOOTH",
"788 420 OFFCURVE",
"833 469 OFFCURVE",
"937 469 CURVE SMOOTH",
"1013 469 OFFCURVE",
"1051 444 OFFCURVE",
"1070 391 CURVE SMOOTH",
"1079 364 OFFCURVE",
"1084 319 OFFCURVE",
"1084 256 CURVE SMOOTH",
"1084 145 LINE",
"788 145 LINE"
);
},
{
closed = 1;
nodes = (
"428 616 OFFCURVE",
"399 624 OFFCURVE",
"378 639 CURVE SMOOTH",
"334 669 OFFCURVE",
"316 719 OFFCURVE",
"316 843 CURVE SMOOTH",
"316 953 LINE",
"612 953 LINE",
"612 842 LINE SMOOTH",
"612 774 OFFCURVE",
"607 726 OFFCURVE",
"598 698 CURVE SMOOTH",
"579 642 OFFCURVE",
"540 616 OFFCURVE",
"465 616 CURVE SMOOTH"
);
},
{
closed = 1;
nodes = (
"832 616 OFFCURVE",
"788 672 OFFCURVE",
"788 831 CURVE SMOOTH",
"788 953 LINE",
"1084 953 LINE",
"1084 842 LINE SMOOTH",
"1084 774 OFFCURVE",
"1079 726 OFFCURVE",
"1070 698 CURVE SMOOTH",
"1051 642 OFFCURVE",
"1012 616 OFFCURVE",
"937 616 CURVE SMOOTH"
);
},
{
closed = 1;
nodes = (
"1299 616 OFFCURVE",
"1260 663 OFFCURVE",
"1260 831 CURVE SMOOTH",
"1260 953 LINE",
"1556 953 LINE",
"1556 843 LINE SMOOTH",
"1556 782 OFFCURVE",
"1551 736 OFFCURVE",
"1542 706 CURVE SMOOTH",
"1522 646 OFFCURVE",
"1480 616 OFFCURVE",
"1407 616 CURVE SMOOTH"
);
}
);
width = 1872;
}
);
note = uni2C3A;
unicode = 2C3A;
},
{
glyphname = uni2C3B;
lastChange = "2016-11-10 13:58:43 +0000";
layers = (
{
layerId = "7ECAB14D-022C-4526-8131-D22A8657820C";
paths = (
{
closed = 1;
nodes = (
"808 0 LINE",
"808 274 LINE SMOOTH",
"808 399 OFFCURVE",
"763 503 OFFCURVE",
"692 564 CURVE",
"764 631 OFFCURVE",
"808 739 OFFCURVE",
"808 864 CURVE SMOOTH",
"808 1098 LINE",
"160 1098 LINE",
"160 862 LINE SMOOTH",
"160 729 OFFCURVE",
"195 629 OFFCURVE",
"265 564 CURVE",
"195 503 OFFCURVE",
"160 407 OFFCURVE",
"160 276 CURVE SMOOTH",
"160 0 LINE"
);
},
{
closed = 1;
nodes = (
"336 275 LINE SMOOTH",
"336 440 OFFCURVE",
"381 489 OFFCURVE",
"485 489 CURVE SMOOTH",
"561 489 OFFCURVE",
"599 464 OFFCURVE",
"618 411 CURVE SMOOTH",
"627 384 OFFCURVE",
"632 339 OFFCURVE",
"632 276 CURVE SMOOTH",
"632 145 LINE",
"336 145 LINE"
);
},
{
closed = 1;
nodes = (
"448 636 OFFCURVE",
"419 644 OFFCURVE",
"398 659 CURVE SMOOTH",
"354 689 OFFCURVE",
"336 739 OFFCURVE",
"336 863 CURVE SMOOTH",
"336 953 LINE",
"632 953 LINE",
"632 862 LINE SMOOTH",
"632 794 OFFCURVE",
"627 746 OFFCURVE",
"618 718 CURVE SMOOTH",
"599 662 OFFCURVE",
"560 636 OFFCURVE",
"485 636 CURVE SMOOTH"
);
}
);
width = 968;
}
);
note = uni2C3B;
unicode = 2C3B;
},
{
glyphname = uni2C3C;
lastChange = "2016-11-10 13:58:43 +0000";
layers = (
{
layerId = "7ECAB14D-022C-4526-8131-D22A8657820C";
paths = (
{
closed = 1;
nodes = (
"356 0 LINE",
"356 853 LINE SMOOTH",
"356 894 OFFCURVE",
"358 919 OFFCURVE",
"363 928 CURVE",
"371 947 OFFCURVE",
"391 953 OFFCURVE",
"436 953 CURVE SMOOTH",
"576 953 LINE SMOOTH",
"624 953 OFFCURVE",
"642 945 OFFCURVE",
"650 925 CURVE SMOOTH",
"654 914 OFFCURVE",
"656 890 OFFCURVE",
"656 853 CURVE SMOOTH",
"656 0 LINE",
"832 0 LINE",
"832 455 LINE",
"1052 455 LINE",
"1052 0 LINE",
"1228 0 LINE",
"1228 453 LINE",
"1564 469 OFFCURVE",
"1742 615 OFFCURVE",
"1742 874 CURVE SMOOTH",
"1742 1004 LINE SMOOTH",
"1742 1068 OFFCURVE",
"1704 1098 OFFCURVE",
"1648 1098 CURVE SMOOTH",
"1193 1098 LINE SMOOTH",
"1158 1098 OFFCURVE",
"1130 1093 OFFCURVE",
"1110 1083 CURVE SMOOTH",
"1069 1062 OFFCURVE",
"1052 1027 OFFCURVE",
"1052 928 CURVE SMOOTH",
"1052 599 LINE",
"832 599 LINE",
"832 898 LINE SMOOTH",
"832 966 OFFCURVE",
"827 1012 OFFCURVE",
"818 1035 CURVE SMOOTH",
"799 1081 OFFCURVE",
"758 1098 OFFCURVE",
"662 1098 CURVE SMOOTH",
"350 1098 LINE SMOOTH",
"258 1098 OFFCURVE",
"214 1084 OFFCURVE",
"195 1041 CURVE SMOOTH",
"185 1020 OFFCURVE",
"180 975 OFFCURVE",
"180 908 CURVE SMOOTH",
"180 0 LINE"
);
},
{
closed = 1;
nodes = (
"1228 878 LINE SMOOTH",
"1228 928 OFFCURVE",
"1250 953 OFFCURVE",
"1294 953 CURVE SMOOTH",
"1515 953 LINE SMOOTH",
"1558 953 OFFCURVE",
"1566 923 OFFCURVE",
"1566 868 CURVE SMOOTH",
"1566 688 OFFCURVE",
"1448 604 OFFCURVE",
"1228 597 CURVE"
);
}
);
width = 1882;
}
);
note = uni2C3C;
unicode = 2C3C;
},
{
glyphname = uni2C3D;
lastChange = "2016-11-10 13:58:43 +0000";
layers = (
{
layerId = "7ECAB14D-022C-4526-8131-D22A8657820C";
paths = (
{
closed = 1;
nodes = (
"634 0 LINE",
"634 460 LINE SMOOTH",
"634 515 OFFCURVE",
"630 553 OFFCURVE",
"622 576 CURVE SMOOTH",
"605 620 OFFCURVE",
"569 640 OFFCURVE",
"496 640 CURVE SMOOTH",
"264 640 LINE",
"387 1098 LINE",
"221 1098 LINE",
"60 495 LINE",
"388 495 LINE SMOOTH",
"447 495 OFFCURVE",
"458 475 OFFCURVE",
"458 415 CURVE SMOOTH",
"458 0 LINE"
);
}
);
width = 814;
}
);
note = uni2C3D;
unicode = 2C3D;
},
{
glyphname = uni2C3E;
lastChange = "2016-11-10 13:58:43 +0000";
layers = (
{
layerId = "7ECAB14D-022C-4526-8131-D22A8657820C";
paths = (
{
closed = 1;
nodes = (
"644 0 LINE SMOOTH",
"716 0 OFFCURVE",
"753 19 OFFCURVE",
"770 64 CURVE SMOOTH",
"778 86 OFFCURVE",
"782 125 OFFCURVE",
"782 180 CURVE SMOOTH",
"782 495 LINE",
"1002 495 LINE",
"1002 180 LINE SMOOTH",
"1002 125 OFFCURVE",
"1006 87 OFFCURVE",
"1015 65 CURVE",
"1031 20 OFFCURVE",
"1067 0 OFFCURVE",
"1140 0 CURVE SMOOTH",
"1506 0 LINE SMOOTH",
"1578 0 OFFCURVE",
"1615 19 OFFCURVE",
"1632 64 CURVE SMOOTH",
"1640 86 OFFCURVE",
"1644 125 OFFCURVE",
"1644 180 CURVE SMOOTH",
"1644 460 LINE SMOOTH",
"1644 515 OFFCURVE",
"1640 553 OFFCURVE",
"1632 576 CURVE SMOOTH",
"1615 620 OFFCURVE",
"1579 640 OFFCURVE",
"1506 640 CURVE SMOOTH",
"1178 640 LINE",
"1178 928 LINE SMOOTH",
"1178 986 OFFCURVE",
"1175 1025 OFFCURVE",
"1168 1045 CURVE SMOOTH",
"1161 1065 OFFCURVE",
"1148 1079 OFFCURVE",
"1130 1087 CURVE",
"1112 1094 OFFCURVE",
"1078 1098 OFFCURVE",
"1028 1098 CURVE SMOOTH",
"756 1098 LINE SMOOTH",
"707 1098 OFFCURVE",
"674 1094 OFFCURVE",
"656 1087 CURVE SMOOTH",
"637 1080 OFFCURVE",
"624 1067 OFFCURVE",
"617 1049 CURVE SMOOTH",
"610 1030 OFFCURVE",
"606 990 OFFCURVE",
"606 928 CURVE SMOOTH",
"606 640 LINE",
"278 640 LINE SMOOTH",
"206 640 OFFCURVE",
"169 621 OFFCURVE",
"153 577 CURVE SMOOTH",
"144 554 OFFCURVE",
"140 515 OFFCURVE",
"140 460 CURVE SMOOTH",
"140 180 LINE SMOOTH",
"140 125 OFFCURVE",
"144 87 OFFCURVE",
"153 65 CURVE",
"169 20 OFFCURVE",
"205 0 OFFCURVE",
"278 0 CURVE SMOOTH"
);
},
{
closed = 1;
nodes = (
"327 145 OFFCURVE",
"316 165 OFFCURVE",
"316 225 CURVE SMOOTH",
"316 415 LINE SMOOTH",
"316 475 OFFCURVE",
"327 495 OFFCURVE",
"386 495 CURVE SMOOTH",
"606 495 LINE",
"606 225 LINE SMOOTH",
"606 165 OFFCURVE",
"595 145 OFFCURVE",
"536 145 CURVE SMOOTH",
"386 145 LINE SMOOTH"
);
},
{
closed = 1;
nodes = (
"1189 145 OFFCURVE",
"1178 165 OFFCURVE",
"1178 225 CURVE SMOOTH",
"1178 495 LINE",
"1398 495 LINE SMOOTH",
"1457 495 OFFCURVE",
"1468 475 OFFCURVE",
"1468 415 CURVE SMOOTH",
"1468 225 LINE SMOOTH",
"1468 165 OFFCURVE",
"1457 145 OFFCURVE",
"1398 145 CURVE SMOOTH",
"1248 145 LINE SMOOTH"
);
},
{
closed = 1;
nodes = (
"782 853 LINE SMOOTH",
"782 892 OFFCURVE",
"784 917 OFFCURVE",
"787 927 CURVE",
"794 946 OFFCURVE",
"807 953 OFFCURVE",
"842 953 CURVE SMOOTH",
"942 953 LINE SMOOTH",
"977 953 OFFCURVE",
"992 946 OFFCURVE",
"998 926 CURVE SMOOTH",
"1001 916 OFFCURVE",
"1002 892 OFFCURVE",
"1002 853 CURVE SMOOTH",
"1002 640 LINE",
"782 640 LINE"
);
}
);
width = 1784;
}
);
note = uni2C3E;
unicode = 2C3E;
},
{
glyphname = uni2C3F;
lastChange = "2016-11-10 13:58:43 +0000";
layers = (
{
layerId = "7ECAB14D-022C-4526-8131-D22A8657820C";
paths = (
{
closed = 1;
nodes = (
"356 0 LINE",
"356 757 LINE SMOOTH",
"356 922 OFFCURVE",
"401 971 OFFCURVE",
"505 971 CURVE SMOOTH",
"616 971 OFFCURVE",
"652 924 OFFCURVE",
"652 756 CURVE SMOOTH",
"652 0 LINE",
"828 0 LINE",
"828 758 LINE SMOOTH",
"828 823 OFFCURVE",
"833 868 OFFCURVE",
"842 895 CURVE SMOOTH",
"861 947 OFFCURVE",
"900 971 OFFCURVE",
"975 971 CURVE SMOOTH",
"1079 971 OFFCURVE",
"1124 922 OFFCURVE",
"1124 757 CURVE SMOOTH",
"1124 0 LINE",
"1300 0 LINE",
"1300 758 LINE SMOOTH",
"1300 993 OFFCURVE",
"1182 1118 OFFCURVE",
"975 1118 CURVE SMOOTH",
"876 1118 OFFCURVE",
"797 1085 OFFCURVE",
"740 1019 CURVE",
"683 1085 OFFCURVE",
"604 1118 OFFCURVE",
"505 1118 CURVE SMOOTH",
"298 1118 OFFCURVE",
"180 994 OFFCURVE",
"180 758 CURVE SMOOTH",
"180 0 LINE"
);
}
);
width = 1480;
}
);
note = uni2C3F;
unicode = 2C3F;
},
{
glyphname = uni2C40;
lastChange = "2016-11-10 13:58:43 +0000";
layers = (
{
layerId = "7ECAB14D-022C-4526-8131-D22A8657820C";
paths = (
{
closed = 1;
nodes = (
"356 0 LINE",
"356 453 LINE",
"692 469 OFFCURVE",
"870 615 OFFCURVE",
"870 874 CURVE SMOOTH",
"870 1004 LINE SMOOTH",
"870 1068 OFFCURVE",
"832 1098 OFFCURVE",
"776 1098 CURVE SMOOTH",
"341 1098 LINE SMOOTH",
"229 1098 OFFCURVE",
"180 1052 OFFCURVE",
"180 928 CURVE SMOOTH",
"180 0 LINE"
);
},
{
closed = 1;
nodes = (
"356 878 LINE SMOOTH",
"356 928 OFFCURVE",
"378 953 OFFCURVE",
"422 953 CURVE SMOOTH",
"643 953 LINE SMOOTH",
"686 953 OFFCURVE",
"694 923 OFFCURVE",
"694 868 CURVE SMOOTH",
"694 688 OFFCURVE",
"576 604 OFFCURVE",
"356 597 CURVE"
);
}
);
width = 1010;
}
);
note = uni2C40;
unicode = 2C40;
},
{
glyphname = uni2C41;
lastChange = "2016-11-10 13:58:43 +0000";
layers = (
{
layerId = "7ECAB14D-022C-4526-8131-D22A8657820C";
paths = (
{
closed = 1;
nodes = (
"675 0 LINE SMOOTH",
"734 0 OFFCURVE",
"775 4 OFFCURVE",
"797 12 CURVE SMOOTH",
"840 27 OFFCURVE",
"856 58 OFFCURVE",
"856 147 CURVE SMOOTH",
"856 951 LINE SMOOTH",
"856 1002 OFFCURVE",
"852 1036 OFFCURVE",
"844 1053 CURVE",
"835 1070 OFFCURVE",
"820 1081 OFFCURVE",
"798 1088 CURVE SMOOTH",
"776 1095 OFFCURVE",
"742 1098 OFFCURVE",
"695 1098 CURVE SMOOTH",
"339 1098 LINE SMOOTH",
"220 1098 OFFCURVE",
"160 1027 OFFCURVE",
"160 884 CURVE SMOOTH",
"160 737 OFFCURVE",
"254 627 OFFCURVE",
"402 563 CURVE",
"250 484 OFFCURVE",
"160 357 OFFCURVE",
"160 214 CURVE SMOOTH",
"160 57 OFFCURVE",
"227 0 OFFCURVE",
"359 0 CURVE SMOOTH"
);
},
{
closed = 1;
nodes = (
"349 145 OFFCURVE",
"334 169 OFFCURVE",
"334 238 CURVE SMOOTH",
"334 378 OFFCURVE",
"473 483 OFFCURVE",
"680 498 CURVE",
"680 211 LINE SMOOTH",
"680 170 OFFCURVE",
"671 145 OFFCURVE",
"631 145 CURVE SMOOTH",
"396 145 LINE SMOOTH"
);
},
{
closed = 1;
nodes = (
"448 651 OFFCURVE",
"334 728 OFFCURVE",
"334 860 CURVE SMOOTH",
"334 891 OFFCURVE",
"337 911 OFFCURVE",
"342 922 CURVE",
"353 942 OFFCURVE",
"375 953 OFFCURVE",
"420 953 CURVE SMOOTH",
"623 953 LINE SMOOTH",
"672 953 OFFCURVE",
"680 928 OFFCURVE",
"680 887 CURVE SMOOTH",
"680 640 LINE"
);
}
);
width = 1036;
}
);
note = uni2C41;
unicode = 2C41;
},
{
glyphname = uni2C42;
lastChange = "2016-11-10 13:58:43 +0000";
layers = (
{
layerId = "7ECAB14D-022C-4526-8131-D22A8657820C";
paths = (
{
closed = 1;
nodes = (
"356 0 LINE",
"356 853 LINE SMOOTH",
"356 894 OFFCURVE",
"358 919 OFFCURVE",
"363 928 CURVE",
"371 947 OFFCURVE",
"391 953 OFFCURVE",
"436 953 CURVE SMOOTH",
"576 953 LINE",
"576 498 LINE SMOOTH",
"576 443 OFFCURVE",
"580 405 OFFCURVE",
"589 383 CURVE",
"605 338 OFFCURVE",
"641 318 OFFCURVE",
"714 318 CURVE SMOOTH",
"1080 318 LINE SMOOTH",
"1152 318 OFFCURVE",
"1189 337 OFFCURVE",
"1206 382 CURVE SMOOTH",
"1214 404 OFFCURVE",
"1218 443 OFFCURVE",
"1218 498 CURVE SMOOTH",
"1218 918 LINE SMOOTH",
"1218 973 OFFCURVE",
"1214 1011 OFFCURVE",
"1206 1034 CURVE SMOOTH",
"1189 1078 OFFCURVE",
"1153 1098 OFFCURVE",
"1080 1098 CURVE SMOOTH",
"350 1098 LINE SMOOTH",
"258 1098 OFFCURVE",
"214 1084 OFFCURVE",
"195 1041 CURVE SMOOTH",
"185 1020 OFFCURVE",
"180 975 OFFCURVE",
"180 908 CURVE SMOOTH",
"180 0 LINE"
);
},
{
closed = 1;
nodes = (
"763 463 OFFCURVE",
"752 483 OFFCURVE",
"752 543 CURVE SMOOTH",
"752 953 LINE",
"972 953 LINE SMOOTH",
"1031 953 OFFCURVE",
"1042 933 OFFCURVE",
"1042 873 CURVE SMOOTH",
"1042 543 LINE SMOOTH",
"1042 483 OFFCURVE",
"1031 463 OFFCURVE",
"972 463 CURVE SMOOTH",
"822 463 LINE SMOOTH"
);
}
);
width = 1358;
}
);
note = uni2C42;
unicode = 2C42;
},
{
glyphname = uni2C43;
lastChange = "2016-11-10 13:58:43 +0000";
layers = (
{
layerId = "7ECAB14D-022C-4526-8131-D22A8657820C";
paths = (
{
closed = 1;
nodes = (
"657 0 LINE SMOOTH",
"706 0 OFFCURVE",
"744 8 OFFCURVE",
"773 24 CURVE SMOOTH",
"829 56 OFFCURVE",
"856 107 OFFCURVE",
"856 214 CURVE SMOOTH",
"856 471 OFFCURVE",
"661 637 OFFCURVE",
"356 640 CURVE",
"356 1098 LINE",
"180 1098 LINE",
"180 147 LINE SMOOTH",
"180 56 OFFCURVE",
"197 26 OFFCURVE",
"242 11 CURVE SMOOTH",
"264 4 OFFCURVE",
"304 0 OFFCURVE",
"361 0 CURVE SMOOTH"
);
},
{
closed = 1;
nodes = (
"365 145 OFFCURVE",
"356 170 OFFCURVE",
"356 211 CURVE SMOOTH",
"356 499 LINE",
"563 492 OFFCURVE",
"682 398 OFFCURVE",
"682 238 CURVE SMOOTH",
"682 167 OFFCURVE",
"665 145 OFFCURVE",
"620 145 CURVE SMOOTH",
"405 145 LINE SMOOTH"
);
}
);
width = 996;
}
);
note = uni2C43;
unicode = 2C43;
},
{
glyphname = uni2C44;
lastChange = "2016-11-10 13:58:43 +0000";
layers = (
{
layerId = "7ECAB14D-022C-4526-8131-D22A8657820C";
paths = (
{
closed = 1;
nodes = (
"981 0 LINE",
"981 322 LINE",
"1113 398 OFFCURVE",
"1194 543 OFFCURVE",
"1194 692 CURVE SMOOTH",
"1194 773 OFFCURVE",
"1173 846 OFFCURVE",
"1130 911 CURVE SMOOTH",
"1045 1040 OFFCURVE",
"881 1118 OFFCURVE",
"657 1118 CURVE SMOOTH",
"546 1118 OFFCURVE",
"450 1100 OFFCURVE",
"369 1064 CURVE SMOOTH",
"208 991 OFFCURVE",
"120 853 OFFCURVE",
"120 692 CURVE SMOOTH",
"120 545 OFFCURVE",
"197 402 OFFCURVE",
"333 322 CURVE",
"333 0 LINE"
);
},
{
closed = 1;
nodes = (
"509 275 LINE SMOOTH",
"509 452 OFFCURVE",
"559 513 OFFCURVE",
"658 513 CURVE SMOOTH",
"730 513 OFFCURVE",
"771 482 OFFCURVE",
"791 422 CURVE",
"800 391 OFFCURVE",
"805 343 OFFCURVE",
"805 276 CURVE SMOOTH",
"805 145 LINE",
"509 145 LINE"
);
},
{
closed = 1;
nodes = (
"881 603 OFFCURVE",
"788 660 OFFCURVE",
"658 660 CURVE SMOOTH",
"516 660 OFFCURVE",
"420 605 OFFCURVE",
"371 494 CURVE",
"322 543 OFFCURVE",
"297 610 OFFCURVE",
"297 694 CURVE SMOOTH",
"297 871 OFFCURVE",
"432 971 OFFCURVE",
"657 971 CURVE SMOOTH",
"877 971 OFFCURVE",
"1017 871 OFFCURVE",
"1017 694 CURVE SMOOTH",
"1017 609 OFFCURVE",
"991 541 OFFCURVE",
"938 490 CURVE"
);
}
);
width = 1314;
}
);
note = uni2C44;
unicode = 2C44;
},
{
glyphname = uni2C45;
lastChange = "2016-11-10 13:58:43 +0000";
layers = (
{
layerId = "7ECAB14D-022C-4526-8131-D22A8657820C";
paths = (
{
closed = 1;
nodes = (
"694 0 LINE SMOOTH",
"766 0 OFFCURVE",
"803 19 OFFCURVE",
"820 64 CURVE SMOOTH",
"828 86 OFFCURVE",
"832 125 OFFCURVE",
"832 180 CURVE SMOOTH",
"832 953 LINE",
"1052 953 LINE",
"1052 180 LINE SMOOTH",
"1052 125 OFFCURVE",
"1056 87 OFFCURVE",
"1065 65 CURVE",
"1081 20 OFFCURVE",
"1117 0 OFFCURVE",
"1190 0 CURVE SMOOTH",
"1566 0 LINE SMOOTH",
"1638 0 OFFCURVE",
"1675 19 OFFCURVE",
"1692 64 CURVE SMOOTH",
"1700 86 OFFCURVE",
"1704 125 OFFCURVE",
"1704 180 CURVE SMOOTH",
"1704 918 LINE SMOOTH",
"1704 973 OFFCURVE",
"1700 1011 OFFCURVE",
"1692 1034 CURVE SMOOTH",
"1675 1078 OFFCURVE",
"1639 1098 OFFCURVE",
"1566 1098 CURVE SMOOTH",
"318 1098 LINE SMOOTH",
"246 1098 OFFCURVE",
"209 1079 OFFCURVE",
"193 1035 CURVE SMOOTH",
"184 1012 OFFCURVE",
"180 973 OFFCURVE",
"180 918 CURVE SMOOTH",
"180 180 LINE SMOOTH",
"180 125 OFFCURVE",
"184 87 OFFCURVE",
"193 65 CURVE",
"209 20 OFFCURVE",
"245 0 OFFCURVE",
"318 0 CURVE SMOOTH"
);
},
{
closed = 1;
nodes = (
"367 145 OFFCURVE",
"356 165 OFFCURVE",
"356 225 CURVE SMOOTH",
"356 873 LINE SMOOTH",
"356 933 OFFCURVE",
"367 953 OFFCURVE",
"426 953 CURVE SMOOTH",
"656 953 LINE",
"656 225 LINE SMOOTH",
"656 165 OFFCURVE",
"645 145 OFFCURVE",
"586 145 CURVE SMOOTH",
"426 145 LINE SMOOTH"
);
},
{
closed = 1;
nodes = (
"1239 145 OFFCURVE",
"1228 165 OFFCURVE",
"1228 225 CURVE SMOOTH",
"1228 953 LINE",
"1458 953 LINE SMOOTH",
"1517 953 OFFCURVE",
"1528 933 OFFCURVE",
"1528 873 CURVE SMOOTH",
"1528 225 LINE SMOOTH",
"1528 165 OFFCURVE",
"1517 145 OFFCURVE",
"1458 145 CURVE SMOOTH",
"1298 145 LINE SMOOTH"
);
}
);
width = 1884;
}
);
note = uni2C45;
unicode = 2C45;
},
{
glyphname = uni2C46;
lastChange = "2016-11-10 13:58:43 +0000";
layers = (
{
layerId = "7ECAB14D-022C-4526-8131-D22A8657820C";
paths = (
{
closed = 1;
nodes = (
"1194 0 LINE SMOOTH",
"1266 0 OFFCURVE",
"1303 19 OFFCURVE",
"1320 64 CURVE SMOOTH",
"1328 86 OFFCURVE",
"1332 125 OFFCURVE",
"1332 180 CURVE SMOOTH",
"1332 918 LINE SMOOTH",
"1332 973 OFFCURVE",
"1328 1011 OFFCURVE",
"1320 1034 CURVE SMOOTH",
"1303 1078 OFFCURVE",
"1267 1098 OFFCURVE",
"1194 1098 CURVE SMOOTH",
"339 1098 LINE SMOOTH",
"220 1098 OFFCURVE",
"160 1027 OFFCURVE",
"160 884 CURVE SMOOTH",
"160 737 OFFCURVE",
"254 627 OFFCURVE",
"402 563 CURVE",
"250 484 OFFCURVE",
"160 357 OFFCURVE",
"160 214 CURVE SMOOTH",
"160 57 OFFCURVE",
"227 0 OFFCURVE",
"359 0 CURVE SMOOTH"
);
},
{
closed = 1;
nodes = (
"349 145 OFFCURVE",
"334 169 OFFCURVE",
"334 238 CURVE SMOOTH",
"334 378 OFFCURVE",
"473 483 OFFCURVE",
"680 498 CURVE",
"680 145 LINE",
"396 145 LINE SMOOTH"
);
},
{
closed = 1;
nodes = (
"448 651 OFFCURVE",
"334 728 OFFCURVE",
"334 860 CURVE SMOOTH",
"334 891 OFFCURVE",
"337 911 OFFCURVE",
"342 922 CURVE",
"353 942 OFFCURVE",
"375 953 OFFCURVE",
"420 953 CURVE SMOOTH",
"680 953 LINE",
"680 640 LINE"
);
},
{
closed = 1;
nodes = (
"856 495 LINE",
"1156 495 LINE",
"1156 225 LINE SMOOTH",
"1156 165 OFFCURVE",
"1145 145 OFFCURVE",
"1086 145 CURVE SMOOTH",
"856 145 LINE"
);
},
{
closed = 1;
nodes = (
"856 953 LINE",
"1086 953 LINE SMOOTH",
"1145 953 OFFCURVE",
"1156 933 OFFCURVE",
"1156 873 CURVE SMOOTH",
"1156 639 LINE",
"856 639 LINE"
);
}
);
width = 1512;
}
);
note = uni2C46;
unicode = 2C46;
},
{
glyphname = uni2C47;
lastChange = "2016-11-10 13:58:43 +0000";
layers = (
{
layerId = "7ECAB14D-022C-4526-8131-D22A8657820C";
paths = (
{
closed = 1;
nodes = (
"848 -342 LINE",
"848 -16 LINE",
"1189 11 OFFCURVE",
"1391 222 OFFCURVE",
"1391 549 CURVE SMOOTH",
"1391 869 OFFCURVE",
"1185 1081 OFFCURVE",
"848 1114 CURVE",
"848 1416 LINE",
"678 1416 LINE",
"678 1114 LINE",
"331 1087 OFFCURVE",
"130 882 OFFCURVE",
"130 549 CURVE SMOOTH",
"130 224 OFFCURVE",
"336 12 OFFCURVE",
"672 -16 CURVE",
"672 -342 LINE"
);
},
{
closed = 1;
nodes = (
"438 156 OFFCURVE",
"318 295 OFFCURVE",
"318 549 CURVE SMOOTH",
"318 797 OFFCURVE",
"427 940 OFFCURVE",
"678 965 CURVE",
"678 131 LINE"
);
},
{
closed = 1;
nodes = (
"848 963 LINE",
"1086 937 OFFCURVE",
"1205 799 OFFCURVE",
"1205 549 CURVE SMOOTH",
"1205 296 OFFCURVE",
"1086 157 OFFCURVE",
"848 131 CURVE"
);
}
);
width = 1521;
}
);
note = uni2C47;
unicode = 2C47;
},
{
glyphname = uni2C48;
lastChange = "2016-11-10 13:58:43 +0000";
layers = (
{
layerId = "7ECAB14D-022C-4526-8131-D22A8657820C";
paths = (
{
closed = 1;
nodes = (
"282 0 LINE",
"435 397 LINE",
"650 397 LINE",
"650 180 LINE SMOOTH",
"650 125 OFFCURVE",
"654 87 OFFCURVE",
"663 65 CURVE",
"679 20 OFFCURVE",
"715 0 OFFCURVE",
"788 0 CURVE SMOOTH",
"1292 0 LINE",
"1292 460 LINE SMOOTH",
"1292 515 OFFCURVE",
"1288 553 OFFCURVE",
"1280 576 CURVE SMOOTH",
"1263 620 OFFCURVE",
"1227 640 OFFCURVE",
"1154 640 CURVE SMOOTH",
"788 640 LINE SMOOTH",
"697 640 OFFCURVE",
"665 611 OFFCURVE",
"654 542 CURVE",
"491 542 LINE",
"705 1098 LINE",
"80 1098 LINE",
"80 953 LINE",
"483 953 LINE",
"116 0 LINE"
);
},
{
closed = 1;
nodes = (
"837 145 OFFCURVE",
"826 165 OFFCURVE",
"826 225 CURVE SMOOTH",
"826 415 LINE SMOOTH",
"826 475 OFFCURVE",
"837 495 OFFCURVE",
"896 495 CURVE SMOOTH",
"1046 495 LINE SMOOTH",
"1105 495 OFFCURVE",
"1116 475 OFFCURVE",
"1116 415 CURVE SMOOTH",
"1116 145 LINE",
"896 145 LINE SMOOTH"
);
}
);
width = 1432;
}
);
note = uni2C48;
unicode = 2C48;
},
{
glyphname = uni2C49;
lastChange = "2016-11-10 13:58:43 +0000";
layers = (
{
layerId = "7ECAB14D-022C-4526-8131-D22A8657820C";
paths = (
{
closed = 1;
nodes = (
"724 -210 LINE",
"724 -17 LINE",
"991 22 OFFCURVE",
"1145 227 OFFCURVE",
"1145 548 CURVE SMOOTH",
"1145 897 OFFCURVE",
"949 1115 OFFCURVE",
"640 1115 CURVE SMOOTH",
"317 1115 OFFCURVE",
"130 905 OFFCURVE",
"130 548 CURVE SMOOTH",
"130 235 OFFCURVE",
"287 24 OFFCURVE",
"546 -16 CURVE",
"546 -210 LINE"
);
},
{
closed = 1;
nodes = (
"588 104 OFFCURVE",
"549 143 OFFCURVE",
"549 190 CURVE SMOOTH",
"549 238 OFFCURVE",
"588 277 OFFCURVE",
"635 277 CURVE SMOOTH",
"683 277 OFFCURVE",
"722 238 OFFCURVE",
"722 190 CURVE SMOOTH",
"722 143 OFFCURVE",
"683 104 OFFCURVE",
"635 104 CURVE SMOOTH"
);
},
{
closed = 1;
nodes = (
"829 190 LINE",
"829 298 OFFCURVE",
"743 384 OFFCURVE",
"635 384 CURVE SMOOTH",
"524 384 OFFCURVE",
"441 294 OFFCURVE",
"441 190 CURVE",
"443 160 LINE",
"354 236 OFFCURVE",
"312 380 OFFCURVE",
"312 548 CURVE SMOOTH",
"312 727 OFFCURVE",
"360 865 OFFCURVE",
"444 934 CURVE",
"441 898 LINE",
"441 793 OFFCURVE",
"528 704 OFFCURVE",
"635 704 CURVE SMOOTH",
"739 704 OFFCURVE",
"829 787 OFFCURVE",
"829 898 CURVE SMOOTH",
"829 913 OFFCURVE",
"828 925 OFFCURVE",
"825 936 CURVE",
"913 868 OFFCURVE",
"963 727 OFFCURVE",
"963 548 CURVE SMOOTH",
"963 377 OFFCURVE",
"918 231 OFFCURVE",
"826 155 CURVE"
);
},
{
closed = 1;
nodes = (
"588 812 OFFCURVE",
"549 851 OFFCURVE",
"549 898 CURVE SMOOTH",
"549 946 OFFCURVE",
"588 985 OFFCURVE",
"635 985 CURVE SMOOTH",
"683 985 OFFCURVE",
"722 946 OFFCURVE",
"722 898 CURVE SMOOTH",
"722 851 OFFCURVE",
"683 812 OFFCURVE",
"635 812 CURVE SMOOTH"
);
}
);
width = 1275;
}
);
note = uni2C49;
unicode = 2C49;
},
{
glyphname = uni2C4A;
lastChange = "2016-11-10 13:58:43 +0000";
layers = (
{
layerId = "7ECAB14D-022C-4526-8131-D22A8657820C";
paths = (
{
closed = 1;
nodes = (
"644 0 LINE SMOOTH",
"716 0 OFFCURVE",
"753 19 OFFCURVE",
"770 64 CURVE SMOOTH",
"778 86 OFFCURVE",
"782 125 OFFCURVE",
"782 180 CURVE SMOOTH",
"782 853 LINE SMOOTH",
"782 894 OFFCURVE",
"784 919 OFFCURVE",
"789 928 CURVE",
"797 947 OFFCURVE",
"817 953 OFFCURVE",
"862 953 CURVE SMOOTH",
"1002 953 LINE SMOOTH",
"1050 953 OFFCURVE",
"1068 945 OFFCURVE",
"1076 925 CURVE SMOOTH",
"1080 914 OFFCURVE",
"1082 890 OFFCURVE",
"1082 853 CURVE SMOOTH",
"1082 0 LINE",
"1258 0 LINE",
"1258 898 LINE SMOOTH",
"1258 966 OFFCURVE",
"1253 1012 OFFCURVE",
"1244 1035 CURVE SMOOTH",
"1225 1081 OFFCURVE",
"1184 1098 OFFCURVE",
"1088 1098 CURVE SMOOTH",
"776 1098 LINE SMOOTH",
"684 1098 OFFCURVE",
"640 1084 OFFCURVE",
"621 1041 CURVE SMOOTH",
"611 1020 OFFCURVE",
"606 975 OFFCURVE",
"606 908 CURVE SMOOTH",
"606 640 LINE",
"278 640 LINE SMOOTH",
"206 640 OFFCURVE",
"169 621 OFFCURVE",
"153 577 CURVE SMOOTH",
"144 554 OFFCURVE",
"140 515 OFFCURVE",
"140 460 CURVE SMOOTH",
"140 180 LINE SMOOTH",
"140 125 OFFCURVE",
"144 87 OFFCURVE",
"153 65 CURVE",
"169 20 OFFCURVE",
"205 0 OFFCURVE",
"278 0 CURVE SMOOTH"
);
},
{
closed = 1;
nodes = (
"327 145 OFFCURVE",
"316 165 OFFCURVE",
"316 225 CURVE SMOOTH",
"316 415 LINE SMOOTH",
"316 475 OFFCURVE",
"327 495 OFFCURVE",
"386 495 CURVE SMOOTH",
"606 495 LINE",
"606 225 LINE SMOOTH",
"606 165 OFFCURVE",
"595 145 OFFCURVE",
"536 145 CURVE SMOOTH",
"386 145 LINE SMOOTH"
);
}
);
width = 1438;
}
);
note = uni2C4A;
unicode = 2C4A;
},
{
glyphname = uni2C4B;
lastChange = "2016-11-10 13:58:43 +0000";
layers = (
{
layerId = "7ECAB14D-022C-4526-8131-D22A8657820C";
paths = (
{
closed = 1;
nodes = (
"1048 0 LINE",
"1048 278 LINE SMOOTH",
"1048 362 OFFCURVE",
"1030 434 OFFCURVE",
"993 495 CURVE",
"1170 495 LINE SMOOTH",
"1243 495 OFFCURVE",
"1279 513 OFFCURVE",
"1296 557 CURVE SMOOTH",
"1304 578 OFFCURVE",
"1308 618 OFFCURVE",
"1308 675 CURVE SMOOTH",
"1308 1098 LINE",
"1132 1098 LINE",
"1132 720 LINE SMOOTH",
"1132 660 OFFCURVE",
"1122 640 OFFCURVE",
"1062 640 CURVE SMOOTH",
"812 640 LINE",
"812 1098 LINE",
"636 1098 LINE",
"636 640 LINE",
"386 640 LINE SMOOTH",
"326 640 OFFCURVE",
"316 660 OFFCURVE",
"316 720 CURVE SMOOTH",
"316 1098 LINE",
"140 1098 LINE",
"140 675 LINE SMOOTH",
"140 617 OFFCURVE",
"144 577 OFFCURVE",
"153 556 CURVE",
"169 513 OFFCURVE",
"205 495 OFFCURVE",
"278 495 CURVE SMOOTH",
"447 495 LINE",
"416 437 OFFCURVE",
"400 365 OFFCURVE",
"400 280 CURVE SMOOTH",
"400 0 LINE"
);
},
{
closed = 1;
nodes = (
"576 279 LINE SMOOTH",
"576 444 OFFCURVE",
"621 493 OFFCURVE",
"725 493 CURVE SMOOTH",
"801 493 OFFCURVE",
"839 468 OFFCURVE",
"858 415 CURVE SMOOTH",
"867 388 OFFCURVE",
"872 343 OFFCURVE",
"872 280 CURVE SMOOTH",
"872 145 LINE",
"576 145 LINE"
);
}
);
width = 1448;
}
);
note = uni2C4B;
unicode = 2C4B;
},
{
glyphname = uni2C4C;
lastChange = "2016-11-10 13:58:43 +0000";
layers = (
{
layerId = "7ECAB14D-022C-4526-8131-D22A8657820C";
paths = (
{
closed = 1;
nodes = (
"979 0 LINE SMOOTH",
"1052 0 OFFCURVE",
"1082 11 OFFCURVE",
"1100 40 CURVE SMOOTH",
"1109 55 OFFCURVE",
"1118 90 OFFCURVE",
"1127 147 CURVE SMOOTH",
"1270 1098 LINE",
"1101 1098 LINE",
"964 211 LINE SMOOTH",
"956 160 OFFCURVE",
"947 145 OFFCURVE",
"914 145 CURVE SMOOTH",
"881 145 OFFCURVE",
"873 158 OFFCURVE",
"865 211 CURVE SMOOTH",
"753 951 LINE SMOOTH",
"740 1046 OFFCURVE",
"722 1074 OFFCURVE",
"676 1088 CURVE SMOOTH",
"653 1095 OFFCURVE",
"615 1098 OFFCURVE",
"562 1098 CURVE SMOOTH",
"319 1098 LINE SMOOTH",
"186 1098 OFFCURVE",
"120 1040 OFFCURVE",
"120 884 CURVE SMOOTH",
"120 664 OFFCURVE",
"329 512 OFFCURVE",
"649 501 CURVE",
"702 147 LINE SMOOTH",
"709 95 OFFCURVE",
"718 61 OFFCURVE",
"727 44 CURVE",
"746 11 OFFCURVE",
"775 0 OFFCURVE",
"850 0 CURVE SMOOTH"
);
},
{
closed = 1;
nodes = (
"408 654 OFFCURVE",
"294 731 OFFCURVE",
"294 860 CURVE SMOOTH",
"294 931 OFFCURVE",
"311 953 OFFCURVE",
"356 953 CURVE SMOOTH",
"531 953 LINE SMOOTH",
"571 953 OFFCURVE",
"583 928 OFFCURVE",
"590 887 CURVE SMOOTH",
"628 642 LINE"
);
}
);
width = 1370;
}
);
note = uni2C4C;
unicode = 2C4C;
},
{
glyphname = uni2C4D;
lastChange = "2016-11-10 13:58:43 +0000";
layers = (
{
layerId = "7ECAB14D-022C-4526-8131-D22A8657820C";
paths = (
{
closed = 1;
nodes = (
"1038 0 LINE",
"1038 278 LINE SMOOTH",
"1038 362 OFFCURVE",
"1020 434 OFFCURVE",
"983 495 CURVE",
"1350 495 LINE",
"1119 1098 LINE",
"970 1098 LINE",
"1027 937 LINE",
"402 937 LINE",
"460 1098 LINE",
"311 1098 LINE",
"80 495 LINE",
"437 495 LINE",
"406 437 OFFCURVE",
"390 365 OFFCURVE",
"390 280 CURVE SMOOTH",
"390 0 LINE"
);
},
{
closed = 1;
nodes = (
"566 279 LINE SMOOTH",
"566 444 OFFCURVE",
"611 493 OFFCURVE",
"715 493 CURVE SMOOTH",
"791 493 OFFCURVE",
"829 468 OFFCURVE",
"848 415 CURVE SMOOTH",
"857 388 OFFCURVE",
"862 343 OFFCURVE",
"862 280 CURVE SMOOTH",
"862 145 LINE",
"566 145 LINE"
);
},
{
closed = 1;
nodes = (
"354 802 LINE",
"636 802 LINE",
"636 640 LINE",
"297 640 LINE"
);
},
{
closed = 1;
nodes = (
"792 802 LINE",
"1075 802 LINE",
"1133 640 LINE",
"792 640 LINE"
);
}
);
width = 1430;
}
);
note = uni2C4D;
unicode = 2C4D;
},
{
glyphname = uni2C4E;
lastChange = "2016-11-10 13:58:43 +0000";
layers = (
{
layerId = "7ECAB14D-022C-4526-8131-D22A8657820C";
paths = (
{
closed = 1;
nodes = (
"1210 0 LINE SMOOTH",
"1283 0 OFFCURVE",
"1319 18 OFFCURVE",
"1336 62 CURVE SMOOTH",
"1344 83 OFFCURVE",
"1348 123 OFFCURVE",
"1348 180 CURVE SMOOTH",
"1348 1098 LINE",
"1172 1098 LINE",
"1172 225 LINE SMOOTH",
"1172 165 OFFCURVE",
"1162 145 OFFCURVE",
"1102 145 CURVE SMOOTH",
"852 145 LINE",
"852 1098 LINE",
"676 1098 LINE",
"676 145 LINE",
"426 145 LINE SMOOTH",
"366 145 OFFCURVE",
"356 165 OFFCURVE",
"356 225 CURVE SMOOTH",
"356 1098 LINE",
"180 1098 LINE",
"180 180 LINE SMOOTH",
"180 122 OFFCURVE",
"184 82 OFFCURVE",
"193 61 CURVE",
"209 18 OFFCURVE",
"245 0 OFFCURVE",
"318 0 CURVE SMOOTH"
);
}
);
width = 1528;
}
);
note = uni2C4E;
unicode = 2C4E;
},
{
glyphname = uni2C4F;
lastChange = "2016-11-10 13:58:43 +0000";
layers = (
{
layerId = "7ECAB14D-022C-4526-8131-D22A8657820C";
paths = (
{
closed = 1;
nodes = (
"1149 0 LINE",
"1149 265 LINE SMOOTH",
"1149 393 OFFCURVE",
"1114 490 OFFCURVE",
"1043 556 CURVE",
"1114 622 OFFCURVE",
"1149 719 OFFCURVE",
"1149 848 CURVE SMOOTH",
"1149 1098 LINE",
"501 1098 LINE",
"501 846 LINE SMOOTH",
"501 763 OFFCURVE",
"513 694 OFFCURVE",
"537 640 CURVE",
"261 640 LINE SMOOTH",
"158 640 OFFCURVE",
"80 555 OFFCURVE",
"80 459 CURVE SMOOTH",
"80 359 OFFCURVE",
"162 276 OFFCURVE",
"261 276 CURVE SMOOTH",
"364 276 OFFCURVE",
"444 358 OFFCURVE",
"444 459 CURVE SMOOTH",
"444 477 OFFCURVE",
"441 495 OFFCURVE",
"436 513 CURVE",
"559 513 LINE",
"520 456 OFFCURVE",
"501 374 OFFCURVE",
"501 267 CURVE SMOOTH",
"501 0 LINE"
);
},
{
closed = 1;
nodes = (
"217 379 OFFCURVE",
"183 414 OFFCURVE",
"183 459 CURVE SMOOTH",
"183 502 OFFCURVE",
"215 537 OFFCURVE",
"258 537 CURVE SMOOTH",
"309 537 OFFCURVE",
"341 502 OFFCURVE",
"341 459 CURVE SMOOTH",
"341 414 OFFCURVE",
"308 379 OFFCURVE",
"261 379 CURVE SMOOTH"
);
},
{
closed = 1;
nodes = (
"677 256 LINE SMOOTH",
"677 317 OFFCURVE",
"682 363 OFFCURVE",
"692 393 CURVE SMOOTH",
"711 453 OFFCURVE",
"753 483 OFFCURVE",
"826 483 CURVE SMOOTH",
"903 483 OFFCURVE",
"942 456 OFFCURVE",
"960 400 CURVE SMOOTH",
"969 372 OFFCURVE",
"973 324 OFFCURVE",
"973 257 CURVE SMOOTH",
"973 145 LINE",
"677 145 LINE"
);
},
{
closed = 1;
nodes = (
"789 630 OFFCURVE",
"760 638 OFFCURVE",
"739 653 CURVE SMOOTH",
"695 683 OFFCURVE",
"677 733 OFFCURVE",
"677 857 CURVE SMOOTH",
"677 953 LINE",
"973 953 LINE",
"973 856 LINE SMOOTH",
"973 788 OFFCURVE",
"968 740 OFFCURVE",
"959 712 CURVE SMOOTH",
"940 656 OFFCURVE",
"901 630 OFFCURVE",
"826 630 CURVE SMOOTH"
);
}
);
width = 1309;
}
);
note = uni2C4F;
unicode = 2C4F;
},
{
glyphname = uni2C50;
lastChange = "2016-11-10 13:58:43 +0000";
layers = (
{
layerId = "7ECAB14D-022C-4526-8131-D22A8657820C";
paths = (
{
closed = 1;
nodes = (
"1095 0 LINE",
"1095 265 LINE SMOOTH",
"1095 393 OFFCURVE",
"1060 490 OFFCURVE",
"989 556 CURVE",
"1060 622 OFFCURVE",
"1095 719 OFFCURVE",
"1095 848 CURVE SMOOTH",
"1095 1098 LINE",
"447 1098 LINE",
"447 846 LINE SMOOTH",
"447 763 OFFCURVE",
"459 694 OFFCURVE",
"483 640 CURVE",
"217 640 LINE SMOOTH",
"141 640 OFFCURVE",
"80 564 OFFCURVE",
"80 477 CURVE SMOOTH",
"80 386 OFFCURVE",
"146 314 OFFCURVE",
"225 314 CURVE SMOOTH",
"305 314 OFFCURVE",
"369 388 OFFCURVE",
"369 477 CURVE",
"365 513 LINE",
"505 513 LINE",
"466 456 OFFCURVE",
"447 374 OFFCURVE",
"447 267 CURVE SMOOTH",
"447 0 LINE"
);
},
{
closed = 1;
nodes = (
"623 256 LINE SMOOTH",
"623 317 OFFCURVE",
"628 363 OFFCURVE",
"638 393 CURVE SMOOTH",
"657 453 OFFCURVE",
"699 483 OFFCURVE",
"772 483 CURVE SMOOTH",
"849 483 OFFCURVE",
"888 456 OFFCURVE",
"906 400 CURVE SMOOTH",
"915 372 OFFCURVE",
"919 324 OFFCURVE",
"919 257 CURVE SMOOTH",
"919 145 LINE",
"623 145 LINE"
);
},
{
closed = 1;
nodes = (
"735 630 OFFCURVE",
"706 638 OFFCURVE",
"685 653 CURVE SMOOTH",
"641 683 OFFCURVE",
"623 733 OFFCURVE",
"623 857 CURVE SMOOTH",
"623 953 LINE",
"919 953 LINE",
"919 856 LINE SMOOTH",
"919 788 OFFCURVE",
"914 740 OFFCURVE",
"905 712 CURVE SMOOTH",
"886 656 OFFCURVE",
"847 630 OFFCURVE",
"772 630 CURVE SMOOTH"
);
}
);
width = 1255;
}
);
note = uni2C50;
unicode = 2C50;
},
{
glyphname = uni2C51;
lastChange = "2016-11-10 13:58:43 +0000";
layers = (
{
layerId = "7ECAB14D-022C-4526-8131-D22A8657820C";
paths = (
{
closed = 1;
nodes = (
"1398 0 LINE",
"930 1007 LINE SMOOTH",
"903 1063 OFFCURVE",
"880 1097 OFFCURVE",
"827 1097 CURVE SMOOTH",
"651 1097 LINE SMOOTH",
"598 1097 OFFCURVE",
"575 1063 OFFCURVE",
"548 1007 CURVE SMOOTH",
"80 0 LINE"
);
},
{
closed = 1;
nodes = (
"460 459 LINE",
"661 459 LINE",
"661 145 LINE",
"314 145 LINE"
);
},
{
closed = 1;
nodes = (
"817 459 LINE",
"1017 459 LINE",
"1163 145 LINE",
"817 145 LINE"
);
},
{
closed = 1;
nodes = (
"676 923 LINE SMOOTH",
"692 958 OFFCURVE",
"705 976 OFFCURVE",
"716 976 CURVE SMOOTH",
"762 976 LINE SMOOTH",
"773 976 OFFCURVE",
"786 958 OFFCURVE",
"802 923 CURVE SMOOTH",
"955 594 LINE",
"523 594 LINE"
);
}
);
width = 1478;
}
);
note = uni2C51;
unicode = 2C51;
},
{
glyphname = uni2C52;
lastChange = "2016-11-10 13:58:43 +0000";
layers = (
{
layerId = "7ECAB14D-022C-4526-8131-D22A8657820C";
paths = (
{
closed = 1;
nodes = (
"819 -60 LINE",
"819 79 LINE",
"854 92 OFFCURVE",
"888 109 OFFCURVE",
"919 131 CURVE",
"919 -60 LINE",
"1059 -60 LINE",
"1059 301 LINE",
"1091 372 OFFCURVE",
"1107 451 OFFCURVE",
"1107 540 CURVE SMOOTH",
"1107 840 OFFCURVE",
"910 1035 OFFCURVE",
"621 1035 CURVE SMOOTH",
"602 1035 OFFCURVE",
"576 1033 OFFCURVE",
"544 1030 CURVE",
"544 1135 LINE",
"404 1135 LINE",
"404 996 LINE",
"368 981 OFFCURVE",
"335 962 OFFCURVE",
"304 939 CURVE",
"304 1135 LINE",
"164 1135 LINE",
"164 746 LINE",
"141 686 OFFCURVE",
"130 617 OFFCURVE",
"130 540 CURVE SMOOTH",
"130 244 OFFCURVE",
"325 45 OFFCURVE",
"614 45 CURVE",
"679 48 LINE",
"679 -60 LINE"
);
},
{
closed = 1;
nodes = (
"428 192 OFFCURVE",
"314 329 OFFCURVE",
"314 540 CURVE SMOOTH",
"314 753 OFFCURVE",
"427 886 OFFCURVE",
"616 886 CURVE SMOOTH",
"817 886 OFFCURVE",
"924 767 OFFCURVE",
"924 540 CURVE SMOOTH",
"924 315 OFFCURVE",
"818 192 OFFCURVE",
"619 192 CURVE SMOOTH"
);
}
);
width = 1237;
}
);
note = uni2C52;
unicode = 2C52;
},
{
glyphname = uni2C53;
lastChange = "2016-11-10 13:58:43 +0000";
layers = (
{
layerId = "7ECAB14D-022C-4526-8131-D22A8657820C";
paths = (
{
closed = 1;
nodes = (
"1274 205 LINE SMOOTH",
"1301 214 OFFCURVE",
"1320 232 OFFCURVE",
"1331 260 CURVE SMOOTH",
"1342 287 OFFCURVE",
"1348 344 OFFCURVE",
"1348 429 CURVE SMOOTH",
"1348 918 LINE SMOOTH",
"1348 974 OFFCURVE",
"1344 1013 OFFCURVE",
"1336 1035 CURVE SMOOTH",
"1320 1079 OFFCURVE",
"1283 1098 OFFCURVE",
"1210 1098 CURVE SMOOTH",
"318 1098 LINE SMOOTH",
"247 1098 OFFCURVE",
"209 1080 OFFCURVE",
"193 1037 CURVE SMOOTH",
"184 1015 OFFCURVE",
"180 975 OFFCURVE",
"180 918 CURVE SMOOTH",
"180 -140 LINE"
);
},
{
closed = 1;
nodes = (
"356 873 LINE SMOOTH",
"356 933 OFFCURVE",
"366 953 OFFCURVE",
"426 953 CURVE SMOOTH",
"676 953 LINE",
"676 168 LINE",
"356 67 LINE"
);
},
{
closed = 1;
nodes = (
"852 953 LINE",
"1102 953 LINE SMOOTH",
"1162 953 OFFCURVE",
"1172 933 OFFCURVE",
"1172 873 CURVE SMOOTH",
"1172 402 LINE SMOOTH",
"1172 353 OFFCURVE",
"1163 322 OFFCURVE",
"1116 307 CURVE SMOOTH",
"852 223 LINE"
);
}
);
width = 1528;
}
);
note = uni2C53;
unicode = 2C53;
},
{
glyphname = uni2C54;
lastChange = "2016-11-10 13:58:43 +0000";
layers = (
{
layerId = "7ECAB14D-022C-4526-8131-D22A8657820C";
paths = (
{
closed = 1;
nodes = (
"898 -20 OFFCURVE",
"995 0 OFFCURVE",
"1076 39 CURVE",
"1076 195 LINE",
"973 154 OFFCURVE",
"875 133 OFFCURVE",
"781 133 CURVE SMOOTH",
"557 133 OFFCURVE",
"437 254 OFFCURVE",
"422 495 CURVE",
"963 495 LINE",
"963 640 LINE",
"424 640 LINE",
"443 864 OFFCURVE",
"548 963 OFFCURVE",
"756 963 CURVE SMOOTH",
"826 963 OFFCURVE",
"911 945 OFFCURVE",
"1012 909 CURVE",
"1063 1055 LINE",
"974 1094 OFFCURVE",
"858 1118 OFFCURVE",
"758 1118 CURVE SMOOTH",
"447 1118 OFFCURVE",
"267 953 OFFCURVE",
"240 640 CURVE",
"40 640 LINE",
"40 495 LINE",
"237 495 LINE",
"257 164 OFFCURVE",
"456 -20 OFFCURVE",
"785 -20 CURVE SMOOTH"
);
}
);
width = 1156;
}
);
note = uni2C54;
unicode = 2C54;
},
{
glyphname = uni2C55;
lastChange = "2016-11-10 13:58:43 +0000";
layers = (
{
layerId = "7ECAB14D-022C-4526-8131-D22A8657820C";
paths = (
{
closed = 1;
nodes = (
"1101 -20 OFFCURVE",
"1198 0 OFFCURVE",
"1279 39 CURVE",
"1279 195 LINE",
"1176 154 OFFCURVE",
"1078 133 OFFCURVE",
"984 133 CURVE SMOOTH",
"760 133 OFFCURVE",
"640 254 OFFCURVE",
"625 495 CURVE",
"1166 495 LINE",
"1166 640 LINE",
"627 640 LINE",
"646 864 OFFCURVE",
"751 963 OFFCURVE",
"959 963 CURVE SMOOTH",
"1029 963 OFFCURVE",
"1114 945 OFFCURVE",
"1215 909 CURVE",
"1266 1055 LINE",
"1177 1094 OFFCURVE",
"1061 1118 OFFCURVE",
"961 1118 CURVE SMOOTH",
"650 1118 OFFCURVE",
"470 953 OFFCURVE",
"443 640 CURVE",
"205 640 LINE SMOOTH",
"126 640 OFFCURVE",
"60 569 OFFCURVE",
"60 477 CURVE SMOOTH",
"60 386 OFFCURVE",
"126 314 OFFCURVE",
"205 314 CURVE SMOOTH",
"285 314 OFFCURVE",
"349 388 OFFCURVE",
"349 477 CURVE",
"348 495 LINE",
"440 495 LINE",
"460 164 OFFCURVE",
"659 -20 OFFCURVE",
"988 -20 CURVE SMOOTH"
);
}
);
width = 1359;
}
);
note = uni2C55;
unicode = 2C55;
},
{
glyphname = uni2C56;
lastChange = "2016-11-10 13:58:43 +0000";
layers = (
{
layerId = "7ECAB14D-022C-4526-8131-D22A8657820C";
paths = (
{
closed = 1;
nodes = (
"1063 0 LINE",
"1063 265 LINE SMOOTH",
"1063 357 OFFCURVE",
"1044 434 OFFCURVE",
"1007 495 CURVE",
"1398 495 LINE",
"1098 1098 LINE",
"360 1098 LINE",
"80 495 LINE",
"462 495 LINE",
"431 439 OFFCURVE",
"415 363 OFFCURVE",
"415 267 CURVE SMOOTH",
"415 0 LINE"
);
},
{
closed = 1;
nodes = (
"591 256 LINE SMOOTH",
"591 317 OFFCURVE",
"596 363 OFFCURVE",
"606 393 CURVE SMOOTH",
"625 453 OFFCURVE",
"667 483 OFFCURVE",
"740 483 CURVE SMOOTH",
"817 483 OFFCURVE",
"856 456 OFFCURVE",
"874 400 CURVE SMOOTH",
"883 372 OFFCURVE",
"887 324 OFFCURVE",
"887 257 CURVE SMOOTH",
"887 145 LINE",
"591 145 LINE"
);
},
{
closed = 1;
nodes = (
"458 953 LINE",
"661 953 LINE",
"661 640 LINE",
"314 640 LINE"
);
},
{
closed = 1;
nodes = (
"817 953 LINE",
"1001 953 LINE",
"1158 640 LINE",
"817 640 LINE"
);
}
);
width = 1478;
}
);
note = uni2C56;
unicode = 2C56;
},
{
glyphname = uni2C57;
lastChange = "2016-11-10 13:58:43 +0000";
layers = (
{
layerId = "7ECAB14D-022C-4526-8131-D22A8657820C";
paths = (
{
closed = 1;
nodes = (
"544 -20 OFFCURVE",
"691 163 OFFCURVE",
"706 495 CURVE",
"900 495 LINE",
"915 163 OFFCURVE",
"1060 -20 OFFCURVE",
"1317 -20 CURVE SMOOTH",
"1402 -20 OFFCURVE",
"1472 -9 OFFCURVE",
"1525 13 CURVE",
"1525 169 LINE",
"1467 145 OFFCURVE",
"1401 133 OFFCURVE",
"1327 133 CURVE SMOOTH",
"1184 133 OFFCURVE",
"1100 264 OFFCURVE",
"1089 495 CURVE",
"1439 495 LINE",
"1439 640 LINE",
"1089 640 LINE",
"1101 855 OFFCURVE",
"1182 963 OFFCURVE",
"1333 963 CURVE SMOOTH",
"1386 963 OFFCURVE",
"1453 950 OFFCURVE",
"1489 934 CURVE",
"1526 1088 LINE",
"1460 1108 OFFCURVE",
"1386 1118 OFFCURVE",
"1304 1118 CURVE SMOOTH",
"1061 1118 OFFCURVE",
"925 959 OFFCURVE",
"902 640 CURVE",
"704 640 LINE",
"683 956 OFFCURVE",
"546 1118 OFFCURVE",
"302 1118 CURVE SMOOTH",
"220 1118 OFFCURVE",
"146 1108 OFFCURVE",
"80 1088 CURVE",
"117 934 LINE",
"158 951 OFFCURVE",
"221 963 OFFCURVE",
"273 963 CURVE SMOOTH",
"420 963 OFFCURVE",
"500 869 OFFCURVE",
"516 640 CURVE",
"167 640 LINE",
"167 495 LINE",
"517 495 LINE",
"502 255 OFFCURVE",
"419 133 OFFCURVE",
"279 133 CURVE SMOOTH",
"218 133 OFFCURVE",
"164 137 OFFCURVE",
"81 169 CURVE",
"81 13 LINE",
"134 -9 OFFCURVE",
"204 -20 OFFCURVE",
"289 -20 CURVE SMOOTH"
);
}
);
width = 1606;
}
);
note = uni2C57;
unicode = 2C57;
},
{
glyphname = uni2C58;
lastChange = "2016-11-10 13:58:43 +0000";
layers = (
{
layerId = "7ECAB14D-022C-4526-8131-D22A8657820C";
paths = (
{
closed = 1;
nodes = (
"1542 -20 OFFCURVE",
"1612 -9 OFFCURVE",
"1665 13 CURVE",
"1665 169 LINE",
"1607 145 OFFCURVE",
"1541 133 OFFCURVE",
"1467 133 CURVE SMOOTH",
"1324 133 OFFCURVE",
"1240 264 OFFCURVE",
"1229 495 CURVE",
"1579 495 LINE",
"1579 640 LINE",
"1229 640 LINE",
"1241 855 OFFCURVE",
"1322 963 OFFCURVE",
"1473 963 CURVE SMOOTH",
"1526 963 OFFCURVE",
"1593 950 OFFCURVE",
"1629 934 CURVE",
"1666 1088 LINE",
"1600 1108 OFFCURVE",
"1526 1118 OFFCURVE",
"1444 1118 CURVE SMOOTH",
"1201 1118 OFFCURVE",
"1065 959 OFFCURVE",
"1042 640 CURVE",
"856 640 LINE",
"856 951 LINE SMOOTH",
"856 1002 OFFCURVE",
"852 1036 OFFCURVE",
"844 1053 CURVE",
"835 1070 OFFCURVE",
"820 1081 OFFCURVE",
"798 1088 CURVE SMOOTH",
"776 1095 OFFCURVE",
"742 1098 OFFCURVE",
"695 1098 CURVE SMOOTH",
"339 1098 LINE SMOOTH",
"220 1098 OFFCURVE",
"160 1027 OFFCURVE",
"160 884 CURVE SMOOTH",
"160 737 OFFCURVE",
"254 627 OFFCURVE",
"402 563 CURVE",
"250 484 OFFCURVE",
"160 357 OFFCURVE",
"160 214 CURVE SMOOTH",
"160 57 OFFCURVE",
"227 0 OFFCURVE",
"359 0 CURVE SMOOTH",
"675 0 LINE SMOOTH",
"734 0 OFFCURVE",
"775 4 OFFCURVE",
"797 12 CURVE SMOOTH",
"840 27 OFFCURVE",
"856 58 OFFCURVE",
"856 147 CURVE SMOOTH",
"856 495 LINE",
"1040 495 LINE",
"1055 163 OFFCURVE",
"1200 -20 OFFCURVE",
"1457 -20 CURVE SMOOTH"
);
},
{
closed = 1;
nodes = (
"349 145 OFFCURVE",
"334 169 OFFCURVE",
"334 238 CURVE SMOOTH",
"334 378 OFFCURVE",
"473 483 OFFCURVE",
"680 498 CURVE",
"680 211 LINE SMOOTH",
"680 170 OFFCURVE",
"671 145 OFFCURVE",
"631 145 CURVE SMOOTH",
"396 145 LINE SMOOTH"
);
},
{
closed = 1;
nodes = (
"448 651 OFFCURVE",
"334 728 OFFCURVE",
"334 860 CURVE SMOOTH",
"334 891 OFFCURVE",
"337 911 OFFCURVE",
"342 922 CURVE",
"353 942 OFFCURVE",
"375 953 OFFCURVE",
"420 953 CURVE SMOOTH",
"623 953 LINE SMOOTH",
"672 953 OFFCURVE",
"680 928 OFFCURVE",
"680 887 CURVE SMOOTH",
"680 640 LINE"
);
}
);
width = 1746;
}
);
note = uni2C58;
unicode = 2C58;
},
{
glyphname = uni2C59;
lastChange = "2016-11-10 13:58:43 +0000";
layers = (
{
layerId = "7ECAB14D-022C-4526-8131-D22A8657820C";
paths = (
{
closed = 1;
nodes = (
"1922 -20 OFFCURVE",
"1992 -9 OFFCURVE",
"2045 13 CURVE",
"2045 169 LINE",
"1987 145 OFFCURVE",
"1921 133 OFFCURVE",
"1847 133 CURVE SMOOTH",
"1704 133 OFFCURVE",
"1620 264 OFFCURVE",
"1609 495 CURVE",
"1959 495 LINE",
"1959 640 LINE",
"1609 640 LINE",
"1621 855 OFFCURVE",
"1702 963 OFFCURVE",
"1853 963 CURVE SMOOTH",
"1906 963 OFFCURVE",
"1973 950 OFFCURVE",
"2009 934 CURVE",
"2046 1088 LINE",
"1980 1108 OFFCURVE",
"1906 1118 OFFCURVE",
"1824 1118 CURVE SMOOTH",
"1581 1118 OFFCURVE",
"1445 959 OFFCURVE",
"1422 640 CURVE",
"1326 640 LINE",
"1098 1098 LINE",
"360 1098 LINE",
"80 495 LINE",
"462 495 LINE",
"431 439 OFFCURVE",
"415 363 OFFCURVE",
"415 267 CURVE SMOOTH",
"415 0 LINE",
"1063 0 LINE",
"1063 265 LINE SMOOTH",
"1063 357 OFFCURVE",
"1044 434 OFFCURVE",
"1007 495 CURVE",
"1420 495 LINE",
"1435 163 OFFCURVE",
"1580 -20 OFFCURVE",
"1837 -20 CURVE SMOOTH"
);
},
{
closed = 1;
nodes = (
"591 256 LINE SMOOTH",
"591 317 OFFCURVE",
"596 363 OFFCURVE",
"606 393 CURVE SMOOTH",
"625 453 OFFCURVE",
"667 483 OFFCURVE",
"740 483 CURVE SMOOTH",
"817 483 OFFCURVE",
"856 456 OFFCURVE",
"874 400 CURVE SMOOTH",
"883 372 OFFCURVE",
"887 324 OFFCURVE",
"887 257 CURVE SMOOTH",
"887 145 LINE",
"591 145 LINE"
);
},
{
closed = 1;
nodes = (
"458 953 LINE",
"661 953 LINE",
"661 640 LINE",
"314 640 LINE"
);
},
{
closed = 1;
nodes = (
"817 953 LINE",
"1001 953 LINE",
"1158 640 LINE",
"817 640 LINE"
);
}
);
width = 2126;
}
);
note = uni2C59;
unicode = 2C59;
},
{
glyphname = uni2C5A;
lastChange = "2016-11-10 13:58:43 +0000";
layers = (
{
layerId = "7ECAB14D-022C-4526-8131-D22A8657820C";
paths = (
{
closed = 1;
nodes = (
"1093 -20 OFFCURVE",
"1266 171 OFFCURVE",
"1282 495 CURVE",
"1319 495 LINE SMOOTH",
"1379 495 OFFCURVE",
"1389 474 OFFCURVE",
"1389 425 CURVE SMOOTH",
"1389 386 LINE",
"1533 386 LINE",
"1533 517 LINE SMOOTH",
"1533 614 OFFCURVE",
"1512 640 OFFCURVE",
"1403 640 CURVE SMOOTH",
"1280 640 LINE",
"1252 939 OFFCURVE",
"1079 1118 OFFCURVE",
"819 1118 CURVE SMOOTH",
"547 1118 OFFCURVE",
"380 945 OFFCURVE",
"353 640 CURVE",
"230 640 LINE SMOOTH",
"121 640 OFFCURVE",
"100 614 OFFCURVE",
"100 517 CURVE SMOOTH",
"100 386 LINE",
"244 386 LINE",
"244 425 LINE SMOOTH",
"244 474 OFFCURVE",
"254 495 OFFCURVE",
"314 495 CURVE SMOOTH",
"350 495 LINE",
"369 174 OFFCURVE",
"547 -20 OFFCURVE",
"812 -20 CURVE SMOOTH"
);
},
{
closed = 1;
nodes = (
"641 129 OFFCURVE",
"547 251 OFFCURVE",
"536 495 CURVE",
"1096 495 LINE",
"1085 251 OFFCURVE",
"992 129 OFFCURVE",
"817 129 CURVE SMOOTH"
);
},
{
closed = 1;
nodes = (
"555 858 OFFCURVE",
"647 967 OFFCURVE",
"814 967 CURVE SMOOTH",
"984 967 OFFCURVE",
"1077 858 OFFCURVE",
"1094 640 CURVE",
"538 640 LINE"
);
}
);
width = 1633;
}
);
note = uni2C5A;
unicode = 2C5A;
},
{
glyphname = uni2C5B;
lastChange = "2016-11-10 13:58:43 +0000";
layers = (
{
layerId = "7ECAB14D-022C-4526-8131-D22A8657820C";
paths = (
{
closed = 1;
nodes = (
"738 0 LINE",
"738 94 LINE SMOOTH",
"738 245 OFFCURVE",
"709 333 OFFCURVE",
"650 389 CURVE",
"699 436 OFFCURVE",
"720 498 OFFCURVE",
"720 549 CURVE SMOOTH",
"720 600 OFFCURVE",
"698 660 OFFCURVE",
"649 707 CURVE",
"708 764 OFFCURVE",
"738 863 OFFCURVE",
"738 1004 CURVE SMOOTH",
"738 1098 LINE",
"160 1098 LINE",
"160 1002 LINE SMOOTH",
"160 826 OFFCURVE",
"184 756 OFFCURVE",
"239 705 CURVE",
"198 665 OFFCURVE",
"177 613 OFFCURVE",
"177 549 CURVE SMOOTH",
"177 484 OFFCURVE",
"198 432 OFFCURVE",
"240 391 CURVE",
"185 339 OFFCURVE",
"160 267 OFFCURVE",
"160 96 CURVE SMOOTH",
"160 0 LINE"
);
},
{
closed = 1;
nodes = (
"327 275 OFFCURVE",
"365 317 OFFCURVE",
"450 317 CURVE SMOOTH",
"511 317 OFFCURVE",
"543 295 OFFCURVE",
"559 251 CURVE",
"566 228 OFFCURVE",
"570 190 OFFCURVE",
"570 135 CURVE",
"327 135 LINE"
);
},
{
closed = 1;
nodes = (
"381 457 OFFCURVE",
"339 495 OFFCURVE",
"339 548 CURVE SMOOTH",
"339 601 OFFCURVE",
"381 640 OFFCURVE",
"448 640 CURVE SMOOTH",
"513 640 OFFCURVE",
"558 604 OFFCURVE",
"558 548 CURVE SMOOTH",
"558 492 OFFCURVE",
"513 457 OFFCURVE",
"448 457 CURVE SMOOTH"
);
},
{
closed = 1;
nodes = (
"365 781 OFFCURVE",
"327 823 OFFCURVE",
"327 963 CURVE",
"570 963 LINE",
"570 908 OFFCURVE",
"566 869 OFFCURVE",
"559 847 CURVE",
"543 803 OFFCURVE",
"511 781 OFFCURVE",
"450 781 CURVE SMOOTH"
);
},
{
closed = 1;
nodes = (
"929 495 LINE",
"929 640 LINE",
"656 640 LINE",
"656 495 LINE"
);
}
);
width = 989;
}
);
note = uni2C5B;
unicode = 2C5B;
},
{
glyphname = uni2C5C;
lastChange = "2016-11-10 13:58:43 +0000";
layers = (
{
layerId = "7ECAB14D-022C-4526-8131-D22A8657820C";
paths = (
{
closed = 1;
nodes = (
"438 0 LINE",
"438 1098 LINE",
"80 1098 LINE",
"80 953 LINE",
"262 953 LINE",
"262 0 LINE"
);
}
);
width = 638;
}
);
note = uni2C5C;
unicode = 2C5C;
},
{
glyphname = uni2C5D;
lastChange = "2016-11-10 13:58:43 +0000";
layers = (
{
layerId = "7ECAB14D-022C-4526-8131-D22A8657820C";
paths = (
{
closed = 1;
nodes = (
"1118 0 LINE",
"1118 1098 LINE",
"942 1098 LINE",
"942 667 LINE",
"140 1042 LINE",
"140 55 LINE",
"942 423 LINE",
"942 0 LINE"
);
},
{
closed = 1;
nodes = (
"300 475 LINE",
"770 475 LINE",
"300 288 LINE"
);
},
{
closed = 1;
nodes = (
"300 809 LINE",
"770 613 LINE",
"300 613 LINE"
);
}
);
width = 1318;
}
);
note = uni2C5D;
unicode = 2C5D;
},
{
glyphname = uni2C5E;
lastChange = "2016-11-10 13:58:43 +0000";
layers = (
{
layerId = "7ECAB14D-022C-4526-8131-D22A8657820C";
paths = (
{
closed = 1;
nodes = (
"488 -20 OFFCURVE",
"572 49 OFFCURVE",
"572 169 CURVE SMOOTH",
"572 242 OFFCURVE",
"544 310 OFFCURVE",
"485 399 CURVE SMOOTH",
"427 487 OFFCURVE",
"398 580 OFFCURVE",
"398 677 CURVE SMOOTH",
"398 846 OFFCURVE",
"499 943 OFFCURVE",
"702 968 CURVE",
"702 0 LINE",
"878 0 LINE",
"878 970 LINE",
"1073 951 OFFCURVE",
"1182 854 OFFCURVE",
"1182 677 CURVE SMOOTH",
"1182 580 OFFCURVE",
"1153 487 OFFCURVE",
"1095 399 CURVE SMOOTH",
"1036 310 OFFCURVE",
"1008 241 OFFCURVE",
"1008 169 CURVE SMOOTH",
"1008 49 OFFCURVE",
"1092 -20 OFFCURVE",
"1243 -20 CURVE SMOOTH",
"1294 -20 OFFCURVE",
"1338 -10 OFFCURVE",
"1375 11 CURVE SMOOTH",
"1448 52 OFFCURVE",
"1492 125 OFFCURVE",
"1500 209 CURVE",
"1348 233 LINE",
"1331 162 OFFCURVE",
"1299 127 OFFCURVE",
"1254 127 CURVE SMOOTH",
"1210 127 OFFCURVE",
"1189 142 OFFCURVE",
"1189 186 CURVE SMOOTH",
"1189 209 OFFCURVE",
"1194 232 OFFCURVE",
"1205 256 CURVE",
"1215 280 OFFCURVE",
"1239 323 OFFCURVE",
"1278 384 CURVE SMOOTH",
"1337 478 OFFCURVE",
"1367 576 OFFCURVE",
"1367 677 CURVE SMOOTH",
"1367 766 OFFCURVE",
"1343 844 OFFCURVE",
"1295 913 CURVE SMOOTH",
"1199 1050 OFFCURVE",
"1030 1118 OFFCURVE",
"806 1118 CURVE SMOOTH",
"686 1118 OFFCURVE",
"581 1101 OFFCURVE",
"492 1066 CURVE SMOOTH",
"313 997 OFFCURVE",
"213 864 OFFCURVE",
"213 677 CURVE SMOOTH",
"213 572 OFFCURVE",
"243 473 OFFCURVE",
"302 380 CURVE SMOOTH",
"339 323 OFFCURVE",
"363 282 OFFCURVE",
"374 257 CURVE SMOOTH",
"385 232 OFFCURVE",
"391 209 OFFCURVE",
"391 186 CURVE SMOOTH",
"391 142 OFFCURVE",
"370 127 OFFCURVE",
"326 127 CURVE SMOOTH",
"275 127 OFFCURVE",
"244 173 OFFCURVE",
"232 233 CURVE",
"80 209 LINE",
"84 167 OFFCURVE",
"97 129 OFFCURVE",
"118 94 CURVE SMOOTH",
"161 25 OFFCURVE",
"234 -20 OFFCURVE",
"337 -20 CURVE SMOOTH"
);
}
);
width = 1580;
}
);
note = uni2C5E;
unicode = 2C5E;
},
